<svg width="414" height="440" viewBox="0 0 414 440" fill="none" xmlns="http://www.w3.org/2000/svg">
<path d="M414 146.671C414 205.84 364.522 256.853 293.3 279.998C323.374 262.445 342.526 235.818 342.526 206.019C342.526 153.67 283.405 111.1 209.844 110.039C208.868 109.991 207.976 109.991 207 109.991C206.024 109.991 205.132 109.991 204.156 110.039C176.859 111.088 155.25 127.091 155.25 146.659V329.997C155.25 390.728 85.7115 440 0 440V146.671C0 65.6798 92.6956 0 207 0C321.304 0 414 65.6798 414 146.671Z" fill="black"/>
<path d="M243.589 172.597C263.798 158.278 263.798 135.061 243.589 120.742C223.379 106.423 190.613 106.423 170.404 120.742C150.194 135.061 150.194 158.278 170.404 172.597C190.613 186.917 223.379 186.917 243.589 172.597Z" fill="black"/>
</svg>
