<svg width="56" height="56" viewBox="0 0 56 56" fill="none" xmlns="http://www.w3.org/2000/svg">
<g clip-path="url(#clip0_1589_79)">
<path d="M55.9895 27.3831C55.8373 18.0206 50.617 8.90486 42.5408 4.10461C36.1778 0.141739 28.14 -0.924886 20.9003 0.903864C10.0039 3.64699 1.31688 13.5152 0.212628 24.7625C-1.15937 35.385 4.21313 46.4327 13.3945 51.8805C22.386 57.519 34.6159 57.2906 43.407 51.3555C51.3319 46.2122 56.2468 36.8305 55.9808 27.391L55.9895 27.3831ZM29.5488 51.8437C16.8236 53.1011 4.51763 42.3194 4.17375 29.5557C3.21125 19.1931 10.0406 8.94424 19.7943 5.51511C33.4723 0.0288637 50.274 10.1631 51.6836 24.8325C53.8939 38.0135 42.9214 51.4325 29.5488 51.8437ZM21.175 26.5825L39.5763 11.5325L29.6328 26.6201C26.8135 26.6201 23.9943 26.621 21.175 26.5825ZM26.3489 29.365L34.8066 29.4035L16.4054 44.4911L26.3489 29.365Z" fill="#010101"/>
</g>
<defs>
<clipPath id="clip0_1589_79">
<rect width="56" height="56" fill="white"/>
</clipPath>
</defs>
</svg>
