<svg width="555" height="21" viewBox="0 0 555 21" fill="none" xmlns="http://www.w3.org/2000/svg">
<line x1="4.37114e-08" y1="10.5" x2="236.89" y2="10.5" stroke="#C2C2C2"/>
<line x1="318.11" y1="10.5" x2="555" y2="10.5" stroke="#C2C2C2"/>
<path d="M269.465 15.098C268.56 15.098 267.734 14.888 266.987 14.468C266.241 14.0387 265.648 13.446 265.209 12.69C264.78 11.9247 264.565 11.066 264.565 10.114C264.565 9.162 264.78 8.308 265.209 7.552C265.648 6.78667 266.241 6.194 266.987 5.774C267.734 5.34467 268.56 5.13 269.465 5.13C270.38 5.13 271.211 5.34467 271.957 5.774C272.704 6.194 273.292 6.782 273.721 7.538C274.151 8.294 274.365 9.15267 274.365 10.114C274.365 11.0753 274.151 11.934 273.721 12.69C273.292 13.446 272.704 14.0387 271.957 14.468C271.211 14.888 270.38 15.098 269.465 15.098ZM269.465 13.992C270.147 13.992 270.758 13.8333 271.299 13.516C271.85 13.1987 272.279 12.746 272.587 12.158C272.905 11.57 273.063 10.8887 273.063 10.114C273.063 9.33 272.905 8.64867 272.587 8.07C272.279 7.482 271.855 7.02933 271.313 6.712C270.772 6.39467 270.156 6.236 269.465 6.236C268.775 6.236 268.159 6.39467 267.617 6.712C267.076 7.02933 266.647 7.482 266.329 8.07C266.021 8.64867 265.867 9.33 265.867 10.114C265.867 10.8887 266.021 11.57 266.329 12.158C266.647 12.746 267.076 13.1987 267.617 13.516C268.168 13.8333 268.784 13.992 269.465 13.992ZM281.185 15L278.861 11.01H277.321V15H276.047V5.242H279.197C279.935 5.242 280.555 5.368 281.059 5.62C281.573 5.872 281.955 6.21267 282.207 6.642C282.459 7.07133 282.585 7.56133 282.585 8.112C282.585 8.784 282.389 9.37667 281.997 9.89C281.615 10.4033 281.036 10.744 280.261 10.912L282.711 15H281.185ZM277.321 9.988H279.197C279.888 9.988 280.406 9.82 280.751 9.484C281.097 9.13867 281.269 8.68133 281.269 8.112C281.269 7.53333 281.097 7.08533 280.751 6.768C280.415 6.45067 279.897 6.292 279.197 6.292H277.321V9.988Z" fill="#C2C2C2"/>
</svg>
