<svg width="32" height="32" viewBox="0 0 32 32" fill="none" xmlns="http://www.w3.org/2000/svg">
<g clip-path="url(#clip0_1589_170)">
<path d="M15.446 2.13201C15.651 1.63923 16.349 1.63923 16.554 2.13201L20.0913 10.6367C20.1777 10.8445 20.3731 10.9864 20.5974 11.0044L29.7789 11.7405C30.3109 11.7831 30.5267 12.4471 30.1213 12.7943L23.1259 18.7866C22.9551 18.9329 22.8804 19.1626 22.9326 19.3814L25.0698 28.3411C25.1937 28.8602 24.6289 29.2706 24.1735 28.9924L16.3128 24.1911C16.1207 24.0738 15.8793 24.0738 15.6872 24.1911L7.82653 28.9924C7.37107 29.2706 6.80632 28.8603 6.93015 28.3411L9.06736 19.3814C9.11957 19.1626 9.04494 18.9329 8.87407 18.7866L1.87867 12.7943C1.47335 12.4471 1.68906 11.7831 2.22106 11.7405L11.4026 11.0044C11.6269 10.9864 11.8223 10.8445 11.9087 10.6367L15.446 2.13201Z" fill="#D4D4D8"/>
</g>
<defs>
<clipPath id="clip0_1589_170">
<rect width="32" height="32" fill="white"/>
</clipPath>
</defs>
</svg>
