<svg width="693" height="725" viewBox="0 0 693 725" fill="none" xmlns="http://www.w3.org/2000/svg">
<g clip-path="url(#clip0_1711_623)">
<path d="M682.483 679.495H1.05438C0.981577 679.495 0.909488 679.48 0.842228 679.45C0.774967 679.42 0.713853 679.377 0.662374 679.323C0.610895 679.268 0.57006 679.203 0.5422 679.132C0.514339 679.06 0.5 678.984 0.5 678.907C0.5 678.829 0.514339 678.753 0.5422 678.682C0.57006 678.61 0.610895 678.545 0.662374 678.491C0.713853 678.436 0.774967 678.393 0.842228 678.363C0.909488 678.334 0.981577 678.319 1.05438 678.319H682.482C682.629 678.319 682.77 678.381 682.874 678.491C682.978 678.601 683.036 678.751 683.036 678.907C683.036 679.063 682.978 679.212 682.874 679.323C682.77 679.433 682.629 679.495 682.482 679.495H682.483Z" fill="#292A2E"/>
<g opacity="0.65">
<path d="M682.483 679.495H1.05438C0.981577 679.495 0.909488 679.48 0.842228 679.45C0.774967 679.42 0.713853 679.377 0.662374 679.323C0.610895 679.268 0.57006 679.203 0.5422 679.132C0.514339 679.06 0.5 678.984 0.5 678.907C0.5 678.829 0.514339 678.753 0.5422 678.682C0.57006 678.61 0.610895 678.545 0.662374 678.491C0.713853 678.436 0.774967 678.393 0.842228 678.363C0.909488 678.334 0.981577 678.319 1.05438 678.319H682.482C682.629 678.319 682.77 678.381 682.874 678.491C682.978 678.601 683.036 678.751 683.036 678.907C683.036 679.063 682.978 679.212 682.874 679.323C682.77 679.433 682.629 679.495 682.482 679.495H682.483Z" fill="#292A2E"/>
</g>
<path d="M48.4959 678.46L46.9404 678.143L71.2508 421.876L72.8062 422.194L48.4959 678.46Z" fill="#1E2772"/>
<path d="M139.016 678.46L137.461 678.143L161.771 421.876L163.326 422.194L139.016 678.46Z" fill="#1E2772"/>
<path d="M339.106 678.46L340.662 678.143L316.352 421.876L314.797 422.194L339.106 678.46Z" fill="#1E2772"/>
<path d="M248.586 678.46L250.141 678.143L225.832 421.876L224.276 422.194L248.586 678.46Z" fill="#1E2772"/>
<path d="M216.346 309.094L214.776 309.316L228.978 422.149L230.548 421.927L216.346 309.094Z" fill="#1E2772"/>
<path d="M53.3393 309.092L51.7693 309.315L65.9708 422.148L67.5409 421.925L53.3393 309.092Z" fill="#1E2772"/>
<path d="M230.412 413.772H70.9726C66.6709 413.772 63.1836 417.472 63.1836 422.035V422.036C63.1836 426.599 66.6709 430.299 70.9726 430.299H230.412C234.714 430.299 238.201 426.599 238.201 422.036V422.035C238.201 417.472 234.714 413.772 230.412 413.772Z" fill="#292A2E"/>
<path opacity="0.8" d="M230.412 413.772H70.9726C66.6709 413.772 63.1836 417.472 63.1836 422.035V422.036C63.1836 426.599 66.6709 430.299 70.9726 430.299H230.412C234.714 430.299 238.201 426.599 238.201 422.036V422.035C238.201 417.472 234.714 413.772 230.412 413.772Z" fill="white"/>
<path d="M230.409 431.139H70.9727C68.7111 431.116 66.5495 430.147 64.9579 428.442C63.3663 426.737 62.4734 424.435 62.4734 422.036C62.4734 419.636 63.3663 417.334 64.9579 415.629C66.5495 413.925 68.7111 412.955 70.9727 412.932H230.409C232.671 412.955 234.832 413.925 236.424 415.629C238.016 417.334 238.908 419.636 238.908 422.036C238.908 424.435 238.016 426.737 236.424 428.442C234.832 430.147 232.671 431.116 230.409 431.139ZM70.9727 414.613C69.1298 414.633 67.369 415.425 66.0727 416.814C64.7764 418.204 64.0493 420.08 64.0493 422.036C64.0493 423.991 64.7764 425.867 66.0727 427.257C67.369 428.647 69.1298 429.438 70.9727 429.459H230.409C232.252 429.438 234.013 428.647 235.309 427.257C236.605 425.867 237.332 423.991 237.332 422.036C237.332 420.08 236.605 418.204 235.309 416.814C234.013 415.425 232.252 414.633 230.409 414.613H70.9727Z" fill="#292A2E"/>
<path d="M317.921 413.773H158.482C154.18 413.773 150.693 417.472 150.693 422.035V422.036C150.693 426.599 154.18 430.299 158.482 430.299H317.921C322.223 430.299 325.71 426.599 325.71 422.036V422.035C325.71 417.472 322.223 413.773 317.921 413.773Z" fill="white"/>
<path d="M317.922 431.139H158.482C157.348 431.15 156.224 430.924 155.173 430.471C154.122 430.019 153.167 429.35 152.361 428.504C151.555 427.657 150.916 426.65 150.479 425.54C150.043 424.429 149.818 423.239 149.818 422.036C149.818 420.833 150.043 419.642 150.479 418.532C150.916 417.421 151.555 416.414 152.361 415.568C153.167 414.721 154.122 414.052 155.173 413.6C156.224 413.148 157.348 412.921 158.482 412.932H317.922C319.056 412.921 320.18 413.148 321.231 413.6C322.282 414.052 323.238 414.721 324.043 415.568C324.849 416.414 325.488 417.421 325.925 418.532C326.361 419.642 326.586 420.833 326.586 422.036C326.586 423.239 326.361 424.429 325.925 425.54C325.488 426.65 324.849 427.657 324.043 428.504C323.238 429.35 322.282 430.019 321.231 430.471C320.18 430.924 319.056 431.15 317.922 431.139ZM158.482 414.613C157.557 414.602 156.639 414.787 155.782 415.155C154.924 415.523 154.144 416.068 153.486 416.759C152.828 417.449 152.306 418.271 151.95 419.177C151.594 420.082 151.41 421.054 151.41 422.036C151.41 423.017 151.594 423.989 151.95 424.895C152.306 425.8 152.828 426.622 153.486 427.313C154.144 428.003 154.924 428.548 155.782 428.916C156.639 429.285 157.557 429.469 158.482 429.459H317.922C318.847 429.469 319.765 429.285 320.623 428.916C321.48 428.548 322.26 428.003 322.918 427.313C323.576 426.622 324.098 425.8 324.454 424.895C324.811 423.989 324.994 423.017 324.994 422.036C324.994 421.054 324.811 420.082 324.454 419.177C324.098 418.271 323.576 417.449 322.918 416.759C322.26 416.068 321.48 415.523 320.623 415.155C319.765 414.787 318.847 414.602 317.922 414.613H158.482Z" fill="#292A2E"/>
<path d="M207.612 309.202H52.9823C50.4543 309.202 48.0126 308.227 46.1131 306.457C44.2137 304.687 42.9862 302.245 42.6598 299.585L32.4315 216.261C32.2402 214.704 32.3643 213.121 32.7956 211.618C33.2269 210.116 33.9554 208.728 34.9324 207.548C35.9095 206.368 37.1127 205.422 38.4616 204.775C39.8105 204.127 41.2741 203.792 42.7548 203.792H197.384C199.912 203.792 202.354 204.768 204.253 206.538C206.152 208.307 207.38 210.75 207.706 213.409L217.935 296.733C218.126 298.291 218.002 299.873 217.57 301.376C217.139 302.878 216.411 304.266 215.434 305.446C214.457 306.626 213.254 307.572 211.905 308.219C210.556 308.867 209.093 309.202 207.612 309.202Z" fill="#292A2E"/>
<path opacity="0.8" d="M207.612 309.202H52.9823C50.4543 309.202 48.0126 308.227 46.1131 306.457C44.2137 304.687 42.9862 302.245 42.6598 299.585L32.4315 216.261C32.2402 214.704 32.3643 213.121 32.7956 211.618C33.2269 210.116 33.9554 208.728 34.9324 207.548C35.9095 206.368 37.1127 205.422 38.4616 204.775C39.8105 204.127 41.2741 203.792 42.7548 203.792H197.384C199.912 203.792 202.354 204.768 204.253 206.538C206.152 208.307 207.38 210.75 207.706 213.409L217.935 296.733C218.126 298.291 218.002 299.873 217.57 301.376C217.139 302.878 216.411 304.266 215.434 305.446C214.457 306.626 213.254 307.572 211.905 308.219C210.556 308.867 209.093 309.202 207.612 309.202Z" fill="white"/>
<path d="M207.612 310.043H52.9823C50.2639 310.036 47.6399 308.984 45.5972 307.081C43.5545 305.178 42.2317 302.554 41.8741 299.696L31.6458 216.372C31.44 214.696 31.5736 212.992 32.0377 211.376C32.5018 209.759 33.2856 208.265 34.337 206.996C35.3883 205.726 36.6829 204.708 38.1344 204.011C39.5859 203.314 41.1608 202.954 42.754 202.954H197.384C200.103 202.96 202.727 204.013 204.77 205.916C206.813 207.819 208.136 210.444 208.493 213.303L218.721 296.627C218.927 298.303 218.793 300.006 218.329 301.623C217.864 303.239 217.081 304.733 216.029 306.002C214.978 307.272 213.683 308.29 212.232 308.987C210.78 309.684 209.205 310.044 207.612 310.044V310.043ZM42.754 204.632C41.3861 204.632 40.0339 204.942 38.7877 205.54C37.5415 206.139 36.43 207.013 35.5274 208.103C34.6248 209.193 33.9518 210.475 33.5534 211.864C33.155 213.252 33.0404 214.714 33.2171 216.153L43.4446 299.477C43.7515 301.932 44.8873 304.185 46.6412 305.819C48.3951 307.453 50.6481 308.357 52.9823 308.362H207.612C208.98 308.362 210.333 308.053 211.579 307.454C212.826 306.856 213.937 305.982 214.84 304.891C215.743 303.8 216.416 302.518 216.814 301.13C217.212 299.741 217.327 298.278 217.15 296.839L206.922 213.516C206.615 211.061 205.479 208.808 203.725 207.175C201.971 205.541 199.718 204.638 197.384 204.632H42.754Z" fill="#292A2E"/>
<path d="M216.356 309.202H61.7265C59.1984 309.202 56.7567 308.227 54.857 306.457C52.9574 304.687 51.7298 302.245 51.4032 299.585L41.1749 216.261C40.9839 214.704 41.1082 213.121 41.5396 211.619C41.971 210.116 42.6995 208.729 43.6765 207.549C44.6535 206.368 45.8565 205.423 47.2053 204.775C48.5541 204.128 50.0177 203.792 51.4982 203.792H206.128C208.656 203.792 211.098 204.768 212.998 206.538C214.897 208.307 216.125 210.75 216.451 213.409L226.68 296.733C226.871 298.291 226.746 299.873 226.315 301.376C225.884 302.878 225.155 304.266 224.178 305.446C223.201 306.626 221.998 307.572 220.649 308.219C219.3 308.867 217.837 309.202 216.356 309.202Z" fill="white"/>
<path d="M216.356 310.043H61.7265C59.008 310.036 56.3839 308.984 54.3412 307.081C52.2984 305.179 50.9756 302.554 50.6183 299.696L40.39 216.372C40.1842 214.696 40.3178 212.992 40.7818 211.376C41.2459 209.759 42.0298 208.265 43.0811 206.996C44.1325 205.726 45.4271 204.708 46.8785 204.011C48.33 203.314 49.9049 202.954 51.4982 202.954H206.128C208.847 202.96 211.471 204.013 213.514 205.916C215.557 207.819 216.879 210.444 217.236 213.303L227.464 296.627C227.67 298.303 227.537 300.006 227.073 301.623C226.609 303.24 225.825 304.733 224.773 306.003C223.722 307.273 222.427 308.29 220.976 308.987C219.524 309.684 217.95 310.044 216.356 310.044V310.043ZM51.4982 204.632C50.1302 204.632 48.778 204.942 47.5318 205.54C46.2856 206.139 45.174 207.013 44.2713 208.103C43.3687 209.193 42.6956 210.475 42.2971 211.864C41.8986 213.252 41.7839 214.714 41.9605 216.153L52.1888 299.477C52.4953 301.932 53.631 304.185 55.385 305.819C57.1389 307.453 59.3921 308.357 61.7265 308.362H216.356C217.725 308.362 219.077 308.053 220.324 307.454C221.57 306.856 222.682 305.982 223.585 304.891C224.487 303.801 225.161 302.518 225.559 301.13C225.957 299.741 226.072 298.278 225.895 296.839L215.667 213.516C215.36 211.061 214.224 208.807 212.47 207.173C210.716 205.539 208.463 204.636 206.129 204.63L51.4982 204.632Z" fill="#292A2E"/>
<path d="M434.437 635.6C434.437 635.6 438.684 658.951 459.292 660.251C479.901 661.552 475.433 678.969 475.433 678.969H396.676V637.229L434.437 635.6Z" fill="black"/>
<path d="M284.606 620.858C284.606 620.858 278.7 643.798 296.652 654.617C314.603 665.435 303.345 678.97 303.345 678.97L232.676 642.088L250.045 604.633L284.606 620.858Z" fill="black"/>
<path d="M221.19 76.7673C221.19 76.7673 231.465 68.5399 234.011 49.6017C235.982 34.9381 223.231 44.4374 223.231 44.4374C223.231 44.4374 224.554 33.8652 217.292 34.9137C210.029 35.9622 205.967 47.0704 205.967 47.0704" fill="#0C0C0C"/>
<path d="M179.761 36.1512C179.761 36.1512 143.73 40.2493 156.755 92.0416L159.944 92.2676L166.416 92.728" fill="#0C0C0C"/>
<path d="M215.155 146.131C214.996 146.109 213.238 177.048 179.353 174.353C155.895 172.489 147.531 146.087 146.993 146.087C149.523 145.517 152.648 144.651 153.89 144.354C156.598 143.687 159.049 142.162 160.919 139.981C162.789 137.8 163.989 135.067 164.359 132.145C165.045 127.76 163.884 105.322 164.239 100.884L200.248 109.411C199.745 118.782 196.223 140.509 208.563 144.354C210.62 144.99 212.832 145.575 215.155 146.131Z" fill="#E98862"/>
<path opacity="0.52" d="M200.754 135.475C200.19 133.547 199.826 131.559 199.67 129.547C199.275 124.955 199.355 120.331 199.908 115.758C192.589 114.71 185.694 111.505 180.006 106.508C179.338 109.127 175.661 120.573 176.68 123.063C178.601 127.769 187.643 135.475 200.754 135.475Z" fill="#0C0C0C"/>
<path d="M193.322 129.351C179.116 127.999 162.113 118.478 161.868 98.0217L161.646 79.5649C161.402 59.1086 171.33 42.3892 189.487 42.1447C207.643 41.8994 221.413 58.2995 221.658 78.755L221.756 86.9261C221.743 89.7324 221.551 92.5346 221.179 95.3131C220.247 102.664 218.803 113.84 214.101 121.402C209.659 128.539 202.397 130.215 193.322 129.351Z" fill="#E98862"/>
<path d="M199.913 110.653C202.844 110.794 205.766 110.202 208.442 108.925C208.497 108.9 208.548 108.864 208.59 108.818C208.632 108.772 208.665 108.718 208.687 108.659C208.71 108.6 208.721 108.537 208.72 108.473C208.72 108.409 208.707 108.346 208.684 108.287C208.66 108.229 208.626 108.175 208.583 108.131C208.54 108.086 208.489 108.051 208.433 108.027C208.377 108.003 208.318 107.991 208.257 107.992C208.197 107.993 208.138 108.006 208.083 108.031C202.317 110.64 197.081 110.257 192.942 106.926C192.859 106.856 192.772 106.791 192.682 106.731C192.578 106.679 192.46 106.671 192.35 106.708C192.241 106.745 192.149 106.824 192.092 106.929C192.034 107.035 192.017 107.159 192.042 107.278C192.067 107.397 192.132 107.501 192.226 107.571C192.26 107.592 192.313 107.637 192.385 107.698C194.561 109.456 197.182 110.485 199.913 110.653Z" fill="#0C0C0C"/>
<path d="M199.776 115.261C200.305 115.296 200.837 115.283 201.364 115.221C201.485 115.207 201.596 115.143 201.672 115.043C201.748 114.943 201.784 114.815 201.771 114.687C201.759 114.558 201.698 114.441 201.604 114.36C201.509 114.279 201.388 114.241 201.268 114.255C198.094 114.613 196.58 113.07 196.516 113.004C196.429 112.917 196.314 112.869 196.195 112.871C196.075 112.872 195.961 112.923 195.877 113.013C195.792 113.102 195.744 113.223 195.742 113.35C195.74 113.477 195.785 113.599 195.867 113.691C196.96 114.677 198.341 115.232 199.776 115.261Z" fill="#0C0C0C"/>
<path d="M215.662 90.8596C216.897 90.8596 217.898 89.7974 217.898 88.4871C217.898 87.1768 216.897 86.1146 215.662 86.1146C214.427 86.1146 213.425 87.1768 213.425 88.4871C213.425 89.7974 214.427 90.8596 215.662 90.8596Z" fill="#0C0C0C"/>
<path d="M193.813 89.4053C195.048 89.4053 196.049 88.3431 196.049 87.0328C196.049 85.7225 195.048 84.6603 193.813 84.6603C192.578 84.6603 191.576 85.7225 191.576 87.0328C191.576 88.3431 192.578 89.4053 193.813 89.4053Z" fill="#0C0C0C"/>
<path d="M163.07 104.239C157.553 104.313 153.005 98.1116 152.933 92.2584C152.861 86.4052 157.297 83.1178 162.814 83.043L165.704 86.9261L167.813 104.175L163.07 104.239Z" fill="#E98862"/>
<path d="M168.556 94.8334C168.556 94.8334 170.42 65.8885 178.693 64.1015C184.204 62.911 197.567 71.2023 209.944 68.6978C215.359 67.6057 220.5 69.0247 221.023 71.7374C221.229 72.812 224.603 57.3712 216.123 45.6565C209.372 36.331 187.277 33.693 177.226 36.7511C149.394 45.2213 161.675 84.3175 161.675 84.3175L162.916 94.2957L168.556 94.8334Z" fill="#0C0C0C"/>
<path d="M203.244 103.822C203.256 103.823 203.268 103.823 203.28 103.822C205.058 103.803 208.038 103.561 208.026 102.149C208.014 100.98 204.878 88.3921 204.519 86.9606C204.48 86.849 204.403 86.757 204.303 86.7025C204.203 86.6479 204.087 86.6347 203.979 86.6654C203.87 86.696 203.776 86.7684 203.715 86.8685C203.654 86.9685 203.63 87.0891 203.648 87.2067C205.041 92.7818 207.116 101.365 207.125 102.161C206.953 102.497 205.116 102.842 203.275 102.863C203.159 102.865 203.048 102.915 202.966 103.002C202.883 103.088 202.835 103.206 202.832 103.329C202.829 103.452 202.87 103.572 202.947 103.663C203.025 103.755 203.132 103.812 203.248 103.822H203.244Z" fill="#0C0C0C"/>
<path d="M209.314 75.623C211.183 75.0774 213.156 75.0774 215.024 75.623C215.942 75.8847 216.818 76.2914 217.622 76.8294C218.417 77.3561 219.145 77.9873 219.791 78.708C219.915 78.8351 219.987 79.0086 219.991 79.1912C219.996 79.3739 219.933 79.5512 219.816 79.6852C219.699 79.8192 219.537 79.8993 219.365 79.9082C219.193 79.9171 219.024 79.8542 218.895 79.7329L218.855 79.696C218.257 79.109 217.592 78.604 216.875 78.193C216.172 77.7843 215.414 77.4911 214.628 77.3234C213.081 76.9784 211.475 77.0735 209.974 77.599L209.91 77.6225C209.663 77.7154 209.39 77.7002 209.153 77.58C208.916 77.4599 208.734 77.2447 208.646 76.9819C208.558 76.7191 208.573 76.4302 208.686 76.1786C208.799 75.9271 209.002 75.7336 209.25 75.6407L209.314 75.623Z" fill="#0C0C0C"/>
<path d="M196.082 76.8135C194.66 76.0805 193.081 75.7591 191.504 75.8818C190.704 75.937 189.916 76.1205 189.168 76.4262C188.407 76.7326 187.686 77.1391 187.02 77.636L186.977 77.6662C186.835 77.7634 186.662 77.7984 186.495 77.764C186.329 77.7296 186.181 77.6285 186.083 77.4816C185.985 77.3347 185.944 77.1534 185.969 76.9753C185.993 76.7972 186.082 76.6361 186.216 76.5253C186.946 75.9025 187.748 75.3798 188.602 74.9694C189.466 74.5506 190.385 74.2713 191.328 74.141C192.272 74.0003 193.229 73.9978 194.174 74.1335C195.144 74.2613 196.091 74.5349 196.988 74.9459C197.229 75.0573 197.419 75.2659 197.516 75.5259C197.612 75.7858 197.608 76.0759 197.503 76.3321C197.398 76.5883 197.201 76.7898 196.956 76.8922C196.711 76.9946 196.437 76.9896 196.196 76.8782C196.178 76.8698 196.159 76.8605 196.141 76.8505L196.082 76.8135Z" fill="#0C0C0C"/>
<path d="M206.655 55.6968C210.739 54.7917 213.032 48.8885 211.776 42.5118C210.52 36.135 206.191 31.6994 202.107 32.6046C198.023 33.5098 195.73 39.413 196.986 45.7897C198.242 52.1664 202.571 56.602 206.655 55.6968Z" fill="#0C0C0C"/>
<path d="M240.836 614.378L300.431 414.939H192.406C170.706 414.939 161.66 395.419 161.66 372.401C161.66 349.383 182.993 329.205 204.691 329.205H350.485C363.72 329.205 378.56 337.791 385.824 349.528C393.088 361.264 391.124 379.451 385.861 392.333L290.428 638.211" fill="#262626"/>
<path opacity="0.8" d="M240.836 614.378L300.431 414.939H192.406C170.706 414.939 161.66 395.419 161.66 372.401C161.66 349.383 182.993 329.205 204.691 329.205H350.485C363.72 329.205 378.56 337.791 385.824 349.528C393.088 361.264 391.124 379.451 385.861 392.333L290.428 638.211" fill="#0A0A0A"/>
<path d="M392.147 657.285L292.499 414.94L161.659 414.93C131.001 412.38 116.96 394.557 117.407 371.544C117.847 348.823 128.692 326.381 150.014 326.381H326.364C342.14 326.725 354.552 345.219 360.404 360.763L443.245 642.448" fill="#262626"/>
<path d="M108.483 326.659C108.483 326.659 102.672 366.855 111.883 389.204C123.381 417.104 166.487 414.931 166.487 414.931L164.058 326.381L108.483 326.659Z" fill="#262626"/>
<path d="M364.154 325.868L271.731 305.552C267.879 304.706 264.292 302.842 261.299 300.135C258.307 297.427 256.007 293.963 254.611 290.062L218.26 188.446C217.153 185.396 216.625 182.144 216.706 178.878C216.788 175.611 217.477 172.393 218.733 169.41C219.99 166.426 221.791 163.735 224.031 161.492C226.271 159.249 228.907 157.497 231.787 156.338C234.667 155.178 237.735 154.634 240.814 154.736C243.893 154.838 246.923 155.584 249.729 156.932C252.535 158.279 255.063 160.202 257.167 162.589C259.271 164.976 260.91 167.781 261.989 170.842L293.788 259.727L373.646 277.281C373.646 277.281 365.757 326.22 364.154 325.868Z" fill="#AD6C41"/>
<path d="M257.257 214.254C256.19 227.556 248.624 310.542 247.595 326.926H108.544C107.745 312.149 104.157 247.534 101.128 218.633C98.2355 191.059 94.1814 178.511 97.5124 169.942C103.387 154.829 122.087 148.079 134.751 146.261C142.483 145.15 154.113 144.354 154.113 144.354C154.113 144.354 155.098 165.486 178.578 166.662C210.542 168.258 208.407 144.354 208.566 144.354C213.744 144.354 241.93 148.349 248.978 153.222C258.933 160.105 261.874 169.484 261.99 178.102C262.124 188.024 258.467 199.165 257.257 214.254Z" fill="#AD6C41"/>
<path d="M251.792 282.059H251.759C251.707 282.054 251.656 282.039 251.61 282.014C251.564 281.988 251.523 281.954 251.489 281.911C251.456 281.869 251.43 281.821 251.414 281.768C251.398 281.715 251.393 281.66 251.397 281.605L255.007 235.605C255.01 235.549 255.023 235.495 255.046 235.445C255.07 235.395 255.102 235.351 255.142 235.315C255.182 235.279 255.229 235.253 255.279 235.236C255.329 235.22 255.382 235.215 255.434 235.221C255.485 235.225 255.536 235.241 255.582 235.266C255.628 235.291 255.67 235.326 255.703 235.368C255.737 235.41 255.762 235.459 255.778 235.511C255.794 235.564 255.8 235.619 255.796 235.674L252.186 281.675C252.177 281.779 252.132 281.877 252.059 281.948C251.986 282.019 251.891 282.058 251.792 282.059Z" fill="#0C0C0C"/>
<path d="M274.147 317.803L304.657 218.312C305.193 216.564 306.237 215.041 307.639 213.96C309.042 212.88 310.73 212.298 312.463 212.298H436.765C438.06 212.298 439.338 212.623 440.492 213.247C441.647 213.871 442.645 214.776 443.407 215.889C444.168 217.001 444.671 218.288 444.873 219.646C445.075 221.004 444.972 222.393 444.571 223.7L414.061 323.191C413.525 324.939 412.481 326.462 411.079 327.543C409.676 328.623 407.988 329.205 406.255 329.205H281.953C280.658 329.205 279.38 328.88 278.226 328.256C277.071 327.632 276.072 326.727 275.311 325.614C274.55 324.502 274.047 323.215 273.845 321.857C273.643 320.499 273.746 319.11 274.147 317.803Z" fill="#292A2E"/>
<path opacity="0.2" d="M274.147 317.803L304.657 218.312C305.193 216.564 306.237 215.041 307.639 213.96C309.042 212.88 310.73 212.298 312.463 212.298H436.765C438.06 212.298 439.338 212.623 440.492 213.247C441.647 213.871 442.645 214.776 443.407 215.889C444.168 217.001 444.671 218.288 444.873 219.646C445.075 221.004 444.972 222.393 444.571 223.7L414.061 323.191C413.525 324.939 412.481 326.462 411.079 327.543C409.676 328.623 407.988 329.205 406.255 329.205H281.953C280.658 329.205 279.38 328.88 278.226 328.256C277.071 327.632 276.072 326.727 275.311 325.614C274.55 324.502 274.047 323.215 273.845 321.857C273.643 320.499 273.746 319.11 274.147 317.803Z" fill="white"/>
<path d="M299.035 321.138H215.828C213.755 321.138 212.074 322.921 212.074 325.121V325.223C212.074 327.422 213.755 329.205 215.828 329.205H299.035C301.109 329.205 302.789 327.422 302.789 325.223V325.121C302.789 322.921 301.109 321.138 299.035 321.138Z" fill="#292A2E"/>
<path opacity="0.2" d="M299.035 321.138H215.828C213.755 321.138 212.074 322.921 212.074 325.121V325.223C212.074 327.422 213.755 329.205 215.828 329.205H299.035C301.109 329.205 302.789 327.422 302.789 325.223V325.121C302.789 322.921 301.109 321.138 299.035 321.138Z" fill="white"/>
<path d="M359.359 289.434C366.559 289.434 372.396 283.243 372.396 275.605C372.396 267.967 366.559 261.776 359.359 261.776C352.159 261.776 346.323 267.967 346.323 275.605C346.323 283.243 352.159 289.434 359.359 289.434Z" fill="white"/>
<path d="M258.517 195.709H225.464V238.711H258.517V195.709Z" fill="white"/>
<path d="M225.464 231.568C222.787 231.568 220.17 230.726 217.944 229.148C215.718 227.57 213.983 225.328 212.959 222.704C211.934 220.08 211.666 217.193 212.188 214.408C212.711 211.623 214 209.064 215.893 207.056C217.786 205.048 220.197 203.681 222.823 203.126C225.449 202.572 228.17 202.857 230.644 203.944C233.117 205.03 235.231 206.871 236.718 209.232C238.206 211.593 238.999 214.369 238.999 217.209C238.995 221.016 237.568 224.666 235.031 227.358C232.493 230.05 229.052 231.564 225.464 231.568ZM225.464 208.732C223.883 208.732 222.338 209.23 221.024 210.161C219.709 211.093 218.685 212.417 218.08 213.966C217.475 215.515 217.317 217.22 217.626 218.864C217.934 220.509 218.695 222.019 219.813 223.205C220.931 224.391 222.355 225.198 223.905 225.525C225.455 225.852 227.062 225.684 228.523 225.042C229.983 224.4 231.231 223.314 232.109 221.919C232.987 220.525 233.456 218.886 233.456 217.209C233.453 214.962 232.611 212.807 231.112 211.217C229.614 209.628 227.583 208.734 225.464 208.732Z" fill="white"/>
<path d="M227.37 223.58C227.069 222.749 226.502 222.058 225.768 221.626C225.034 221.195 224.181 221.051 223.357 221.22C223.373 221.18 223.381 221.137 223.382 221.093L224.491 220.567C225.267 220.217 225.906 219.593 226.299 218.8C226.692 218.007 226.814 217.095 226.646 216.218C226.529 215.67 226.3 215.157 225.973 214.714C225.647 214.272 225.233 213.912 224.759 213.66C224.286 213.408 223.766 213.271 223.237 213.258C222.708 213.245 222.182 213.357 221.699 213.586L219.084 214.827C219.084 214.816 219.084 214.805 219.078 214.794C219.068 214.772 219.055 214.751 219.04 214.732C219.685 214.217 220.145 213.485 220.347 212.656C220.549 211.828 220.481 210.951 220.153 210.169C219.427 208.085 216.853 207.918 215.151 208.724L208.313 211.65L210.377 209.43C211.024 208.706 211.387 207.748 211.394 206.751C211.4 205.754 211.05 204.791 210.413 204.057C210.072 203.691 209.664 203.402 209.214 203.208C208.764 203.015 208.281 202.92 207.795 202.931C207.31 202.942 206.831 203.058 206.389 203.271C205.947 203.485 205.551 203.792 205.224 204.173L180.911 232.341L189.227 240.836C191.809 243.475 195.075 245.236 198.606 245.892C202.138 246.549 205.774 246.072 209.048 244.522L223.867 237.474C224.644 237.124 225.283 236.499 225.676 235.707C226.069 234.914 226.191 234.002 226.022 233.125C225.854 232.337 225.453 231.627 224.878 231.098C224.303 230.569 223.583 230.249 222.824 230.184C222.833 230.141 222.833 230.096 222.825 230.052C222.817 230.008 222.8 229.967 222.777 229.93C222.754 229.893 222.724 229.861 222.689 229.837C222.654 229.812 222.614 229.795 222.573 229.787L225.31 228.491C226.176 228.102 226.871 227.379 227.253 226.467C227.636 225.555 227.678 224.523 227.37 223.58Z" fill="#E98862"/>
<path opacity="0.2" d="M214.14 217.21C214.061 217.21 213.985 217.182 213.925 217.129C213.864 217.076 213.823 217.002 213.808 216.921C213.794 216.839 213.806 216.754 213.844 216.681C213.882 216.609 213.943 216.552 214.016 216.522L218.641 214.59C218.682 214.573 218.726 214.564 218.77 214.565C218.814 214.566 218.858 214.576 218.898 214.594C218.939 214.613 218.975 214.64 219.006 214.674C219.036 214.707 219.061 214.747 219.077 214.791C219.093 214.834 219.101 214.881 219.1 214.927C219.099 214.974 219.09 215.02 219.072 215.063C219.055 215.106 219.029 215.145 218.998 215.177C218.966 215.21 218.928 215.235 218.887 215.253L214.262 217.185C214.223 217.201 214.182 217.21 214.14 217.21Z" fill="#0C0C0C"/>
<path opacity="0.2" d="M216.721 224.148C216.643 224.148 216.567 224.119 216.507 224.066C216.448 224.013 216.407 223.94 216.392 223.859C216.377 223.778 216.389 223.694 216.426 223.622C216.464 223.549 216.523 223.492 216.596 223.461L222.922 220.762C223.003 220.732 223.093 220.736 223.172 220.774C223.25 220.812 223.312 220.88 223.344 220.965C223.377 221.05 223.377 221.145 223.345 221.231C223.313 221.316 223.251 221.384 223.172 221.422L216.847 224.123C216.806 224.139 216.764 224.148 216.721 224.148Z" fill="#0C0C0C"/>
<path opacity="0.2" d="M219.48 231.681C219.401 231.681 219.325 231.651 219.265 231.598C219.204 231.544 219.163 231.47 219.149 231.388C219.135 231.306 219.149 231.221 219.188 231.148C219.227 231.076 219.288 231.02 219.362 230.991L222.378 229.79C222.461 229.757 222.554 229.76 222.635 229.799C222.716 229.838 222.779 229.909 222.811 229.998C222.842 230.086 222.84 230.184 222.803 230.27C222.766 230.357 222.699 230.424 222.615 230.457L219.6 231.658C219.561 231.673 219.521 231.681 219.48 231.681Z" fill="#0C0C0C"/>
<path d="M234.403 168.357C234.257 168.357 234.114 168.315 233.989 168.234C233.865 168.154 233.764 168.038 233.697 167.9C231.894 164.171 229.65 159.528 229.904 154.662C230.105 150.791 231.816 147.352 233.468 144.031C234.535 142.024 235.445 139.927 236.188 137.761C237.094 134.772 237.323 131.598 236.855 128.498C236.387 125.398 235.236 122.459 233.495 119.92C233.43 119.831 233.382 119.73 233.355 119.621C233.327 119.513 233.32 119.4 233.334 119.289C233.349 119.177 233.384 119.07 233.438 118.974C233.492 118.877 233.563 118.793 233.649 118.726C233.734 118.66 233.831 118.612 233.933 118.585C234.036 118.559 234.143 118.555 234.248 118.573C234.352 118.591 234.452 118.632 234.541 118.691C234.631 118.751 234.708 118.83 234.769 118.922C236.66 121.677 237.911 124.867 238.42 128.232C238.929 131.597 238.682 135.043 237.699 138.287C236.93 140.543 235.985 142.727 234.875 144.816C233.228 148.125 231.672 151.251 231.49 154.755C231.26 159.166 233.307 163.4 235.112 167.134C235.174 167.262 235.203 167.405 235.198 167.549C235.193 167.692 235.153 167.832 235.083 167.955C235.012 168.078 234.913 168.179 234.795 168.25C234.677 168.32 234.543 168.357 234.408 168.357H234.403Z" fill="white"/>
<path d="M247.12 181.47C246.944 181.47 246.774 181.408 246.635 181.294C246.496 181.18 246.397 181.02 246.353 180.84C246.309 180.66 246.323 180.469 246.392 180.298C246.462 180.127 246.583 179.985 246.736 179.895C249.671 178.178 250 173.398 248.621 169.77C247.937 168.102 247.137 166.49 246.227 164.949C245.011 162.952 244.022 160.808 243.281 158.564C242.525 155.828 242.477 152.926 243.144 150.163C243.81 147.401 245.166 144.88 247.068 142.865C247.219 142.712 247.421 142.629 247.63 142.633C247.839 142.638 248.038 142.729 248.183 142.888C248.328 143.047 248.409 143.261 248.407 143.482C248.404 143.704 248.32 143.915 248.171 144.071C246.475 145.867 245.266 148.115 244.672 150.579C244.078 153.042 244.12 155.63 244.794 158.07C245.499 160.187 246.437 162.209 247.589 164.092C248.542 165.705 249.378 167.393 250.09 169.14C251.704 173.389 251.345 179.117 247.501 181.365C247.384 181.434 247.253 181.47 247.12 181.47Z" fill="white"/>
<path d="M208.788 254.702L92.1705 305.9C87.966 307.726 83.3511 308.213 78.8898 307.302C74.4286 306.39 70.3141 304.121 67.0491 300.769C63.7841 297.418 61.5101 293.13 60.5048 288.43C59.4995 283.73 59.8065 278.821 61.3882 274.304L96.17 173.527C100.667 160.683 113.334 153.297 125.443 158.068C131.257 160.359 135.975 165.006 138.559 170.987C141.144 176.968 141.382 183.793 139.223 189.961L123.358 237.66L191.705 209.708" fill="#AD6C41"/>
<path d="M208.504 255.159C208.442 255.159 208.381 255.139 208.33 255.102C208.278 255.066 208.238 255.014 208.214 254.953L191.246 210.258L123.128 238.145C123.072 238.168 123.01 238.174 122.951 238.16C122.892 238.147 122.838 238.116 122.795 238.07C122.752 238.025 122.723 237.967 122.711 237.904C122.698 237.842 122.704 237.776 122.726 237.717L133.259 209.038C133.289 208.956 133.348 208.891 133.424 208.855C133.5 208.82 133.585 208.818 133.662 208.85C133.739 208.882 133.801 208.945 133.834 209.025C133.868 209.106 133.869 209.197 133.839 209.278L123.563 237.257L191.309 209.522C191.385 209.491 191.47 209.493 191.545 209.527C191.62 209.562 191.68 209.626 191.71 209.707L208.793 254.705C208.823 254.786 208.821 254.877 208.789 254.958C208.757 255.038 208.696 255.102 208.62 255.136C208.583 255.151 208.544 255.159 208.504 255.159Z" fill="#0C0C0C"/>
<path d="M101.734 247.019C101.661 247.02 101.591 246.994 101.534 246.944C101.478 246.895 101.439 246.827 101.426 246.751C101.412 246.675 101.424 246.596 101.46 246.528C101.495 246.461 101.552 246.409 101.62 246.381L122.955 237.476C122.994 237.459 123.035 237.45 123.076 237.451C123.117 237.451 123.158 237.46 123.196 237.477C123.234 237.494 123.269 237.519 123.298 237.551C123.326 237.582 123.349 237.619 123.364 237.66C123.379 237.701 123.387 237.745 123.386 237.789C123.385 237.832 123.376 237.876 123.359 237.916C123.342 237.956 123.318 237.992 123.288 238.022C123.258 238.052 123.223 238.076 123.184 238.091L101.848 246.997C101.812 247.012 101.773 247.019 101.734 247.019Z" fill="#0C0C0C"/>
<path d="M106.703 299.922C106.631 299.922 106.561 299.896 106.505 299.847C106.449 299.799 106.41 299.731 106.396 299.656C106.382 299.58 106.393 299.502 106.428 299.435C106.462 299.367 106.517 299.315 106.584 299.286L208.388 254.524C208.426 254.507 208.466 254.498 208.507 254.499C208.548 254.499 208.589 254.507 208.626 254.524C208.664 254.541 208.699 254.565 208.727 254.596C208.756 254.626 208.779 254.663 208.795 254.703C208.81 254.743 208.818 254.786 208.818 254.829C208.818 254.873 208.81 254.916 208.794 254.956C208.779 254.996 208.756 255.032 208.727 255.063C208.698 255.093 208.664 255.118 208.626 255.134L106.822 299.896C106.784 299.913 106.744 299.922 106.703 299.922Z" fill="#0C0C0C"/>
<path d="M623.552 569.319C623.342 569.319 623.14 569.231 622.992 569.073C621.876 567.889 620.058 546.172 615.159 481.512C613.153 455.054 611.26 430.064 609.878 414.877C609.779 413.793 609.383 413.666 609.253 413.625C607.362 413.019 601.609 417.831 598.397 422.044C598.265 422.218 598.074 422.328 597.865 422.352C597.656 422.376 597.447 422.31 597.283 422.17C597.12 422.03 597.016 421.827 596.993 421.605C596.971 421.384 597.033 421.162 597.165 420.988C599.289 418.203 606.211 410.898 609.708 412.015C610.414 412.24 611.292 412.89 611.455 414.715C612.838 429.916 614.732 454.913 616.737 481.377C619.714 520.67 623.087 565.185 624.195 567.988C624.28 568.114 624.331 568.262 624.342 568.416C624.353 568.57 624.323 568.725 624.257 568.862C624.19 569 624.089 569.115 623.965 569.196C623.841 569.277 623.698 569.319 623.552 569.319Z" fill="#1E2772"/>
<path d="M607.844 442.745C620.986 431.57 625.341 414.177 617.573 403.895C609.804 393.614 592.853 394.339 579.711 405.514C566.569 416.688 562.213 434.082 569.982 444.363C577.751 454.644 594.702 453.92 607.844 442.745Z" fill="#AD6C41"/>
<path opacity="0.2" d="M607.844 442.745C620.986 431.57 625.341 414.177 617.573 403.895C609.804 393.614 592.853 394.339 579.711 405.514C566.569 416.688 562.213 434.082 569.982 444.363C577.751 454.644 594.702 453.92 607.844 442.745Z" fill="white"/>
<path d="M573.666 446.979C573.59 446.979 573.517 446.956 573.453 446.913C573.39 446.87 573.339 446.809 573.307 446.737C573.275 446.665 573.263 446.584 573.273 446.505C573.283 446.426 573.313 446.351 573.361 446.29L610.815 398.378C610.847 398.335 610.888 398.298 610.934 398.272C610.981 398.245 611.031 398.228 611.084 398.223C611.136 398.217 611.189 398.223 611.239 398.239C611.289 398.255 611.336 398.282 611.377 398.318C611.417 398.353 611.45 398.397 611.475 398.447C611.499 398.496 611.514 398.55 611.518 398.606C611.523 398.661 611.516 398.717 611.5 398.77C611.484 398.824 611.458 398.873 611.424 398.915L573.971 446.827C573.933 446.874 573.887 446.913 573.834 446.939C573.781 446.965 573.724 446.979 573.666 446.979Z" fill="white"/>
<path d="M631.721 559.048C631.595 559.048 631.47 559.016 631.358 558.954C631.245 558.893 631.148 558.804 631.075 558.695C631.002 558.585 630.954 558.459 630.936 558.326C630.919 558.193 630.931 558.058 630.973 557.931L645.041 515.012C645.455 513.75 646.161 512.62 647.094 511.723C648.027 510.826 649.157 510.192 650.381 509.879C651.605 509.566 652.883 509.583 654.099 509.93C655.314 510.276 656.429 510.941 657.34 511.863L664.777 519.4C664.929 519.554 665.017 519.766 665.022 519.989C665.026 520.212 664.947 520.427 664.802 520.588C664.657 520.749 664.458 520.843 664.248 520.848C664.038 520.853 663.834 520.769 663.682 520.615L656.245 513.078C655.526 512.351 654.646 511.826 653.687 511.553C652.727 511.279 651.718 511.266 650.752 511.513C649.786 511.76 648.894 512.261 648.158 512.968C647.422 513.676 646.864 514.568 646.537 515.564L632.469 558.483C632.415 558.648 632.314 558.791 632.18 558.892C632.046 558.993 631.885 559.048 631.721 559.048Z" fill="#1E2772"/>
<path d="M685.558 543.164C695.297 534.986 694.719 516.999 684.265 502.99C673.812 488.981 657.443 484.253 647.703 492.431C637.964 500.609 638.543 518.595 648.996 532.605C659.449 546.614 675.819 551.341 685.558 543.164Z" fill="#AD6C41"/>
<path d="M617.161 566.582C616.983 566.582 616.81 566.518 616.67 566.401C616.53 566.284 616.432 566.12 616.391 565.937L592.782 461.22C592.621 460.506 592.277 459.853 591.788 459.333C591.3 458.813 590.686 458.446 590.014 458.273C589.341 458.099 588.637 458.125 587.978 458.349C587.319 458.572 586.73 458.984 586.278 459.539L579 468.461C578.932 468.544 578.849 468.613 578.756 468.662C578.663 468.712 578.562 468.741 578.458 468.749C578.354 468.757 578.25 468.743 578.152 468.709C578.053 468.674 577.961 468.619 577.883 468.546C577.804 468.474 577.74 468.386 577.693 468.288C577.646 468.189 577.618 468.082 577.611 467.972C577.603 467.861 577.616 467.751 577.649 467.646C577.682 467.541 577.734 467.445 577.802 467.361L585.08 458.44C585.724 457.652 586.56 457.068 587.496 456.751C588.433 456.434 589.433 456.398 590.388 456.645C591.343 456.892 592.215 457.414 592.908 458.153C593.602 458.891 594.09 459.819 594.319 460.832L617.928 565.55C617.977 565.766 617.942 565.995 617.833 566.184C617.723 566.374 617.546 566.51 617.342 566.562C617.282 566.576 617.222 566.583 617.161 566.582Z" fill="#1E2772"/>
<path d="M608.453 491.723C611.323 474.118 603.727 458.026 591.488 455.78C579.249 453.535 567 465.987 564.13 483.593C561.26 501.198 568.856 517.291 581.095 519.536C593.334 521.781 605.583 509.329 608.453 491.723Z" fill="#AD6C41"/>
<path d="M623.553 569.319C623.521 569.319 623.488 569.317 623.455 569.312C623.247 569.285 623.057 569.172 622.928 568.996C622.798 568.821 622.74 568.598 622.765 568.377L637.842 438.528C638.006 437.113 638.552 435.778 639.414 434.684C640.276 433.59 641.418 432.784 642.702 432.362C643.985 431.941 645.357 431.922 646.651 432.307C647.945 432.693 649.106 433.467 649.995 434.536L667.227 455.24C667.366 455.407 667.436 455.626 667.423 455.848C667.41 456.071 667.314 456.278 667.157 456.426C666.999 456.573 666.793 456.649 666.583 456.635C666.374 456.621 666.178 456.519 666.039 456.352L648.807 435.648C648.12 434.821 647.222 434.223 646.221 433.925C645.221 433.627 644.161 433.642 643.168 433.969C642.176 434.295 641.294 434.919 640.628 435.765C639.961 436.611 639.54 437.643 639.414 438.737L624.335 568.582C624.312 568.784 624.219 568.971 624.075 569.107C623.932 569.243 623.746 569.318 623.553 569.319Z" fill="#1E2772"/>
<path d="M684.897 466.744C690.909 455.214 683.835 438.856 669.097 430.208C654.359 421.56 637.537 423.896 631.525 435.426C625.513 446.956 632.586 463.314 647.325 471.962C662.063 480.61 678.884 478.274 684.897 466.744Z" fill="#AD6C41"/>
<path opacity="0.2" d="M685.558 543.164C695.297 534.986 694.719 516.999 684.265 502.99C673.812 488.981 657.443 484.253 647.703 492.431C637.964 500.609 638.543 518.595 648.996 532.605C659.449 546.614 675.819 551.341 685.558 543.164Z" fill="white"/>
<path opacity="0.5" d="M608.453 491.723C611.323 474.118 603.727 458.026 591.488 455.78C579.249 453.535 567 465.987 564.13 483.593C561.26 501.198 568.856 517.291 581.095 519.536C593.334 521.781 605.583 509.329 608.453 491.723Z" fill="white"/>
<path opacity="0.5" d="M684.897 466.744C690.909 455.214 683.835 438.856 669.097 430.208C654.359 421.56 637.537 423.896 631.525 435.426C625.513 446.956 632.586 463.314 647.325 471.962C662.063 480.61 678.884 478.274 684.897 466.744Z" fill="white"/>
<path d="M642.835 679.495H604.269L597.879 548.599H649.226L642.835 679.495Z" fill="#292A2E"/>
<path opacity="0.3" d="M642.835 679.495H604.269L597.879 548.599H649.226L642.835 679.495Z" fill="white"/>
<path d="M685.558 543.578C685.498 543.579 685.439 543.564 685.386 543.537C685.332 543.509 685.284 543.469 685.247 543.42L647.391 492.687C647.326 492.599 647.296 492.488 647.308 492.377C647.32 492.267 647.373 492.166 647.455 492.097C647.538 492.027 647.643 491.996 647.747 492.009C647.851 492.021 647.947 492.078 648.012 492.165L685.868 542.897C685.914 542.959 685.943 543.033 685.951 543.112C685.96 543.19 685.947 543.27 685.915 543.341C685.882 543.412 685.832 543.472 685.769 543.514C685.706 543.556 685.633 543.578 685.558 543.578Z" fill="white"/>
<path d="M682.379 470.809C682.295 470.808 682.214 470.779 682.147 470.725L633.704 433.206C633.662 433.173 633.626 433.132 633.599 433.085C633.572 433.038 633.554 432.985 633.546 432.931C633.538 432.876 633.54 432.821 633.553 432.767C633.565 432.713 633.587 432.663 633.618 432.618C633.648 432.574 633.687 432.536 633.731 432.507C633.776 432.479 633.825 432.459 633.877 432.451C633.928 432.442 633.981 432.445 634.031 432.458C634.082 432.471 634.129 432.494 634.171 432.527L682.613 470.049C682.679 470.102 682.728 470.176 682.753 470.259C682.778 470.343 682.777 470.433 682.752 470.516C682.726 470.6 682.676 470.673 682.609 470.725C682.543 470.776 682.462 470.805 682.379 470.806V470.809Z" fill="white"/>
<path d="M579.126 518.989C579.092 518.989 579.057 518.984 579.024 518.975C578.923 518.946 578.836 518.875 578.784 518.779C578.731 518.683 578.717 518.568 578.744 518.46L594.165 457.17C594.178 457.116 594.2 457.065 594.232 457.021C594.263 456.976 594.303 456.938 594.348 456.91C594.393 456.882 594.443 456.863 594.496 456.856C594.548 456.848 594.601 456.852 594.651 456.866C594.702 456.881 594.75 456.905 594.791 456.94C594.833 456.974 594.868 457.016 594.894 457.065C594.92 457.113 594.936 457.167 594.942 457.222C594.949 457.277 594.944 457.334 594.93 457.387L579.51 518.677C579.487 518.767 579.437 518.846 579.368 518.902C579.299 518.958 579.214 518.989 579.126 518.989Z" fill="white"/>
</g>
<defs>
<clipPath id="clip0_1711_623">
<rect width="692" height="724" fill="white" transform="translate(0.5 0.5)"/>
</clipPath>
</defs>
</svg>
