<svg width="222" height="147" viewBox="0 0 222 147" fill="none" xmlns="http://www.w3.org/2000/svg">
<path d="M32.5 48.5L34.1739 51.4293C34.3887 51.8053 34.6825 52.1303 35.0349 52.3821L38 54.5L43.5 58.5" stroke="white" stroke-width="5"/>
<path d="M32.5 49V46.5C32.5 45.8509 32.7105 45.2193 33.1 44.7L35.3377 41.7164C35.4457 41.5724 35.5405 41.419 35.621 41.258L37.9012 36.6977C37.967 36.5661 38.0424 36.4395 38.1267 36.3189L41.5 31.5L45 26L49 20.5L52.5 15L56 10.5L59.3492 7.15076C59.4496 7.05038 59.5427 6.943 59.6279 6.82944L61.6 4.2C62.1666 3.44458 63.0557 3 64 3H65.5H68.9139C69.6157 3 70.2953 3.24605 70.8344 3.69534L73 5.5L78.5 9L85 13L91.5 17.5L98.5 22.5L106 29L116 36.5L123 41.5L129 45.5L136 50.5L143.5 55.5L150 60.5L156.113 64.2621C156.37 64.4198 156.601 64.6151 156.799 64.8416L162.758 71.6517C163.236 72.1986 163.5 72.9005 163.5 73.6272V74.25M213 144L197.5 143.5L180 142.5L162 141L137 139L122 137.5L105 135.5L95.5 134L89.5 133M213 144V143.5V140V134.5L212.5 127V119V114M213 144L218.204 138.362C218.716 137.808 219 137.081 219 136.327V133V128.5V123.5V116.5V110.5V102.5M89.5 133V134.671C89.5 136.26 88.2619 137.573 86.6762 137.666L81 138H78L73.5 138.5H69L65 139M89.5 133V129.748C89.5 129.583 89.5137 129.418 89.5408 129.255L90.4592 123.745C90.4863 123.582 90.5 123.417 90.5 123.252V116.5V110V98.5M11.5 96.5L12.9124 97.9124C13.2969 98.2969 13.7786 98.5697 14.3061 98.7015L17.5 99.5L21.5 101L24.5 102L29 104L35.5 106L40.5 108L46 110L47.8024 110.801C49.2483 111.444 50.9332 110.7 51.4335 109.199V109.199C51.4778 109.067 51.5116 108.931 51.5346 108.793L51.9592 106.245C51.9863 106.082 52 105.917 52 105.752V102.75M11.5 96.5V94.5V90.5V85.5V80V79.3079C11.5 77.5053 13.3431 76.2899 15 77V77L20.2613 78.9132C20.4202 78.971 20.5836 79.0152 20.7499 79.0454L25.7029 79.946C25.9005 79.9819 26.0939 80.0376 26.2804 80.1122L31 82L36 83.5L40 84.5L44.5 85.5L49.3211 87.107C50.0759 87.3586 50.6999 87.8998 51.0557 88.6115L51.6833 89.8666C51.8916 90.2831 52 90.7425 52 91.2082V94.5V99.5V102.75M11.5 96.5L16.2055 94.1473C16.4012 94.0494 16.6071 93.9732 16.8195 93.9201L20.5 93M20.5 80V83.5V87.5V90.5V93M20.5 93L23.1513 94.0252M23 94L23.1513 94.0252M52 102.75L50.8303 102.165C50.6109 102.055 50.3789 101.973 50.1395 101.92L46.3056 101.068C46.1024 101.023 45.9045 100.957 45.715 100.87L40.8915 98.6779C40.6318 98.5599 40.3567 98.4795 40.0743 98.4392L37.2678 98.0383C37.0896 98.0128 36.9141 97.9714 36.7434 97.9145L32.5 96.5L30.2379 96.0476C30.0796 96.0159 29.924 95.9715 29.7729 95.9148L26.2728 94.6023C26.0914 94.5343 25.9038 94.484 25.7126 94.4521L23.1513 94.0252M65.5 5.5V5.5C65.5 6.42756 65.997 7.28401 66.8024 7.74421L68.7288 8.84502C68.9091 8.94806 69.0782 9.06955 69.2335 9.20752L73.2589 12.7857C73.4192 12.9281 73.5943 13.053 73.7812 13.1582L81.204 17.3335C81.4007 17.4442 81.5843 17.5766 81.7513 17.7284L86.7802 22.3002C86.9264 22.4331 87.0853 22.5512 87.2547 22.6528L94.5 27L102.5 33L111 39.5L119 44.5L125.5 49L131.7 52.8154C131.899 52.938 132.084 53.0836 132.249 53.2491L136.809 57.8087C136.936 57.936 137.074 58.0515 137.222 58.154L143.5 62.5L151.5 67L158 71L163.5 74.25M163.5 74.25V75.456C163.5 75.8157 163.435 76.1725 163.309 76.5094L162.139 79.6306C162.047 79.8758 161.923 80.1079 161.771 80.321L159.5 83.5L155 90L152.5 94M90.5 98.5V96.5V89.5V86.5M90.5 98.5L94.5 96.5L98 94.5L101 92.8333M152.5 94H154L159.5 94.5L169.5 95.5L178.5 96L190 97L200 98L209 98.5L216.851 99.2137C218.459 99.3599 219.511 100.968 219 102.5V102.5M152.5 94L146 93L137 92H129L121 91L114 90L108.135 89.1621C107.404 89.0577 106.66 89.2264 106.046 89.6358L102.5 92L101 92.8333M91.5 101.5L96.7943 102.944C96.9313 102.981 97.0707 103.009 97.2116 103.026L105 104L111.5 104.5L118 105.5L125 106.5L134.5 107.5L143.5 108L154 109.5L162 110L171 110.5L181.5 112L192 113L204 114H212.5M212.5 114L214.395 110.211C214.465 110.07 214.546 109.936 214.637 109.808L216.79 106.794C216.929 106.599 217.045 106.387 217.134 106.164L217.884 104.29C217.961 104.097 218.058 103.913 218.173 103.74L219 102.5M6 56L9 57L12 58L15.5 59L20.5 60.5L25.5 62L33 64L39.5 65L48 67L56 69L62.1515 70.8928C62.383 70.964 62.605 71.063 62.8127 71.1876L65 72.5M65 72.5H70.5H78L85 72H89.1M65 72.5L65.9417 77.2087C65.9805 77.4024 66 77.5995 66 77.7971V83.5V89.5V96.5V102L65 110V115.5V122.5V128V134V139M89.1 72L88.098 70.7475C87.709 70.2612 87.1783 69.9081 86.5796 69.737L84 69L77 67L68 64.5L60 62.5L53.5 61.5L46 60L39 58L32.7513 57.0387C32.5841 57.0129 32.4193 56.9731 32.2588 56.9196L28.3173 55.6058C28.1064 55.5355 27.8884 55.4888 27.6672 55.4667L23 55H17.5H10H7.31227C7.10544 55 6.89997 55.0333 6.70376 55.0987V55.0987C5.97349 55.3422 5.45855 55.9974 5.39463 56.7645L5 61.5L4 74.5L3.5 85.5L3 99.5V106V109.292C3 109.758 3.10844 110.217 3.31672 110.633L3.68328 111.367C3.89156 111.783 4.19397 112.145 4.56656 112.425L5.78359 113.338C5.92757 113.446 6.08098 113.54 6.24195 113.621L14 117.5L26.5 123.5L36 128L46 133L51.5 135.5L56 137L62.5 138.5L63.5381 138.846C63.844 138.948 64.1644 139 64.4868 139H65M89.1 72V72C89.3625 72.3282 89.5394 72.7165 89.6145 73.13L90.4516 77.7339C90.4838 77.9109 90.5 78.0905 90.5 78.2705V83.5V86.5M90.5 86.5L94.5 89L97 90.5L101 92.8333" stroke="white" stroke-width="5"/>
<path d="M61.5 48.5L64 45L68 39L72 33L73.5 30.5M61.5 48.5L68 53L77 59L84 64L90 68.5L97 73.5L106.5 80L116.5 86.5L122.941 90.6408C123.309 90.8774 123.725 91.0306 124.158 91.0898L131 92.0227M61.5 48.5L69.0687 47.1643C69.6749 47.0574 70.2335 46.7665 70.6687 46.3313L71 46M73.5 30.5L87.5 41L101.5 51.5L114.5 61L129.5 71.5L139.382 78.5M73.5 30.5L76.5 38M71 46L72 45L75.591 40.5113C75.8605 40.1744 76.0542 39.7833 76.1588 39.3648L76.5 38M71 46L77 50L84 55L92 61L103 68.5L114.5 76.5L126 84L130.5 87.5M130.5 87.5L131 92.0227M130.5 87.5L133.5 83L135 80.5M131 92.0227L132.514 92.2291C133.716 92.3931 134.899 91.8165 135.51 90.7682L138 86.5L140.27 82.2849C140.972 80.9802 140.592 79.3565 139.382 78.5V78.5M135 80.5L139.382 78.5M135 80.5L124.5 71.5L116.5 66L105 57.5L87.5 45L76.5 38" stroke="white" stroke-width="5"/>
<path d="M146.175 130.111L146.202 129.862C146.263 129.313 146.757 128.918 147.306 128.978L147.803 129.033C148.077 129.063 148.275 129.31 148.245 129.585L148.081 131.076L147.916 132.567L147.807 133.561L147.588 135.548L147.533 136.045C147.503 136.32 147.256 136.518 146.981 136.488C146.432 136.427 146.036 135.933 146.097 135.384L146.206 134.39L146.316 133.396L146.426 132.402L146.535 131.408L146.617 130.663C146.632 130.525 146.533 130.402 146.396 130.387C146.259 130.372 146.16 130.248 146.175 130.111Z" stroke="white" stroke-width="0.4"/>
<path d="M158.843 131.083L158.202 131.001C158.008 130.976 157.831 131.113 157.806 131.306C157.794 131.399 157.819 131.493 157.877 131.567L158.003 131.731C158.142 131.91 158.203 132.137 158.174 132.362L158.156 132.507C158.114 132.833 158.148 133.165 158.257 133.475L158.296 133.586C158.404 133.897 158.439 134.228 158.397 134.554L158.372 134.744C158.346 134.945 158.368 135.15 158.435 135.342L158.537 135.634C158.638 135.923 158.893 136.131 159.197 136.17L159.693 136.233L159.883 136.258C160.052 136.279 160.171 136.434 160.15 136.604C160.135 136.72 160.056 136.817 159.945 136.856L159.362 137.06C159.17 137.127 158.965 137.148 158.763 137.122L158.574 137.098L158.078 137.034C157.804 136.999 157.554 137.192 157.518 137.466L157.455 137.962C157.419 138.236 157.613 138.487 157.887 138.522L158.879 138.649C159.514 138.731 160.155 138.557 160.662 138.165L160.99 137.912C161.348 137.636 161.582 137.228 161.64 136.779L161.671 136.532C161.717 136.177 161.845 135.838 162.044 135.54L162.364 135.064L162.592 134.724C162.852 134.337 163.018 133.896 163.078 133.434L163.115 133.144L163.16 132.79C163.172 132.697 163.206 132.608 163.258 132.53L163.523 132.135C163.651 131.945 163.534 131.686 163.306 131.656L162.314 131.529C162.04 131.494 161.79 131.687 161.754 131.961L161.698 132.399C161.651 132.763 161.52 133.112 161.315 133.417L161.206 133.58C161.073 133.778 160.988 134.004 160.957 134.241L160.889 134.77C160.881 134.836 160.847 134.896 160.794 134.936L160.677 135.027C160.544 135.13 160.353 135.02 160.375 134.853C160.378 134.824 160.375 134.795 160.366 134.767L160.177 134.226C160.068 133.915 160.034 133.584 160.076 133.258L160.094 133.113C160.123 132.888 160.062 132.661 159.923 132.482C159.785 132.303 159.723 132.076 159.752 131.852L159.771 131.706C159.806 131.432 159.612 131.182 159.339 131.147L158.843 131.083Z" stroke="white" stroke-width="0.4"/>
<path d="M172.895 136.956L172.395 136.956C172.119 136.956 171.895 137.179 171.895 137.456C171.895 137.776 172.022 138.083 172.249 138.309L172.395 138.456C172.715 138.776 173.149 138.956 173.602 138.956L173.895 138.956L174.895 138.956L175.086 138.956C175.289 138.956 175.49 138.908 175.671 138.817L176.127 138.589C176.291 138.507 176.395 138.34 176.395 138.156C176.395 138.028 176.446 137.904 176.537 137.814L176.645 137.706C176.805 137.545 176.895 137.328 176.895 137.102L176.895 136.956L176.895 136.809C176.895 136.583 176.805 136.366 176.645 136.206C176.485 136.045 176.268 135.956 176.041 135.956L175.895 135.956L175.749 135.956C175.522 135.956 175.305 135.866 175.145 135.706C174.985 135.545 174.768 135.456 174.541 135.456L174.395 135.456L174.102 135.456C173.97 135.456 173.842 135.403 173.749 135.309C173.553 135.114 173.553 134.797 173.749 134.602C173.842 134.508 173.97 134.456 174.102 134.456L174.395 134.456L174.541 134.456C174.768 134.456 174.985 134.545 175.145 134.706C175.305 134.866 175.522 134.956 175.749 134.956L175.895 134.956L176.395 134.956L176.541 134.956C176.737 134.956 176.895 134.797 176.895 134.602C176.895 134.508 176.858 134.418 176.791 134.352L176.395 133.956L175.895 133.456L175.749 133.309C175.522 133.083 175.215 132.956 174.895 132.956L174.558 132.956C174.122 132.956 173.692 133.057 173.302 133.252C173.033 133.387 172.786 133.564 172.573 133.778L172.395 133.956L172.249 134.102C172.022 134.328 171.895 134.635 171.895 134.956L171.895 135.102C171.895 135.328 171.985 135.545 172.145 135.706C172.305 135.866 172.522 135.956 172.749 135.956L172.895 135.956L173.041 135.956C173.268 135.956 173.485 136.045 173.645 136.206C173.805 136.366 174.022 136.456 174.249 136.456L174.395 136.456L174.688 136.456C174.821 136.456 174.948 136.508 175.041 136.602C175.237 136.797 175.237 137.114 175.041 137.309C174.948 137.403 174.821 137.456 174.688 137.456L174.395 137.456L173.645 137.456C173.507 137.456 173.395 137.344 173.395 137.206C173.395 137.067 173.283 136.956 173.145 136.956L172.895 136.956Z" stroke="white" stroke-width="0.4"/>
<path d="M125.395 130.956L125.445 130.805M125.445 130.805L125.859 129.565C125.883 129.492 125.912 129.421 125.947 129.352L126.31 128.626C126.362 128.522 126.469 128.456 126.586 128.456V128.456C126.757 128.456 126.895 128.594 126.895 128.765L126.895 129.163C126.895 129.35 126.97 129.53 127.102 129.663L127.188 129.748C127.321 129.881 127.395 130.061 127.395 130.248V130.248C127.395 130.639 127.078 130.956 126.688 130.956L126.468 130.956C126.419 130.956 126.371 130.952 126.323 130.944L125.445 130.805ZM123.395 132.456L123.211 133.007C123.056 133.474 123.403 133.956 123.895 133.956V133.956L124.041 133.956C124.237 133.956 124.395 133.797 124.395 133.602V133.602C124.395 133.508 124.432 133.418 124.499 133.352L124.791 133.059C124.858 132.993 124.895 132.903 124.895 132.809V132.809C124.895 132.614 125.053 132.456 125.249 132.456L125.395 132.456L126.395 132.456L127.395 132.456V132.456C127.671 132.456 127.895 132.679 127.895 132.956V132.956L127.895 133.102C127.895 133.328 127.985 133.545 128.145 133.706V133.706C128.305 133.866 128.522 133.956 128.749 133.956L128.895 133.956L129.395 133.956L129.895 133.956V133.956C130.125 133.956 130.274 133.714 130.171 133.508L129.959 133.083C129.917 132.999 129.895 132.907 129.895 132.813L129.895 132.456C129.895 132.127 129.818 131.802 129.671 131.508L129.395 130.956L129.119 130.403C128.972 130.109 128.895 129.784 128.895 129.456V129.456C128.895 129.127 128.818 128.802 128.671 128.508L128.395 127.956L128.342 127.85C128.068 127.302 127.508 126.956 126.895 126.956V126.956L125.895 126.956V126.956C125.589 126.956 125.308 127.129 125.171 127.403L124.947 127.852C124.912 127.921 124.883 127.992 124.859 128.065L124.395 129.456L123.895 130.956L123.395 132.456Z" stroke="white" stroke-width="0.4"/>
<path d="M131.895 129.956L131.895 129.456C131.895 129.179 132.119 128.956 132.395 128.956L132.895 128.956C133.171 128.956 133.395 129.179 133.395 129.456L133.395 130.456C133.395 130.135 133.522 129.828 133.749 129.602L133.895 129.456L134.041 129.309C134.268 129.083 134.575 128.956 134.895 128.956C135.224 128.956 135.548 129.032 135.842 129.179L136.039 129.277C136.275 129.395 136.49 129.551 136.677 129.737L136.688 129.748C137.141 130.201 137.395 130.815 137.395 131.456L137.395 132.456L137.395 133.456L137.395 133.646C137.395 134.142 137.115 134.596 136.671 134.817L136.566 134.87C136.454 134.926 136.33 134.956 136.204 134.956C135.757 134.956 135.395 134.593 135.395 134.146L135.395 133.956L135.395 132.956L135.395 131.956L135.395 131.574C135.395 131.195 135.181 130.849 134.842 130.679C134.561 130.538 134.229 130.538 133.948 130.679C133.609 130.849 133.395 131.195 133.395 131.574L133.395 131.956L133.395 132.956L133.395 133.956C133.395 134.232 133.171 134.456 132.895 134.456L132.395 134.456C132.119 134.456 131.895 134.232 131.895 133.956L131.895 133.456L131.895 132.456L131.895 131.456L131.895 129.956Z" stroke="white" stroke-width="0.4"/>
<path d="M169.059 135.101L168.793 135.081C168.554 135.064 168.375 134.857 168.392 134.619C168.404 134.455 168.322 134.299 168.181 134.216L167.924 134.063C167.802 133.99 167.665 133.947 167.523 133.937L167.395 133.928C167.168 133.912 166.943 133.986 166.771 134.135C166.702 134.195 166.642 134.267 166.595 134.346L166.503 134.5C166.348 134.763 166.255 135.058 166.233 135.362L166.191 135.947L166.181 136.08C166.156 136.426 166.329 136.757 166.628 136.934C166.75 137.006 166.888 137.049 167.029 137.06L167.067 137.062C167.352 137.083 167.633 136.99 167.849 136.803L167.886 136.771L168.26 136.447C168.5 136.239 168.812 136.136 169.128 136.158L169.333 136.173L170.031 136.223C170.224 136.237 170.369 136.405 170.355 136.598C170.338 136.827 170.269 137.05 170.151 137.248L170.093 137.346C169.985 137.527 169.849 137.69 169.689 137.828L169.339 138.132C169.234 138.222 169.121 138.302 169.001 138.37L168.637 138.577C168.277 138.781 167.864 138.874 167.45 138.845L167.037 138.815L166.624 138.785C166.21 138.755 165.815 138.604 165.487 138.349L165.325 138.223C165.105 138.053 164.922 137.841 164.785 137.6L164.509 137.113C164.417 136.95 164.347 136.776 164.301 136.595L164.181 136.126C164.125 135.907 164.105 135.681 164.121 135.456L164.147 135.088C164.164 134.863 164.216 134.642 164.303 134.434L164.539 133.864C164.577 133.772 164.622 133.683 164.673 133.598L164.711 133.533C164.898 133.218 165.163 132.958 165.481 132.778L166.094 132.43L166.359 132.321C166.66 132.196 166.986 132.144 167.311 132.167L167.864 132.207L168.044 132.22C168.599 132.26 169.116 132.519 169.481 132.94L169.559 133.031L169.999 133.539C170.137 133.698 170.248 133.879 170.329 134.074L170.455 134.38C170.488 134.461 170.503 134.549 170.496 134.636C170.474 134.948 170.203 135.183 169.891 135.161L169.757 135.151L169.059 135.101Z" stroke="white" stroke-width="0.4"/>
<path d="M150.294 129.332L150.397 129.224C150.507 129.109 150.663 129.05 150.821 129.064L151.09 129.087C151.235 129.1 151.367 129.178 151.449 129.3C151.51 129.391 151.538 129.5 151.528 129.609L151.508 129.842C151.495 129.988 151.455 130.13 151.389 130.261L151.277 130.482C151.217 130.6 151.121 130.696 151.004 130.756C150.792 130.864 150.538 130.842 150.348 130.699L150.287 130.653C150.22 130.603 150.161 130.54 150.114 130.471C150.017 130.325 149.971 130.149 149.986 129.975L149.99 129.933C150.007 129.731 150.093 129.542 150.233 129.396L150.294 129.332Z" stroke="white" stroke-width="0.4"/>
<path d="M149.328 131.757L149.36 131.384C149.372 131.246 149.494 131.144 149.632 131.156L149.882 131.178L150.381 131.221L150.631 131.243L151.131 131.286L151.319 131.303C151.491 131.318 151.618 131.469 151.603 131.641L151.549 132.264L151.522 132.575L151.468 133.198L151.387 134.131L151.306 135.065L151.252 135.688L151.197 136.31L151.165 136.683C151.153 136.821 151.031 136.923 150.893 136.911L150.394 136.868L149.894 136.824C149.756 136.812 149.654 136.691 149.666 136.553L149.699 136.18L149.753 135.558L149.807 134.935L149.834 134.624L149.888 134.001L149.942 133.379L149.975 133.006C149.987 132.868 149.884 132.746 149.746 132.734L149.497 132.713C149.359 132.701 149.257 132.579 149.269 132.441L149.274 132.38L149.328 131.757Z" stroke="white" stroke-width="0.4"/>
<path d="M153.651 129.754L153.685 129.405C153.703 129.213 153.874 129.072 154.067 129.091L154.415 129.125L154.764 129.159L155.112 129.192C155.304 129.211 155.445 129.382 155.426 129.575L155.393 129.923L155.359 130.271L155.325 130.62C155.306 130.812 155.447 130.983 155.639 131.002L156.336 131.07L156.684 131.103C156.877 131.122 157.018 131.293 156.999 131.486L156.931 132.182C156.913 132.375 156.742 132.515 156.549 132.497L156.201 132.463L155.852 132.429L155.504 132.395C155.312 132.377 155.141 132.517 155.122 132.71L155.054 133.407L154.953 134.452L154.909 134.902C154.894 135.06 154.942 135.217 155.042 135.339C155.143 135.462 155.288 135.539 155.446 135.554L155.896 135.598L155.998 135.608C156.156 135.623 156.301 135.701 156.402 135.823C156.503 135.945 156.551 136.103 156.535 136.261L156.491 136.711L156.458 137.059C156.439 137.252 156.268 137.393 156.075 137.374L155.727 137.34L155.03 137.272L154.795 137.249C154.492 137.22 154.199 137.12 153.941 136.958C153.762 136.846 153.602 136.705 153.468 136.542L153.356 136.406C153.155 136.162 153.059 135.847 153.09 135.532L153.109 135.328L153.177 134.631L153.245 133.934L153.312 133.237L153.356 132.787C153.371 132.629 153.323 132.472 153.223 132.35C153.122 132.227 152.977 132.15 152.819 132.134L152.717 132.125C152.525 132.106 152.384 131.935 152.403 131.742L152.436 131.394L152.47 131.046C152.489 130.853 152.66 130.712 152.853 130.731L153.201 130.765C153.393 130.784 153.564 130.643 153.583 130.45L153.651 129.754Z" stroke="white" stroke-width="0.42"/>
<path d="M141.355 129.163L140.755 129.086C140.553 129.06 140.368 129.203 140.342 129.405L140.248 130.137L140.242 130.181C140.219 130.359 140.344 130.522 140.522 130.545L140.844 130.586L141.488 130.669L141.809 130.711L142.09 130.747C142.321 130.777 142.528 130.905 142.658 131.098L142.686 131.14C142.714 131.181 142.735 131.226 142.749 131.273L142.864 131.664C142.907 131.811 142.785 131.953 142.633 131.934L142.311 131.892L141.346 131.768C141.135 131.741 140.92 131.769 140.724 131.849L140.333 132.009L139.782 132.235C139.689 132.273 139.604 132.326 139.528 132.392C139.364 132.537 139.258 132.737 139.229 132.954L139.179 133.349L139.143 133.621C139.104 133.925 139.129 134.233 139.215 134.527L139.245 134.629C139.289 134.779 139.356 134.921 139.443 135.051C139.538 135.191 139.655 135.315 139.79 135.417L139.817 135.437C140.057 135.618 140.338 135.732 140.635 135.771L140.826 135.795L141.141 135.836C141.356 135.864 141.575 135.835 141.776 135.753C142.026 135.651 142.236 135.471 142.375 135.24L142.563 134.928C142.572 134.912 142.584 134.899 142.597 134.887C142.719 134.78 142.907 134.88 142.887 135.041L142.851 135.312L142.804 135.678L142.799 135.723C142.776 135.9 142.901 136.063 143.079 136.086L143.722 136.169C143.9 136.192 144.063 136.067 144.086 135.889L144.092 135.845L144.139 135.478L144.233 134.746L144.375 133.648L144.517 132.549L144.556 132.244C144.593 131.961 144.589 131.674 144.544 131.392L144.475 130.953C144.446 130.771 144.378 130.598 144.275 130.445C144.197 130.329 144.1 130.226 143.988 130.142L143.746 129.96C143.622 129.867 143.492 129.783 143.355 129.711L143.127 129.588C142.806 129.417 142.457 129.306 142.097 129.259L141.998 129.246L141.355 129.163Z" stroke="white" stroke-width="0.4"/>
<path d="M142.491 133.032L142.511 133.035C142.678 133.057 142.796 133.209 142.774 133.377C142.769 133.419 142.755 133.459 142.733 133.495L142.526 133.838C142.409 134.032 142.263 134.207 142.093 134.357L141.981 134.455C141.766 134.645 141.448 134.657 141.219 134.484L141.117 134.408C141.05 134.357 140.991 134.295 140.944 134.225L140.844 134.076C140.777 133.978 140.749 133.858 140.764 133.74C140.779 133.622 140.837 133.514 140.926 133.435L141.157 133.232L141.282 133.122C141.437 132.986 141.643 132.923 141.848 132.949L142.491 133.032Z" stroke="white" stroke-width="0.4"/>
<path d="M131.258 112.945L131.306 112.447C131.333 112.172 131.577 111.971 131.852 111.998L132.35 112.046L132.847 112.095L133.345 112.143C133.62 112.17 133.821 112.414 133.794 112.689L133.746 113.187L133.698 113.684L133.649 114.182C133.623 114.457 133.824 114.701 134.099 114.728L135.094 114.825L135.592 114.873C135.866 114.9 136.068 115.144 136.041 115.419L135.944 116.414C135.917 116.689 135.673 116.89 135.398 116.864L134.901 116.815L134.403 116.767L133.905 116.719C133.63 116.692 133.386 116.893 133.359 117.168L133.263 118.163L133.118 119.656L133.055 120.3C133.033 120.525 133.102 120.75 133.245 120.924C133.389 121.099 133.597 121.21 133.822 121.232L134.465 121.294L134.611 121.308C134.837 121.33 135.044 121.441 135.188 121.615C135.332 121.79 135.4 122.015 135.378 122.24L135.316 122.884L135.267 123.381C135.241 123.656 134.996 123.857 134.721 123.831L134.224 123.782L133.228 123.686L132.893 123.653C132.459 123.611 132.041 123.468 131.672 123.237C131.416 123.076 131.188 122.876 130.997 122.643L130.837 122.449C130.549 122.099 130.412 121.65 130.456 121.199L130.484 120.907L130.581 119.912L130.678 118.917L130.774 117.921L130.837 117.278C130.859 117.053 130.79 116.828 130.646 116.653C130.502 116.478 130.295 116.368 130.07 116.346L129.924 116.332C129.649 116.305 129.448 116.061 129.475 115.786L129.523 115.288L129.571 114.791C129.598 114.516 129.842 114.314 130.117 114.341L130.615 114.39C130.89 114.416 131.134 114.215 131.161 113.94L131.258 112.945Z" stroke="white" stroke-width="0.8"/>
<path d="M122.838 112.65L121.846 112.522C121.572 112.486 121.322 112.68 121.286 112.953L121.158 113.945C121.123 114.219 121.316 114.47 121.59 114.505L122.086 114.569L123.078 114.697L123.574 114.761L124.061 114.824C124.384 114.866 124.677 115.034 124.876 115.291L124.935 115.368C124.976 115.422 125.009 115.482 125.031 115.545L125.201 116.033C125.276 116.25 125.097 116.47 124.869 116.441L124.373 116.377L122.886 116.185C122.56 116.143 122.228 116.177 121.918 116.285L121.334 116.489L120.466 116.791C120.342 116.834 120.225 116.898 120.121 116.978C119.863 117.177 119.695 117.47 119.653 117.792L119.59 118.28L119.547 118.615C119.491 119.047 119.537 119.486 119.68 119.898L119.714 119.994C119.791 120.215 119.903 120.422 120.046 120.608C120.189 120.793 120.361 120.954 120.555 121.085L120.64 121.142C121.002 121.385 121.415 121.541 121.847 121.596L122.182 121.64L122.714 121.708C123.016 121.747 123.323 121.715 123.611 121.615C124.012 121.475 124.357 121.209 124.594 120.857L124.828 120.509C124.845 120.484 124.865 120.463 124.888 120.445C125.082 120.295 125.359 120.455 125.328 120.697L125.285 121.032L125.221 121.528C125.186 121.802 125.379 122.052 125.653 122.088L126.645 122.216C126.919 122.251 127.169 122.058 127.205 121.784L127.269 121.288L127.397 120.296L127.589 118.808L127.781 117.321L127.846 116.812C127.888 116.492 127.877 116.168 127.815 115.851L127.685 115.189C127.632 114.918 127.517 114.664 127.349 114.445C127.232 114.294 127.092 114.163 126.934 114.057L126.422 113.712C126.304 113.633 126.181 113.563 126.053 113.501L125.26 113.117C124.969 112.977 124.658 112.885 124.339 112.843L123.83 112.778L122.838 112.65Z" stroke="white" stroke-width="0.8"/>
<path d="M124.677 117.929L124.772 117.941C124.993 117.969 125.15 118.172 125.121 118.394C125.113 118.456 125.091 118.516 125.056 118.568L124.739 119.038C124.571 119.289 124.363 119.51 124.125 119.694L123.925 119.848C123.591 120.106 123.129 120.121 122.779 119.885L122.603 119.767C122.493 119.694 122.397 119.603 122.316 119.498L122.158 119.294C122.061 119.167 122.017 119.007 122.038 118.848C122.058 118.689 122.141 118.545 122.268 118.448L122.63 118.168L122.794 118.042C123.047 117.846 123.368 117.76 123.685 117.801L124.677 117.929Z" stroke="white" stroke-width="0.8"/>
<path d="M140.381 116.125L139.389 115.997C139.115 115.961 138.865 116.155 138.829 116.428L138.701 117.42C138.666 117.694 138.859 117.945 139.133 117.98L139.629 118.044L140.621 118.172L141.117 118.236L141.605 118.299C141.927 118.341 142.22 118.509 142.419 118.766L142.478 118.843C142.519 118.897 142.552 118.957 142.574 119.02L142.744 119.508C142.819 119.725 142.64 119.945 142.412 119.916L141.917 119.852L140.429 119.66C140.103 119.618 139.771 119.652 139.461 119.76L138.877 119.964L138.009 120.266C137.885 120.309 137.768 120.373 137.664 120.453C137.406 120.652 137.238 120.945 137.197 121.267L137.134 121.755L137.09 122.09C137.035 122.522 137.08 122.961 137.224 123.373L137.257 123.469C137.334 123.69 137.446 123.897 137.589 124.083C137.732 124.268 137.904 124.429 138.099 124.56L138.183 124.617C138.545 124.86 138.958 125.016 139.39 125.071L139.725 125.115L140.257 125.183C140.559 125.222 140.867 125.19 141.154 125.09C141.556 124.95 141.901 124.684 142.138 124.332L142.371 123.984C142.388 123.959 142.408 123.938 142.432 123.92C142.625 123.77 142.903 123.93 142.871 124.172L142.828 124.507L142.764 125.003C142.729 125.277 142.922 125.527 143.196 125.563L144.188 125.691C144.462 125.726 144.712 125.533 144.748 125.259L144.812 124.763L144.94 123.771L145.132 122.283L145.324 120.796L145.389 120.287C145.431 119.967 145.42 119.643 145.358 119.326L145.228 118.664C145.175 118.393 145.06 118.139 144.892 117.92C144.775 117.769 144.635 117.638 144.477 117.532L143.965 117.187C143.847 117.108 143.724 117.037 143.596 116.976L142.803 116.592C142.513 116.452 142.202 116.36 141.882 116.318L141.373 116.253L140.381 116.125Z" stroke="white" stroke-width="0.8"/>
<path d="M142.22 121.404L142.315 121.416C142.537 121.444 142.693 121.647 142.665 121.869C142.656 121.931 142.634 121.991 142.599 122.043L142.283 122.513C142.114 122.764 141.907 122.985 141.668 123.169L141.468 123.323C141.134 123.581 140.672 123.596 140.322 123.36L140.146 123.242C140.037 123.169 139.94 123.078 139.859 122.973L139.702 122.769C139.604 122.642 139.56 122.482 139.581 122.323C139.601 122.164 139.684 122.02 139.811 121.923L140.173 121.643L140.337 121.517C140.59 121.321 140.911 121.235 141.229 121.276L142.22 121.404Z" stroke="white" stroke-width="0.8"/>
<path d="M108.315 117.424L108.189 118.416C108.085 119.238 108.666 119.989 109.488 120.093L110.48 120.219L111.968 120.408L112.973 120.536C113.293 120.577 113.617 120.566 113.934 120.503L114.312 120.428C114.769 120.338 115.199 120.142 115.567 119.857L116.125 119.424L116.858 118.857C117.113 118.659 117.335 118.422 117.514 118.154L117.865 117.629L118.093 117.289C118.352 116.902 118.518 116.46 118.577 115.998L118.613 115.708L118.739 114.716L118.776 114.427C118.835 113.965 118.785 113.495 118.631 113.056L118.495 112.669L118.287 112.074C118.18 111.769 118.025 111.484 117.827 111.229L117.558 110.881C117.36 110.626 117.123 110.405 116.855 110.225L116.508 109.993C116.39 109.914 116.266 109.843 116.138 109.782L114.905 109.189L113.919 108.715C113.628 108.575 113.317 108.483 112.997 108.443L111.992 108.315L110.504 108.126C109.956 108.056 109.456 108.444 109.386 108.992L109.134 110.976L108.882 112.96L108.63 114.944L108.315 117.424Z" stroke="white" stroke-width="0.8"/>
<path d="M187.332 118.745V117.745C187.332 117.469 187.556 117.245 187.832 117.245H188.832C189.384 117.245 189.832 117.692 189.832 118.245V118.745V119.745V121.745V122.745V123.318C189.832 123.744 190.28 124.021 190.661 123.83C190.772 123.775 190.862 123.685 190.917 123.574L191.332 122.745L191.614 122.18C191.759 121.892 191.948 121.629 192.176 121.401L192.832 120.745C193.152 120.425 193.586 120.245 194.039 120.245H194.332H195.332C195.701 120.245 195.886 120.691 195.625 120.952L195.371 121.205C195.345 121.232 195.322 121.26 195.301 121.291L194.481 122.522C194.382 122.67 194.269 122.808 194.143 122.934L193.977 123.099C193.881 123.196 193.801 123.307 193.74 123.429L193.61 123.689C193.444 124.021 193.509 124.422 193.772 124.684C193.812 124.725 193.848 124.769 193.879 124.816L194.832 126.245L195.114 126.809C195.259 127.098 195.448 127.361 195.676 127.589L196.26 128.173C196.308 128.22 196.347 128.276 196.378 128.336L196.608 128.798C196.711 129.003 196.562 129.245 196.332 129.245H194.832H194.539C194.086 129.245 193.652 129.065 193.332 128.745L192.676 128.089C192.448 127.861 192.259 127.598 192.114 127.309L191.99 127.061C191.885 126.852 191.748 126.66 191.582 126.495C191.416 126.329 191.279 126.138 191.174 125.929L190.876 125.333C190.847 125.275 190.808 125.221 190.762 125.175L190.686 125.098C190.49 124.903 190.174 124.903 189.978 125.098C189.885 125.192 189.832 125.319 189.832 125.452V126.245V128.245C189.832 128.797 189.384 129.245 188.832 129.245H188.186C187.959 129.245 187.742 129.155 187.582 128.995C187.422 128.835 187.332 128.618 187.332 128.391V126.745V124.745V123.245V121.245V119.745V118.745Z" stroke="white" stroke-width="0.8"/>
<path d="M183.379 123.426L182.998 123.399C182.658 123.374 182.402 123.079 182.426 122.738C182.443 122.505 182.327 122.282 182.125 122.162L181.758 121.944C181.583 121.841 181.387 121.779 181.184 121.764L181.002 121.751C180.677 121.728 180.357 121.834 180.111 122.047C180.011 122.133 179.926 122.235 179.859 122.349L179.728 122.569C179.505 122.944 179.373 123.365 179.342 123.8L179.282 124.635L179.268 124.825C179.232 125.32 179.479 125.792 179.906 126.045C180.08 126.149 180.277 126.211 180.48 126.225L180.533 126.229C180.94 126.258 181.342 126.125 181.65 125.858L181.703 125.812L182.238 125.349C182.58 125.053 183.026 124.905 183.478 124.937L183.77 124.959L184.768 125.03C185.043 125.05 185.25 125.29 185.23 125.565C185.207 125.893 185.107 126.211 184.939 126.494L184.856 126.634C184.702 126.893 184.507 127.126 184.279 127.323L183.779 127.756C183.63 127.886 183.468 128 183.296 128.097L182.776 128.392C182.261 128.684 181.671 128.818 181.08 128.775L180.49 128.732L179.9 128.69C179.309 128.647 178.744 128.431 178.277 128.068L178.044 127.887C177.731 127.644 177.469 127.342 177.274 126.997L176.879 126.301C176.747 126.069 176.647 125.82 176.581 125.562L176.41 124.891C176.33 124.579 176.301 124.255 176.325 123.934L176.362 123.409C176.386 123.087 176.46 122.771 176.584 122.474L176.922 121.66C176.977 121.529 177.04 121.402 177.113 121.28L177.168 121.187C177.434 120.738 177.813 120.366 178.268 120.108L179.143 119.612L179.521 119.456C179.952 119.278 180.418 119.203 180.882 119.236L181.672 119.293L181.929 119.312C182.722 119.369 183.461 119.739 183.981 120.34L184.094 120.47L184.721 121.195C184.919 121.423 185.078 121.682 185.193 121.961L185.373 122.396C185.421 122.512 185.441 122.638 185.432 122.763C185.4 123.209 185.013 123.544 184.567 123.512L184.377 123.498L183.379 123.426Z" stroke="white" stroke-width="0.8"/>
<path d="M172.333 115.701L172.491 115.568C172.736 115.362 173.053 115.262 173.372 115.29L174.016 115.346C174.242 115.365 174.45 115.474 174.596 115.647C174.741 115.821 174.812 116.045 174.793 116.27L174.768 116.552C174.747 116.79 174.672 117.02 174.547 117.224L174.386 117.486C174.234 117.733 174.006 117.925 173.736 118.032C173.343 118.187 172.901 118.149 172.541 117.928L172.329 117.798C172.217 117.729 172.116 117.642 172.031 117.541L172.026 117.535C171.82 117.29 171.72 116.973 171.748 116.654C171.776 116.335 171.929 116.041 172.174 115.835L172.333 115.701Z" stroke="white" stroke-width="0.8"/>
<path d="M170.492 119.556L170.535 119.058C170.559 118.783 170.802 118.58 171.077 118.604L171.575 118.647L172.571 118.733L173.069 118.777L174.065 118.863L174.563 118.907C174.839 118.931 175.042 119.173 175.018 119.448L174.932 120.444L174.888 120.942L174.802 121.939L174.672 123.433L174.542 124.927L174.455 125.924L174.369 126.92L174.325 127.418C174.302 127.693 174.059 127.897 173.784 127.873L172.788 127.786L171.792 127.7C171.516 127.676 171.313 127.433 171.337 127.158L171.38 126.66L171.467 125.664L171.553 124.668L171.597 124.169L171.683 123.173L171.77 122.177L171.813 121.679C171.837 121.404 171.633 121.161 171.358 121.137L170.86 121.094C170.585 121.07 170.381 120.828 170.405 120.553L170.492 119.556Z" stroke="white" stroke-width="0.8"/>
<path d="M152.537 116.496L152.622 114.998C152.653 114.447 153.125 114.025 153.677 114.057L154.675 114.113L156.173 114.198L157.67 114.283L158.183 114.312C158.505 114.33 158.821 114.4 159.121 114.519L159.48 114.662C159.913 114.834 160.299 115.104 160.61 115.451L160.777 115.638C160.977 115.863 161.141 116.119 161.26 116.396C161.433 116.796 161.51 117.231 161.485 117.666L161.475 117.841C161.451 118.276 161.325 118.699 161.108 119.077L160.926 119.395C160.897 119.446 160.86 119.493 160.816 119.532L160.145 120.13C160.028 120.235 160.096 120.43 160.253 120.438C160.3 120.441 160.344 120.462 160.375 120.497L160.797 120.97C161.099 121.308 161.254 121.751 161.228 122.204L161.212 122.496L161.155 123.494L161.128 123.977C161.091 124.627 160.798 125.235 160.312 125.669C160.116 125.844 159.892 125.987 159.65 126.091L159.597 126.114C159.197 126.287 158.762 126.364 158.327 126.339L157.99 126.32L156.493 126.235L154.496 126.122L152.998 126.037C152.447 126.006 152.025 125.534 152.056 124.982L152.141 123.485L152.254 121.488L152.339 119.99L152.424 118.493L152.48 117.494L152.537 116.496Z" stroke="white" stroke-width="0.8"/>
<path d="M163.554 119.556L163.59 119.057C163.629 118.506 164.108 118.092 164.659 118.131V118.131V118.131C165.209 118.171 165.624 118.649 165.584 119.2V119.2L165.513 120.198L165.405 121.694L165.406 121.681C165.429 121.359 165.504 121.043 165.628 120.745L165.776 120.389C165.954 119.959 166.231 119.576 166.583 119.271L166.772 119.107C167 118.909 167.258 118.75 167.537 118.635L167.973 118.455C168.089 118.407 168.215 118.386 168.34 118.395V118.395C168.786 118.427 169.121 118.814 169.089 119.26L169.075 119.451L169.055 119.736C169.007 120.405 168.426 120.908 167.758 120.86V120.86C167.57 120.846 167.381 120.877 167.207 120.949L167.044 121.016C166.651 121.179 166.322 121.464 166.105 121.829V121.829C165.949 122.092 165.857 122.386 165.835 122.691L165.761 123.724L165.689 124.722L165.582 126.218L165.546 126.717C165.526 126.992 165.287 127.199 165.012 127.18V127.18L164.014 127.108L163.516 127.072C163.24 127.052 163.033 126.813 163.053 126.538V126.538L163.16 125.041L163.232 124.044L163.375 122.049L163.482 120.553L163.554 119.556Z" stroke="white" stroke-width="0.8"/>
<path d="M153.849 115.037C153.849 115.729 153.78 116.409 153.711 117.096C153.683 117.373 153.606 117.629 153.559 117.9C153.42 118.687 153.456 119.467 153.445 120.263C153.442 120.432 153.394 120.597 153.385 120.768C153.374 121.006 153.335 121.245 153.307 121.482C153.274 121.759 153.305 122.02 153.259 122.292C153.221 122.511 153.153 122.729 153.127 122.949C153.09 123.267 153.069 123.567 153.069 123.888C153.069 124.029 153.034 124.214 153.105 124.333C153.162 124.431 153.371 124.535 153.474 124.564C153.601 124.601 153.683 124.68 153.822 124.68C154.031 124.68 154.24 124.68 154.449 124.68C154.731 124.68 154.949 124.781 155.22 124.823C155.376 124.847 155.524 124.882 155.682 124.882C155.742 124.882 155.932 124.92 155.957 124.969" stroke="white" stroke-width="2" stroke-linecap="round"/>
<path d="M153.704 125.084C153.953 125.102 154.174 125.229 154.426 125.229" stroke="white" stroke-width="2" stroke-linecap="round"/>
<path d="M156.794 125.286C157.268 125.286 157.816 125.364 158.279 125.251C158.615 125.169 158.877 125.162 159.091 124.852C159.412 124.384 159.623 123.913 159.623 123.337C159.623 122.89 159.516 122.469 159.341 122.059C159.232 121.805 158.989 121.392 159.039 121.106C159.079 120.886 159.043 120.63 159.046 120.407C159.049 120.166 159.147 119.928 159.248 119.712C159.324 119.549 159.336 119.352 159.435 119.198C159.481 119.127 159.474 119.225 159.495 119.204C159.57 119.129 159.601 119.012 159.665 118.928C159.822 118.723 159.952 118.508 159.971 118.253C159.988 118.027 160.012 117.811 160.069 117.592C160.117 117.405 160.201 117.166 160.201 116.971C160.201 116.877 160.209 116.776 160.199 116.682C160.184 116.544 160.099 116.49 159.997 116.405C159.832 116.266 159.674 116.112 159.514 115.967C159.306 115.778 159.039 115.789 158.808 115.643C158.675 115.559 158.493 115.5 158.346 115.441C158.142 115.359 157.894 115.181 157.673 115.181C156.815 115.181 155.968 115.008 155.113 115.008C154.997 115.008 154.922 114.983 154.866 115.095C154.806 115.214 154.704 115.282 154.615 115.37C154.523 115.463 154.399 115.583 154.34 115.701" stroke="white" stroke-width="2" stroke-linecap="round"/>
<path d="M159.335 116.249C159.102 116.275 159.13 117.113 159.168 117.276C159.253 117.65 159.366 118.154 159.097 118.473C158.827 118.793 158.487 119.07 158.231 119.39C158.153 119.488 158.121 119.617 158.006 119.7C157.962 119.732 157.674 119.858 157.804 119.858" stroke="white" stroke-width="2" stroke-linecap="round"/>
<path d="M158.324 120.522C157.948 120.522 157.574 120.494 157.198 120.494C156.891 120.494 156.594 120.426 156.288 120.409C155.899 120.386 155.521 120.415 155.135 120.336C154.974 120.303 154.776 120.266 154.628 120.192C154.576 120.166 154.539 120.118 154.484 120.118" stroke="white" stroke-width="2" stroke-linecap="round"/>
<path d="M154.282 117C154.282 117.556 154.2 118.11 154.173 118.665C154.154 119.037 154.069 119.378 154.028 119.743C153.97 120.262 153.928 120.77 153.842 121.286C153.753 121.822 153.647 122.378 153.444 122.884C153.39 123.02 153.271 123.179 153.271 123.323" stroke="white" stroke-width="2" stroke-linecap="round"/>
<path d="M157.862 124.738C158.142 124.738 158.366 124.536 158.629 124.536C158.791 124.536 158.953 124.507 159.118 124.507C159.206 124.507 159.314 124.524 159.399 124.5C159.514 124.467 159.64 124.42 159.761 124.42C159.899 124.42 159.82 124.313 159.784 124.35C159.68 124.454 159.583 124.613 159.45 124.68" stroke="white" stroke-width="2" stroke-linecap="round"/>
<path d="M159.97 124.103C159.97 123.737 159.941 123.372 159.941 123.005C159.941 122.77 159.895 122.504 159.809 122.284C159.709 122.027 159.565 121.6 159.277 121.504" stroke="white" stroke-width="2" stroke-linecap="round"/>
<path d="M154.022 123.554C154.022 123.217 154.051 122.875 154.051 122.543" stroke="white" stroke-width="2" stroke-linecap="round"/>
<path d="M164.502 119.079C164.502 120.415 164.084 121.711 164.069 123.05C164.067 123.288 164.069 123.525 164.069 123.763C164.069 123.879 164.095 124.024 164.047 124.131C164.007 124.222 164.027 124.354 163.999 124.452C163.925 124.709 163.86 124.945 163.824 125.211C163.796 125.421 163.781 125.607 163.781 125.82C163.781 125.896 163.761 126.005 163.782 126.079C163.785 126.087 163.879 126.037 163.911 126.037C164.04 126.037 164.133 125.967 164.257 126.066C164.288 126.091 164.243 126.429 164.243 126.326" stroke="white" stroke-width="2" stroke-linecap="round"/>
<path d="M164.733 124.334C164.751 123.862 165.224 123.517 165.224 123.041C165.224 122.807 165.282 122.604 165.282 122.37" stroke="white" stroke-width="2" stroke-linecap="round"/>
<path d="M165.888 121.244C165.888 120.777 166.273 120.328 166.588 120.009C166.699 119.897 166.889 119.667 167.058 119.629C167.276 119.58 167.442 119.396 167.678 119.396C167.717 119.396 167.873 119.373 167.903 119.403C167.944 119.444 167.842 119.553 167.823 119.586C167.744 119.723 167.559 119.875 167.419 119.945" stroke="white" stroke-width="2" stroke-linecap="round"/>
<path d="M173.395 116.336C173.395 116.437 173.362 116.548 173.424 116.408C173.47 116.305 173.482 116.511 173.482 116.538" stroke="white" stroke-width="2" stroke-linecap="round"/>
<path d="M171.201 119.483C171.57 119.483 171.936 119.477 172.299 119.513C172.552 119.539 172.795 119.623 173.047 119.656C173.281 119.687 173.493 119.845 173.709 119.929C173.83 119.976 173.828 120.043 173.828 120.165C173.828 120.594 173.505 120.987 173.382 121.389C173.27 121.754 173.208 122.244 173.324 122.616C173.383 122.802 173.483 122.994 173.61 123.143C173.711 123.261 173.799 123.358 173.799 123.158C173.799 122.83 173.787 122.461 173.892 122.146C173.905 122.108 173.982 121.846 173.931 121.828C173.851 121.8 173.518 122.561 173.501 122.598C173.219 123.201 172.926 123.806 172.708 124.436C172.521 124.976 172.614 125.552 172.564 126.111C172.548 126.287 172.558 126.466 172.558 126.643C172.558 126.756 172.483 126.759 172.587 126.759C172.683 126.759 172.779 126.759 172.875 126.759C172.948 126.759 173.055 126.737 173.121 126.773C173.168 126.8 173.158 126.747 173.193 126.73" stroke="white" stroke-width="2" stroke-linecap="round"/>
<path d="M171.172 120.147C171.462 120.147 171.732 120.138 171.996 120.263C172.134 120.327 172.134 120.376 172.213 120.494C172.287 120.605 172.442 120.723 172.442 120.869" stroke="white" stroke-width="2" stroke-linecap="round"/>
<path d="M172.587 122.11V122.197" stroke="white" stroke-width="2" stroke-linecap="round"/>
<path d="M172.818 122.861C172.818 123.004 172.751 123.121 172.673 123.236" stroke="white" stroke-width="2" stroke-linecap="round"/>
<path d="M172.847 124.536C172.847 124.694 172.85 124.86 172.816 125.012C172.781 125.171 172.731 125.29 172.731 125.459C172.731 125.614 172.668 125.776 172.704 125.936C172.72 126.01 172.789 126.088 172.789 126.164C172.789 126.235 172.789 126.021 172.789 125.95C172.789 125.775 172.711 125.601 172.702 125.431C172.687 125.149 172.702 124.863 172.702 124.581C172.702 124.491 172.699 124.401 172.702 124.311C172.705 124.224 172.744 123.942 172.795 123.878C172.828 123.837 172.872 123.752 172.875 123.698C172.877 123.666 172.932 123.571 172.927 123.576C172.847 123.656 172.875 123.891 172.875 124.001C172.875 124.209 172.897 124.416 172.904 124.616C172.913 124.844 172.933 125.069 172.933 125.301C172.933 125.505 172.89 125.66 172.848 125.849C172.831 125.928 172.789 126.01 172.766 126.095C172.746 126.171 172.702 126.383 172.702 126.188C172.702 125.958 172.744 125.757 172.802 125.535C172.825 125.444 172.845 125.294 172.89 125.214C172.985 125.043 172.978 124.782 173.106 124.622C173.198 124.507 173.272 124.348 173.337 124.218" stroke="white" stroke-width="2" stroke-linecap="round"/>
<path d="M184.275 122.366C183.937 122.366 183.694 122.259 183.382 122.17C183.227 122.126 183.304 122.044 183.247 121.93C183.146 121.728 182.86 121.489 182.698 121.328C182.538 121.167 182.24 121.086 182.047 120.962C181.547 120.641 181.117 120.671 180.546 120.671C180.167 120.671 179.799 120.882 179.459 121.032C179.293 121.105 179.057 121.139 179.045 121.349C179.04 121.43 178.963 121.499 178.927 121.567C178.854 121.701 178.823 121.87 178.754 122.011C178.555 122.425 178.409 122.941 178.27 123.383C178.04 124.116 177.786 124.927 177.786 125.697C177.786 126.049 177.877 126.265 178.232 126.396C178.554 126.515 178.868 126.669 179.19 126.794C179.271 126.826 179.356 126.836 179.432 126.881C179.509 126.926 179.446 127.012 179.551 127.015C179.97 127.027 180.265 127.129 180.659 127.279C180.833 127.345 181.039 127.441 181.224 127.451C181.721 127.478 182.21 127.26 182.618 126.988C182.902 126.799 183.198 126.559 183.462 126.348C183.618 126.223 184.162 125.968 183.984 126.057C183.663 126.218 183.282 126.138 182.967 126.278C182.751 126.374 182.347 126.301 182.155 126.493C182.086 126.562 182.412 126.435 182.416 126.434C182.796 126.317 183.16 126.157 183.538 126.036C183.783 125.957 183.892 125.804 184.178 125.804" stroke="white" stroke-width="2" stroke-linecap="round"/>
<path d="M179.19 126.24C179.167 126.028 178.897 125.639 178.781 125.455C178.684 125.3 178.633 125.172 178.501 125.04C178.357 124.896 178.238 124.722 178.136 124.545C178.071 124.434 177.974 124.319 177.861 124.255C177.796 124.218 177.834 123.976 177.834 123.916C177.834 123.43 177.845 122.927 178.125 122.522C178.406 122.116 178.687 121.677 178.9 121.252" stroke="white" stroke-width="2" stroke-linecap="round"/>
<path d="M178.949 120.536C179.117 120.536 179.256 120.531 179.405 120.446C179.661 120.301 179.899 120.266 180.183 120.212C180.406 120.169 180.624 120.14 180.849 120.099C181.28 120.02 181.767 120.01 182.179 120.128C182.254 120.15 182.343 120.156 182.421 120.173C182.52 120.195 182.583 120.289 182.675 120.324C182.818 120.379 182.909 120.496 183.05 120.536C183.406 120.638 183.627 121.068 183.943 121.226" stroke="white" stroke-width="2" stroke-linecap="round"/>
<path d="M188.368 118.06C188.368 118.501 188.409 118.947 188.409 119.379C188.409 119.586 188.344 119.769 188.307 119.972C188.192 120.61 188.084 121.244 188.084 121.894C188.084 122.742 188.081 123.573 188.226 124.411C188.259 124.605 188.246 124.805 188.246 125.002C188.246 125.14 188.318 125.075 188.325 125.108C188.35 125.22 188.294 125.499 188.266 125.609C188.222 125.785 188.246 125.989 188.246 126.17C188.246 126.484 188.246 126.799 188.246 127.113C188.246 127.401 188.165 127.675 188.165 127.966C188.165 128.026 188.495 128.227 188.562 128.159C188.571 128.151 188.611 127.973 188.612 127.957C188.621 127.708 188.671 127.469 188.69 127.221C188.715 126.913 188.693 126.592 188.693 126.283C188.693 125.265 188.814 124.27 188.814 123.254C188.814 122.282 188.774 121.3 188.774 120.333" stroke="white" stroke-width="2" stroke-linecap="round"/>
<path d="M189.789 124.393C190.172 124.393 190.564 124.374 190.926 124.352C190.971 124.35 191.008 124.285 191.047 124.262C191.123 124.218 191.176 124.214 191.25 124.181C191.393 124.118 191.581 124.149 191.737 124.149" stroke="white" stroke-width="2" stroke-linecap="round"/>
<path d="M192.225 123.744C192.225 123.058 192.753 122.494 193.208 122.029C193.399 121.834 193.547 121.543 193.788 121.409C193.95 121.319 194.149 121.295 194.297 121.184C194.44 121.077 194.593 120.976 194.742 120.902" stroke="white" stroke-width="2" stroke-linecap="round"/>
<path d="M191.453 124.799C191.453 125.138 191.735 125.384 191.85 125.683C191.915 125.85 192.044 125.958 192.166 126.08C192.353 126.267 192.526 126.491 192.599 126.748C192.655 126.942 192.774 127.137 192.865 127.316C192.932 127.447 193.069 127.569 193.118 127.704C193.413 128.517 194.41 128.396 195.067 128.615" stroke="white" stroke-width="2" stroke-linecap="round"/>
<path d="M195.716 128.575C195.479 128.575 195.265 128.453 195.026 128.453" stroke="white" stroke-width="2" stroke-linecap="round"/>
<path d="M192.103 123.865C192.103 124.257 192.509 124.534 192.509 124.921" stroke="white" stroke-width="2" stroke-linecap="round"/>
<path d="M192.103 124.555C192.103 124.744 192.214 125.039 192.297 125.205C192.394 125.399 192.604 125.682 192.631 125.895C192.642 125.985 192.671 126.072 192.671 126.179C192.671 126.285 192.741 126.333 192.752 126.423C192.757 126.461 192.842 126.607 192.865 126.635C192.887 126.662 192.91 126.873 192.915 126.91C192.936 127.078 193.239 127.223 193.352 127.325C193.482 127.442 193.632 127.508 193.758 127.609C194.034 127.83 194.46 128.048 194.782 128.209" stroke="white" stroke-width="2" stroke-linecap="round"/>
<path d="M139.609 116.668C139.839 116.668 140.072 116.657 140.302 116.67C140.483 116.68 140.671 116.767 140.846 116.767C141.334 116.767 141.863 116.87 142.329 117.014C142.464 117.056 142.574 117.144 142.703 117.188C142.844 117.237 143.001 117.239 143.139 117.302C143.35 117.398 143.726 117.49 143.807 117.731C143.89 117.982 143.838 118.285 143.867 118.548C143.904 118.88 143.981 119.207 144.08 119.524C144.288 120.196 144.228 120.885 144.228 121.584" stroke="white" stroke-width="2" stroke-linecap="round"/>
<path d="M139.279 117.295C139.444 117.295 139.609 117.295 139.774 117.295C140.017 117.295 140.212 117.36 140.448 117.392C140.82 117.441 141.238 117.465 141.588 117.608C141.805 117.697 142.002 117.75 142.199 117.887C142.352 117.993 142.513 118.093 142.67 118.193C142.797 118.274 143.011 118.38 143.106 118.499C143.149 118.553 143.177 118.617 143.238 118.648" stroke="white" stroke-width="2" stroke-linecap="round"/>
<path d="M143.271 119.835C143.271 119.967 143.305 120.057 143.345 120.173C143.399 120.33 143.418 120.5 143.469 120.66C143.493 120.735 143.564 120.85 143.568 120.924C143.573 121.008 143.64 121.107 143.675 121.188C143.77 121.416 143.766 121.665 143.766 121.907C143.766 122.19 143.675 122.588 143.543 122.838C143.428 123.054 143.37 123.246 143.37 123.498" stroke="white" stroke-width="2" stroke-linecap="round"/>
<path d="M143.931 122.607C143.931 122.877 143.931 123.146 143.931 123.415C143.931 123.527 143.988 123.842 143.882 123.927C143.791 123.999 143.838 124.154 143.792 124.257C143.732 124.391 143.732 124.422 143.865 124.422" stroke="white" stroke-width="2" stroke-linecap="round"/>
<path d="M143.106 120.495C141.806 120.495 140.463 120.303 139.196 120.693C138.915 120.78 138.642 120.891 138.369 120.99C138.218 121.045 138.211 121.175 138.116 121.28C138.009 121.399 137.948 121.57 137.843 121.698C137.744 121.819 137.728 121.963 137.728 122.112" stroke="white" stroke-width="2" stroke-linecap="round"/>
<path d="M137.794 123.135C137.794 123.336 138.133 123.522 138.289 123.604C138.627 123.784 138.89 123.93 139.264 124.026C139.566 124.104 140.029 124.261 140.334 124.132C140.461 124.079 140.9 124.148 140.961 124.026" stroke="white" stroke-width="2" stroke-linecap="round"/>
<path d="M142.116 123.465C142.335 123.443 142.512 123.168 142.71 123.168" stroke="white" stroke-width="2" stroke-linecap="round"/>
<path d="M137.893 121.221C137.893 121.488 137.86 121.756 137.86 122.03C137.86 122.139 137.92 122.275 137.926 122.376C137.934 122.507 137.926 122.641 137.926 122.772C137.926 122.89 137.902 123.037 137.928 123.152C137.936 123.191 138.127 123.329 138.173 123.366C138.263 123.438 138.321 123.564 138.421 123.623C138.509 123.675 138.595 123.717 138.685 123.762" stroke="white" stroke-width="2" stroke-linecap="round"/>
<path d="M131.953 112.576C131.953 112.879 132.005 113.239 131.946 113.54C131.91 113.724 131.886 113.955 131.814 114.127C131.788 114.189 131.782 114.166 131.79 114.111C131.808 113.994 131.875 113.848 131.926 113.744C132.064 113.46 132.317 113.205 132.529 112.974C132.604 112.892 132.628 112.917 132.611 113.025C132.584 113.202 132.514 113.353 132.514 113.535C132.514 113.863 132.454 114.195 132.448 114.523C132.44 114.976 132.379 115.435 132.342 115.887C132.303 116.358 132.307 116.845 132.217 117.309C132.119 117.815 132.114 118.332 131.97 118.829C131.906 119.049 131.889 119.282 131.838 119.505C131.806 119.647 131.755 119.824 131.755 119.967C131.755 120.149 131.638 120.19 131.592 120.349C131.552 120.489 131.59 120.697 131.59 120.842C131.59 120.992 131.557 121.16 131.557 121.32C131.557 121.458 131.626 121.624 131.715 121.724C131.825 121.845 131.959 122.049 132.102 122.129C132.44 122.317 132.794 122.475 133.167 122.6C133.362 122.665 133.665 122.607 133.865 122.607C134.003 122.607 134.213 122.585 134.329 122.508" stroke="white" stroke-width="2" stroke-linecap="round"/>
<path d="M134.593 123.036C134.528 123.028 134.464 122.892 134.428 122.838" stroke="white" stroke-width="2" stroke-linecap="round"/>
<path d="M130.205 115.051C130.601 115.051 131.006 115.038 131.392 115.084C131.453 115.091 131.413 115.15 131.4 115.183C131.38 115.231 131.482 115.21 131.506 115.234C131.557 115.286 131.624 115.349 131.656 115.414" stroke="white" stroke-width="2" stroke-linecap="round"/>
<path d="M133.141 115.513C133.691 115.513 134.241 115.513 134.791 115.513C134.915 115.513 135.187 115.602 135.187 115.744" stroke="white" stroke-width="2" stroke-linecap="round"/>
<path d="M130.997 115.084C131.204 115.084 131.406 115.104 131.574 115.234C131.682 115.318 131.829 115.447 131.97 115.447C132.327 115.447 132.745 115.85 132.745 116.206" stroke="white" stroke-width="2" stroke-linecap="round"/>
<path d="M131.788 115.249C132.054 115.297 132.077 115.573 132.225 115.737C132.321 115.844 132.415 115.992 132.415 116.14" stroke="white" stroke-width="2" stroke-linecap="round"/>
<path d="M131.162 115.018C131.499 115.052 131.669 115.503 131.822 115.737C131.955 115.941 132.053 116.003 132.053 116.272C132.053 116.448 132.053 116.624 132.053 116.8" stroke="white" stroke-width="2" stroke-linecap="round"/>
<path d="M122.087 113.368C122.521 113.368 122.911 113.377 123.334 113.46C123.503 113.493 123.674 113.503 123.844 113.533C124.127 113.583 124.379 113.696 124.654 113.777C125.033 113.889 125.425 114.03 125.779 114.208C125.848 114.242 126.169 114.343 126.179 114.424C126.184 114.467 126.241 114.515 126.26 114.558C126.306 114.663 126.336 114.784 126.377 114.893C126.472 115.146 126.565 115.392 126.674 115.641C126.792 115.911 127.031 116.161 127.099 116.45C127.214 116.936 126.931 117.411 126.725 117.823C126.648 117.976 126.695 118.152 126.648 118.31C126.603 118.463 126.641 118.688 126.641 118.845C126.641 119.155 126.66 119.462 126.593 119.766C126.557 119.931 126.542 120.08 126.542 120.248C126.542 120.491 126.443 120.74 126.443 120.99" stroke="white" stroke-width="2" stroke-linecap="round"/>
<path d="M125.42 116.932C124.455 116.932 123.474 116.81 122.533 117.014C122.179 117.091 121.816 117.203 121.486 117.342C121.262 117.437 120.998 117.646 120.848 117.839C120.788 117.916 120.767 118.054 120.9 118.054" stroke="white" stroke-width="2" stroke-linecap="round"/>
<path d="M120.405 118.879C120.405 119.357 120.943 119.946 121.328 120.173C121.389 120.209 121.423 120.288 121.493 120.323C121.58 120.367 121.721 120.363 121.816 120.363C122.036 120.363 122.243 120.462 122.45 120.462" stroke="white" stroke-width="2" stroke-linecap="round"/>
<path d="M123.572 120.693C124.111 120.693 124.305 120.499 124.645 120.132C125.02 119.728 125.537 119.404 125.783 118.911" stroke="white" stroke-width="2" stroke-linecap="round"/>
<path d="M126.08 118.087C126.08 117.935 126.028 117.687 126.113 117.559" stroke="white" stroke-width="2" stroke-linecap="round"/>
<path d="M126.113 119.934C126.113 120.234 126.178 120.597 126.047 120.858" stroke="white" stroke-width="2" stroke-linecap="round"/>
<path d="M110.308 109.276C110.308 109.982 110.419 110.79 110.216 111.476C109.973 112.297 109.845 113.149 109.754 113.999C109.713 114.379 109.678 114.759 109.622 115.139C109.537 115.719 109.521 116.309 109.442 116.891C109.422 117.047 109.417 117.197 109.417 117.353C109.417 117.539 109.618 117.621 109.747 117.757C109.851 117.867 109.805 118.042 109.838 118.186C109.923 118.543 109.978 118.874 109.978 119.241" stroke="white" stroke-width="2" stroke-linecap="round"/>
<path d="M109.846 115.843C109.846 115.933 109.84 116.023 109.864 116.11C109.896 116.228 109.877 116.396 109.93 116.503C110.026 116.694 110.186 116.836 110.275 117.031C110.48 117.481 110.242 117.991 110.242 118.451C110.242 118.632 110.266 118.769 110.333 118.937C110.363 119.012 110.359 119.187 110.44 119.234C110.511 119.276 110.573 119.331 110.645 119.373C110.8 119.464 111.096 119.406 111.265 119.406C111.568 119.406 111.867 119.414 112.166 119.357C112.448 119.303 112.708 119.222 112.997 119.21C113.381 119.195 113.767 119.208 114.152 119.208C114.387 119.208 114.548 119.041 114.704 118.886C114.902 118.687 115.112 118.478 115.356 118.334C115.504 118.247 115.659 118.149 115.818 118.087C115.892 118.058 116.023 118.012 116.075 117.947C116.149 117.855 116.043 117.589 116.016 117.507C115.845 116.985 116.263 116.745 116.429 116.321C116.495 116.15 116.598 116.03 116.636 115.85C116.671 115.68 116.709 115.557 116.709 115.381" stroke="white" stroke-width="2" stroke-linecap="round"/>
<path d="M116.379 116.965C116.379 116.788 116.744 116.526 116.867 116.418C116.975 116.324 117.095 116.234 117.187 116.121C117.237 116.06 117.303 116.015 117.303 115.934C117.303 115.839 117.305 115.713 117.352 115.628C117.477 115.404 117.517 115.09 117.6 114.846C117.689 114.584 117.759 114.182 117.732 113.896C117.713 113.701 117.49 113.436 117.395 113.273C117.186 112.914 116.942 112.577 116.742 112.213C116.546 111.857 116.275 111.424 115.948 111.174C115.756 111.027 115.596 110.844 115.406 110.695C115.19 110.527 115.69 110.654 115.778 110.688C115.925 110.745 115.986 110.94 116.115 111.025" stroke="white" stroke-width="2" stroke-linecap="round"/>
<path d="M117.567 114.622C117.531 114.427 117.298 114.265 117.173 114.127C117.073 114.017 117.004 113.896 116.94 113.764C116.873 113.626 116.919 113.451 116.881 113.302C116.78 112.907 116.384 112.713 116.115 112.444" stroke="white" stroke-width="2" stroke-linecap="round"/>
<path d="M110.671 113.203C110.671 113.56 110.579 113.882 110.539 114.226C110.535 114.26 110.491 114.301 110.473 114.332C110.421 114.422 110.397 114.553 110.359 114.651C110.33 114.727 110.305 114.91 110.249 114.959C110.223 114.983 110.246 114.219 110.26 114.14C110.395 113.368 110.666 112.628 110.942 111.898C111.052 111.608 111.131 111.259 111.265 110.992" stroke="white" stroke-width="2" stroke-linecap="round"/>
<path d="M111.429 110.926C111.628 110.926 111.824 110.8 112.011 110.743C112.263 110.666 112.506 110.555 112.757 110.472C113.003 110.389 113.319 110.398 113.576 110.398C113.84 110.398 114.168 110.357 114.417 110.464C114.533 110.514 114.601 110.567 114.68 110.629C114.761 110.694 114.836 110.816 114.912 110.893C115.044 111.025 115.212 111.23 115.389 111.289" stroke="white" stroke-width="2" stroke-linecap="round"/>
<path d="M110.869 108.914C111.11 108.914 111.379 108.884 111.613 108.947C111.961 109.039 112.309 109.14 112.656 109.227C112.969 109.305 113.28 109.356 113.582 109.474C113.713 109.526 113.807 109.546 113.912 109.632C113.979 109.687 114.085 109.744 114.168 109.771" stroke="white" stroke-width="2" stroke-linecap="round"/>
<path d="M111.255 118.519C111.526 118.519 111.818 118.572 112.062 118.572" stroke="white" stroke-width="2" stroke-linecap="round"/>
<path d="M124.656 131.48C124.656 131.257 124.673 130.982 124.812 130.798" stroke="white" stroke-linecap="round"/>
<path d="M124.812 130.643C124.812 130.315 124.966 129.947 125.098 129.65C125.283 129.233 125.542 128.827 125.726 128.396C125.786 128.258 125.856 128.132 125.935 128.007C125.963 127.962 126.055 127.978 125.99 128.014C125.866 128.082 125.748 128.186 125.649 128.286C125.539 128.395 125.41 128.48 125.301 128.589C125.157 128.732 125.359 128.325 125.383 128.279C125.514 128.037 125.62 127.694 125.819 127.495C125.921 127.394 126.191 127.449 126.324 127.449C126.48 127.449 127.063 127.363 127.168 127.495C127.202 127.537 127.268 127.549 127.308 127.588C127.373 127.654 127.444 127.735 127.516 127.79C127.648 127.89 127.718 128.06 127.835 128.177C127.955 128.297 127.949 128.494 128.006 128.651C128.05 128.772 128.107 128.904 128.13 129.03C128.153 129.158 128.24 129.277 128.254 129.402C128.266 129.524 128.366 129.702 128.409 129.819C128.456 129.95 128.519 130.085 128.571 130.208C128.692 130.498 128.756 130.836 128.843 131.139C128.876 131.256 128.951 131.372 129.005 131.48C129.074 131.618 129.091 131.752 129.124 131.898C129.144 131.992 129.183 132.107 129.222 132.193C129.283 132.332 129.275 132.486 129.332 132.627C129.407 132.814 129.335 133.133 129.456 133.285C129.478 133.313 129.572 133.545 129.554 133.482C129.545 133.448 129.04 133.437 128.996 133.432C128.92 133.422 128.6 133.338 128.595 133.247C128.583 133.033 128.475 132.871 128.44 132.656C128.392 132.373 128.316 132.07 128.316 131.783C128.316 131.642 128.314 131.446 128.254 131.325" stroke="white" stroke-linecap="round"/>
<path d="M123.726 133.278C123.726 132.921 123.84 132.629 123.959 132.3C124.064 132.006 124.25 131.706 124.317 131.402C124.356 131.225 124.485 131.052 124.556 130.891C124.63 130.725 124.692 130.536 124.749 130.363" stroke="white" stroke-linecap="round"/>
<path d="M124.005 133.464C124.005 133.278 124.121 133.171 124.205 133.015C124.255 132.923 124.29 132.776 124.353 132.696C124.44 132.588 124.523 132.372 124.564 132.239C124.615 132.072 124.739 131.929 124.781 131.761C124.806 131.66 124.911 131.503 124.974 131.425C125.063 131.313 125.1 131.325 125.247 131.325C125.514 131.325 125.682 131.363 125.928 131.449C126.132 131.519 126.248 131.573 126.462 131.573C126.765 131.573 127.065 131.525 127.372 131.543C127.601 131.557 127.74 131.706 127.913 131.814C128.063 131.908 127.791 131.914 127.742 131.914C127.537 131.914 127.331 131.914 127.125 131.914C126.585 131.914 126.066 131.759 125.525 131.759C125.384 131.759 125.29 131.697 125.153 131.766C125.085 131.8 124.865 131.807 124.843 131.852" stroke="white" stroke-linecap="round"/>
<path d="M125.401 129.805C125.401 130.052 125.404 130.302 125.283 130.519C125.159 130.742 125.105 130.998 125.066 131.249C125.057 131.31 124.97 131.847 125.059 131.852C125.254 131.863 125.453 131.852 125.649 131.852" stroke="white" stroke-linecap="round"/>
<path d="M128.006 131.449C128.006 131.171 128.008 130.85 128.143 130.599C128.21 130.476 128.256 130.312 128.216 130.17C128.16 129.976 128.12 129.783 128.023 129.604C127.971 129.508 127.965 129.38 127.919 129.278C127.895 129.223 127.833 129.131 127.821 129.076C127.682 128.45 127.175 127.852 126.517 127.852" stroke="white" stroke-linecap="round"/>
<path d="M127.199 128.844C127.199 129.107 127.277 129.214 127.44 129.378C127.579 129.517 127.654 129.8 127.664 129.991C127.67 130.089 127.725 130.163 127.757 130.253C127.8 130.369 127.816 130.49 127.844 130.612C127.898 130.848 127.79 131.004 127.571 131.077" stroke="white" stroke-linecap="round"/>
<path d="M132.533 129.371C132.533 130.128 132.489 130.872 132.447 131.628C132.415 132.193 132.363 132.76 132.318 133.323C132.31 133.425 132.285 133.517 132.285 133.619C132.285 133.654 132.285 133.787 132.285 133.681" stroke="white" stroke-linecap="round"/>
<path d="M132.719 134.116C132.719 133.717 132.731 133.319 132.819 132.93C132.892 132.608 132.936 132.339 132.936 132.007C132.936 131.821 132.936 131.635 132.936 131.449C132.936 131.021 133.122 130.602 133.122 130.177C133.122 130.043 133.087 129.982 133.036 129.867C132.998 129.782 132.993 129.601 132.905 129.557" stroke="white" stroke-linecap="round"/>
<path d="M133.215 130.519C133.233 130.363 133.634 130.168 133.76 130.108C133.902 130.041 134.033 129.96 134.192 129.96C134.354 129.96 134.52 129.898 134.68 129.898C134.838 129.898 134.996 129.898 135.153 129.898C135.334 129.898 135.434 129.943 135.586 130.04C135.756 130.148 135.924 130.25 136.068 130.394C136.407 130.734 136.585 131.256 136.633 131.721C136.695 132.313 136.657 132.928 136.657 133.523C136.657 133.755 136.74 134.17 136.62 134.364C136.562 134.456 136.249 134.426 136.146 134.426C136.063 134.426 136.043 134.324 136.018 134.264C135.925 134.036 135.82 133.778 135.82 133.528C135.82 133.185 135.789 132.848 135.789 132.503C135.789 132.338 135.758 132.175 135.758 132.007C135.758 131.8 135.652 131.644 135.603 131.451C135.583 131.371 135.588 131.295 135.57 131.216C135.562 131.178 135.541 131 135.541 131.108" stroke="white" stroke-linecap="round"/>
<path d="M135.014 130.301C135.174 130.301 135.324 130.295 135.479 130.339C135.552 130.36 135.755 130.45 135.789 130.519" stroke="white" stroke-linecap="round"/>
<path d="M135.014 130.022C135.126 130.01 135.217 129.898 135.324 129.898C135.438 129.898 135.551 129.898 135.665 129.898C135.832 129.898 136.026 129.975 136.154 130.091C136.297 130.219 136.387 130.423 136.409 130.612C136.428 130.774 136.626 130.92 136.626 131.092C136.626 131.199 136.688 131.293 136.688 131.402C136.688 131.495 136.688 131.588 136.688 131.681C136.688 131.888 136.688 132.095 136.688 132.302C136.688 132.495 136.648 132.734 136.69 132.922C136.743 133.161 136.767 133.507 136.688 133.744" stroke="white" stroke-linecap="round"/>
<path d="M136.223 130.673C136.254 130.67 136.679 130.399 136.688 130.549C136.704 130.813 136.831 131.022 136.952 131.263C137.237 131.834 136.874 132.334 136.874 132.906" stroke="white" stroke-linecap="round"/>
<path d="M133.835 130.053C133.916 130.053 133.988 130.012 134.066 129.99C134.09 129.983 134.26 129.895 134.27 129.883C134.318 129.822 134.681 129.836 134.766 129.836C134.86 129.836 134.94 129.805 135.029 129.805C135.117 129.805 135.204 129.836 135.277 129.836C135.431 129.836 135.713 129.871 135.789 130.022" stroke="white" stroke-linecap="round"/>
<path d="M134.27 129.929C134.27 129.775 134.699 129.65 134.828 129.65C134.939 129.65 134.976 129.762 135.076 129.774C135.199 129.789 135.243 129.83 135.293 129.929" stroke="white" stroke-linecap="round"/>
<path d="M140.751 129.619C140.964 129.619 141.188 129.6 141.4 129.621C141.521 129.633 141.617 129.721 141.729 129.741C141.912 129.775 142.077 129.936 142.225 130.046C142.374 130.157 142.531 130.205 142.711 130.246C142.927 130.295 143.102 130.451 143.247 130.596C143.396 130.744 143.459 131.112 143.524 131.307C143.618 131.588 143.635 131.913 143.635 132.207C143.635 132.624 143.612 133.048 143.635 133.464C143.653 133.792 143.715 134.183 143.573 134.503C143.484 134.703 143.449 134.823 143.449 135.046C143.449 135.274 143.387 135.956 143.387 135.728" stroke="white" stroke-linecap="round"/>
<path d="M141.774 129.681C142.123 129.681 142.378 129.715 142.706 129.838C142.974 129.938 142.985 130.329 143.154 130.536C143.328 130.748 143.381 131.088 143.486 131.325C143.595 131.57 143.573 131.923 143.573 132.193" stroke="white" stroke-linecap="round"/>
<path d="M140.689 130.146C141.356 130.146 142.019 130.11 142.642 130.387C142.824 130.468 143.027 130.48 143.17 130.658C143.26 130.771 143.542 130.941 143.542 131.077" stroke="white" stroke-linecap="round"/>
<path d="M139.882 132.782C140.04 132.782 140.138 132.681 140.279 132.634C140.401 132.593 140.533 132.588 140.656 132.55C140.978 132.449 141.306 132.348 141.65 132.348C141.919 132.348 142.189 132.348 142.458 132.348C142.612 132.348 142.767 132.348 142.921 132.348C143.031 132.348 143.127 132.41 143.231 132.41" stroke="white" stroke-linecap="round"/>
<path d="M142.952 132.565C142.952 132.963 143.2 133.277 143.2 133.666C143.2 133.967 143.259 134.282 142.921 134.395" stroke="white" stroke-linecap="round"/>
<path d="M139.572 132.844C139.572 133.134 139.572 133.423 139.572 133.713C139.572 133.979 139.538 134.314 139.71 134.534C139.754 134.59 139.809 134.636 139.851 134.689C139.886 134.733 140.003 134.724 140.053 134.751C140.114 134.785 140.277 134.795 140.317 134.844C140.37 134.911 140.461 134.943 140.534 134.977C140.726 135.068 140.889 135.039 141.092 135.084C141.219 135.112 141.333 135.146 141.464 135.139C141.605 135.131 141.747 135.012 141.883 134.982C142.169 134.919 142.26 134.508 142.487 134.395" stroke="white" stroke-linecap="round"/>
<path d="M140.658 132.813C140.635 133.198 140.348 133.553 140.348 133.945C140.348 134.286 140.365 134.442 140.689 134.55" stroke="white" stroke-linecap="round"/>
<path d="M140.534 132.72C140.828 132.72 141.127 132.564 141.402 132.472" stroke="white" stroke-linecap="round"/>
<path d="M143.107 131.17C143.107 131.315 143.183 131.485 143.262 131.604" stroke="white" stroke-linecap="round"/>
<path d="M143.821 131.387C143.821 131.482 143.853 131.599 143.898 131.681C143.941 131.759 143.914 131.904 143.914 131.991C143.914 132.198 143.914 132.405 143.914 132.612C143.914 132.845 143.79 133.072 143.79 133.309C143.79 133.518 143.697 134.139 143.697 133.93" stroke="white" stroke-linecap="round"/>
<path d="M142.952 130.115C143.01 130.123 143.061 130.506 143.154 130.581C143.289 130.689 143.324 130.872 143.464 130.984C143.59 131.085 143.619 131.329 143.721 131.456C143.864 131.635 143.76 131.916 143.883 132.1" stroke="white" stroke-linecap="round"/>
<path d="M143.883 131.914C143.883 131.742 143.753 131.604 143.666 131.473C143.595 131.368 143.483 130.958 143.387 130.953C143.303 130.948 142.72 130.3 142.704 130.332" stroke="white" stroke-linecap="round"/>
<path d="M142.735 130.115C142.735 130.371 142.926 130.476 143.14 130.596C143.349 130.713 143.503 130.83 143.611 131.046C143.68 131.185 143.883 131.27 143.883 131.433C143.883 131.61 143.914 131.793 143.914 131.976" stroke="white" stroke-linecap="round"/>
<path d="M146.984 129.867C147.089 129.68 147.229 129.672 147.418 129.719C147.52 129.745 147.767 129.749 147.759 129.898C147.754 129.991 147.622 130.128 147.59 130.222C147.489 130.524 147.36 130.793 147.294 131.108C147.197 131.568 147.109 132.016 147.07 132.486C147.024 133.039 146.818 134.685 146.953 134.147" stroke="white" stroke-linecap="round"/>
<path d="M146.612 130.053C146.612 129.713 146.974 129.701 147.163 129.55C147.313 129.43 147.611 129.57 147.759 129.619" stroke="white" stroke-linecap="round"/>
<path d="M147.79 130.611C147.79 130.978 147.754 131.339 147.666 131.697C147.509 132.333 147.428 133.017 147.339 133.666C147.258 134.254 147.09 134.828 147.016 135.416C147.008 135.484 147.08 135.761 147.015 135.728" stroke="white" stroke-linecap="round"/>
<path d="M146.767 133.899C146.767 133.992 146.767 134.085 146.767 134.178C146.767 134.301 146.713 134.404 146.705 134.526C146.692 134.701 146.669 134.915 146.619 135.084C146.602 135.138 146.557 135.536 146.588 135.566C146.677 135.656 146.891 135.426 146.891 135.697" stroke="white" stroke-linecap="round"/>
<path d="M150.746 129.579C150.746 129.628 150.773 129.666 150.81 129.696C150.838 129.718 150.874 129.646 150.933 129.675C150.951 129.684 150.949 129.718 150.924 129.693C150.903 129.672 150.91 129.723 150.91 129.737C150.91 129.792 150.884 129.793 150.863 129.836" stroke="white" stroke-linecap="round"/>
<path d="M150.711 129.883C150.711 129.906 150.711 129.929 150.711 129.953C150.711 129.979 150.72 129.963 150.746 129.964C150.857 129.97 150.745 130.021 150.723 129.953" stroke="white" stroke-linecap="round"/>
<path d="M149.73 131.634C149.883 131.634 150.028 131.639 150.179 131.657C150.361 131.679 150.606 131.776 150.728 131.92C150.793 131.997 150.798 132.125 150.81 132.219C150.833 132.393 150.828 132.568 150.828 132.744C150.828 133.189 150.856 133.639 150.788 134.079C150.775 134.157 150.781 134.238 150.781 134.317C150.781 134.354 150.792 134.367 150.808 134.399C150.82 134.422 150.816 134.449 150.812 134.473C150.797 134.572 150.771 134.669 150.749 134.766C150.671 135.11 150.625 135.465 150.571 135.814C150.548 135.963 150.501 136.109 150.48 136.258C150.472 136.319 150.468 136.387 150.445 136.445C150.435 136.471 150.432 136.49 150.454 136.468C150.495 136.428 150.552 136.461 150.594 136.433" stroke="white" stroke-linecap="round"/>
<path d="M149.812 132.031C149.812 132.088 149.8 132.136 149.841 132.177C149.877 132.213 149.921 132.185 149.964 132.183C150.231 132.169 150.42 132.419 150.557 132.619C150.622 132.713 150.594 132.852 150.594 132.96C150.594 133.116 150.58 133.261 150.553 133.415C150.526 133.576 150.512 133.738 150.512 133.902C150.512 133.971 150.515 134.032 150.498 134.098C150.484 134.153 150.475 134.21 150.465 134.266C150.457 134.312 150.429 134.353 150.42 134.395C150.414 134.42 150.422 134.448 150.428 134.471C150.445 134.539 150.451 134.607 150.457 134.676C150.474 134.875 150.503 135.087 150.459 135.287C150.444 135.356 150.431 135.402 150.431 135.473C150.431 135.492 150.416 135.511 150.42 135.528C150.424 135.547 150.462 135.546 150.437 135.546C150.36 135.546 150.311 135.627 150.244 135.627" stroke="white" stroke-linecap="round"/>
<path d="M150.127 135.884C150.127 136.027 150.045 136.152 150.045 136.293" stroke="white" stroke-linecap="round"/>
<path d="M152.988 131.109C153.208 131.109 153.428 131.109 153.648 131.109C153.848 131.109 154.053 131.141 154.202 130.978C154.301 130.869 154.378 130.741 154.469 130.626C154.534 130.543 154.603 130.443 154.634 130.34C154.645 130.302 154.65 130.264 154.655 130.224C154.663 130.162 154.659 130.152 154.608 130.123C154.496 130.057 154.342 129.95 154.279 129.831C154.251 129.777 154.307 129.588 154.307 129.649C154.307 129.673 154.281 129.715 154.272 129.738C154.223 129.87 154.182 130.011 154.144 130.147C154.096 130.322 154.069 130.503 154.048 130.683C154.046 130.7 154.027 130.774 154.027 130.77" stroke="white" stroke-linecap="round"/>
<path d="M155.008 129.556C155.008 129.717 154.951 129.883 154.903 130.034C154.844 130.22 154.809 130.418 154.781 130.61C154.751 130.817 154.737 131.025 154.707 131.232C154.704 131.25 154.675 131.371 154.711 131.365C154.934 131.324 155.182 131.354 155.41 131.354C155.471 131.354 155.519 131.349 155.574 131.377C155.638 131.411 155.704 131.455 155.756 131.506C155.914 131.664 156.16 131.681 156.374 131.681C156.418 131.681 156.463 131.681 156.507 131.681C156.522 131.681 156.486 131.703 156.479 131.716C156.458 131.755 156.429 131.787 156.409 131.827C156.38 131.886 156.374 131.942 156.374 132.006C156.374 132.076 156.374 131.985 156.374 131.964C156.374 131.887 156.389 131.819 156.409 131.746C156.418 131.713 156.444 131.695 156.444 131.657" stroke="white" stroke-linecap="round"/>
<path d="M156.316 131.973C156.101 131.973 155.887 131.981 155.675 131.947C155.43 131.907 155.19 131.844 154.947 131.795C154.902 131.786 154.859 131.786 154.813 131.786C154.736 131.786 154.66 131.834 154.588 131.856C154.507 131.88 154.425 131.897 154.342 131.912C154.267 131.925 154.192 131.949 154.115 131.949C154.055 131.949 154.062 131.842 154.045 131.804C154.038 131.789 154.031 131.728 154.015 131.727C153.95 131.724 153.888 131.71 153.823 131.699C153.655 131.67 153.487 131.633 153.332 131.564C153.274 131.538 153.209 131.528 153.157 131.487C153.132 131.468 153.035 131.388 153.011 131.412" stroke="white" stroke-linecap="round"/>
<path d="M153.56 132.183C153.56 132.285 153.582 132.376 153.601 132.475C153.612 132.534 153.642 132.578 153.659 132.634C153.699 132.762 153.721 132.897 153.741 133.029C153.785 133.315 153.826 133.601 153.861 133.888C153.868 133.942 153.92 134.204 153.852 134.238" stroke="white" stroke-linecap="round"/>
<path d="M154.669 131.949C154.669 132.022 154.651 132.089 154.632 132.158C154.577 132.356 154.533 132.555 154.501 132.758C154.465 132.993 154.461 133.233 154.445 133.47C154.433 133.652 154.419 133.836 154.383 134.015C154.368 134.085 154.359 134.166 154.319 134.226" stroke="white" stroke-linecap="round"/>
<path d="M154.342 134.471C154.342 134.79 154.355 135.101 154.494 135.393C154.556 135.524 154.627 135.64 154.746 135.727C154.808 135.773 154.878 135.803 154.938 135.852C154.986 135.891 155.033 135.924 155.087 135.954C155.273 136.058 155.471 136.083 155.68 136.083C155.78 136.083 155.843 136.086 155.93 136.129" stroke="white" stroke-linecap="round"/>
<path d="M153.677 134.273C153.677 134.405 153.658 134.553 153.689 134.682C153.705 134.751 153.729 134.819 153.744 134.889C153.755 134.936 153.761 134.999 153.785 135.041C153.86 135.177 153.969 135.296 154.069 135.415C154.127 135.485 154.167 135.576 154.217 135.653C154.271 135.739 154.331 135.817 154.392 135.899C154.499 136.044 154.69 136.064 154.856 136.094C155.111 136.141 155.373 136.193 155.623 136.261C155.717 136.286 155.829 136.336 155.928 136.34C155.963 136.341 156.006 136.327 156.024 136.363" stroke="white" stroke-linecap="round"/>
<path d="M153.548 134.728C153.548 134.91 153.56 135.095 153.66 135.251C153.728 135.357 153.809 135.443 153.893 135.54C153.937 135.591 153.954 135.656 153.969 135.721C153.976 135.754 153.97 135.822 153.995 135.847C154.011 135.863 154.045 135.876 154.065 135.893C154.103 135.927 154.133 135.962 154.167 136C154.291 136.141 154.38 136.283 154.542 136.386C154.777 136.536 155.071 136.653 155.344 136.711C155.486 136.741 155.616 136.76 155.761 136.76C155.788 136.76 155.851 136.748 155.873 136.766C155.89 136.78 155.975 136.795 156 136.795" stroke="white" stroke-linecap="round"/>
<path d="M153.572 134.903C153.575 135.063 153.648 135.203 153.735 135.333C153.781 135.401 153.83 135.463 153.852 135.543C153.896 135.699 153.87 135.936 154.051 136.006C154.196 136.063 154.246 136.207 154.331 136.327C154.376 136.392 154.388 136.443 154.46 136.486C154.618 136.579 154.801 136.621 154.961 136.702" stroke="white" stroke-linecap="round"/>
<path d="M158.371 131.477C158.371 131.594 158.46 131.681 158.499 131.79C158.637 132.179 158.671 132.606 158.758 133.007C158.873 133.536 159.042 134.04 159.203 134.557C159.225 134.628 159.232 134.687 159.232 134.759C159.232 134.787 159.229 134.87 159.252 134.803" stroke="white" stroke-linecap="round"/>
<path d="M159.154 131.496C159.154 131.786 159.292 132.072 159.378 132.345C159.436 132.531 159.45 132.734 159.467 132.927C159.509 133.406 159.495 133.877 159.789 134.276C159.924 134.459 160.006 134.677 160.074 134.892C160.099 134.972 160.105 135.06 160.137 135.135C160.178 135.234 160.202 135.285 160.289 135.355C160.365 135.416 160.415 135.521 160.504 135.566" stroke="white" stroke-linecap="round"/>
<path d="M160.739 135.664C160.739 135.34 160.939 135.097 161.107 134.838C161.143 134.782 161.183 134.75 161.228 134.705C161.285 134.647 161.31 134.541 161.345 134.47C161.485 134.182 161.633 133.905 161.806 133.635C161.891 133.502 161.957 133.359 162.03 133.219C162.062 133.158 162.131 133.081 162.146 133.013C162.187 132.829 162.334 132.648 162.441 132.495C162.531 132.366 162.506 132.251 162.421 132.123" stroke="white" stroke-linecap="round"/>
<path d="M162.069 132.123V132.494" stroke="white" stroke-linecap="round"/>
<path d="M157.745 137.835C157.948 137.835 158.144 137.913 158.343 137.913C158.471 137.913 158.595 137.927 158.722 137.934C158.882 137.943 159.057 137.959 159.215 137.982C159.425 138.013 159.651 138.053 159.841 137.941C160.113 137.78 160.296 137.621 160.476 137.365C160.628 137.147 160.682 136.887 160.797 136.65C160.944 136.35 161.081 136.054 161.149 135.722C161.197 135.495 161.237 135.267 161.306 135.044C161.374 134.822 161.478 134.615 161.545 134.392C161.602 134.204 161.697 134.004 161.697 133.805" stroke="white" stroke-linecap="round"/>
<path d="M161.423 136.074C161.423 135.848 161.533 135.619 161.634 135.422C161.711 135.274 161.77 135.12 161.854 134.974C161.957 134.795 162.101 134.612 162.177 134.419C162.314 134.068 162.46 133.718 162.593 133.364C162.654 133.202 162.734 133.025 162.734 132.851C162.734 132.762 162.706 132.608 162.744 132.525C162.767 132.474 162.936 132.031 162.949 132.044" stroke="white" stroke-linecap="round"/>
<path d="M158.88 134.235C158.88 134.388 158.874 134.541 158.881 134.693C158.884 134.753 158.88 134.863 158.904 134.92C158.939 135.002 159.006 135.168 159.087 135.214C159.248 135.306 159.403 135.605 159.613 135.605C159.754 135.605 159.916 135.655 160.055 135.683C160.175 135.707 160.252 135.754 160.352 135.82C160.523 135.934 160.504 136.084 160.504 136.27" stroke="white" stroke-linecap="round"/>
<path d="M157.863 137.542C157.994 137.542 158.119 137.522 158.245 137.522C158.561 137.522 158.874 137.542 159.189 137.542C159.546 137.542 159.797 137.276 160.074 137.092" stroke="white" stroke-linecap="round"/>
<path d="M169.268 134.333C169.26 134.256 169.149 134.156 169.102 134.1C168.99 133.962 168.877 133.814 168.741 133.698C168.594 133.573 168.462 133.475 168.282 133.409C167.906 133.274 167.471 133.231 167.076 133.199C166.759 133.172 166.416 133.137 166.12 133.277C165.787 133.435 165.69 133.787 165.556 134.109C165.432 134.407 165.384 134.69 165.327 135.005C165.324 135.025 165.293 135.155 165.336 135.155C165.38 135.155 165.245 135.877 165.234 135.955C165.158 136.499 164.991 137.202 165.306 137.703C165.542 138.078 166.018 138.264 166.431 138.363C166.573 138.398 166.691 138.406 166.832 138.426C166.917 138.439 167 138.442 167.086 138.442C167.16 138.442 167.216 138.382 167.283 138.355C167.533 138.253 167.799 138.189 168.053 138.099C168.354 137.993 168.555 137.792 168.771 137.57C168.92 137.417 169.08 137.281 169.229 137.131C169.294 137.066 169.365 137.007 169.44 136.955C169.459 136.942 169.521 136.914 169.523 136.896C169.529 136.848 169.643 136.758 169.679 136.74" stroke="white" stroke-linecap="round"/>
<path d="M166.921 137.972C166.965 137.967 167.014 137.923 167.051 137.903C167.187 137.83 167.318 137.752 167.453 137.679C167.692 137.55 167.946 137.4 168.201 137.307C168.34 137.257 168.483 137.125 168.604 137.043C168.706 136.974 168.817 136.92 168.921 136.857C169.178 136.701 169.544 136.7 169.836 136.7" stroke="white" stroke-linecap="round"/>
<path d="M168.76 136.505C168.76 136.559 168.745 136.591 168.711 136.633C168.683 136.667 168.618 136.691 168.603 136.72" stroke="white" stroke-linecap="round"/>
<path d="M167.703 137.64C167.452 137.64 167.179 137.672 166.93 137.638C166.617 137.597 166.342 137.453 166.06 137.327C165.881 137.246 165.756 137.176 165.639 137.014C165.512 136.836 165.415 136.621 165.336 136.418C165.278 136.269 165.257 136.094 165.238 135.936C165.226 135.831 165.18 135.731 165.18 135.625" stroke="white" stroke-linecap="round"/>
<path d="M166.099 137.131C166.09 137.066 166.05 137.011 166.019 136.955C165.938 136.811 165.857 136.666 165.808 136.507C165.756 136.338 165.767 136.164 165.767 135.99C165.767 135.619 165.9 135.266 165.952 134.902C165.995 134.608 165.988 134.026 166.306 133.844C166.394 133.794 166.471 133.714 166.569 133.668C166.681 133.615 166.858 133.602 166.98 133.591C167.277 133.564 167.636 133.56 167.927 133.618C168.045 133.641 168.157 133.678 168.272 133.707C168.463 133.755 168.562 133.823 168.716 133.942C168.755 133.972 168.772 134.022 168.801 134.059C168.853 134.126 168.92 134.184 168.965 134.255C169.009 134.323 169.064 134.388 169.116 134.446C169.218 134.559 169.468 134.47 169.601 134.47C169.659 134.47 169.705 134.49 169.767 134.49C169.836 134.49 169.841 134.522 169.895 134.548" stroke="white" stroke-linecap="round"/>
<path d="M164.925 136.877C164.925 136.66 164.904 136.45 164.867 136.235C164.802 135.865 164.834 135.522 164.914 135.155C164.978 134.865 164.975 134.53 165.091 134.257C165.17 134.069 165.299 133.969 165.414 133.805C165.564 133.593 165.761 133.199 166.032 133.101C166.213 133.035 166.406 132.866 166.608 132.866" stroke="white" stroke-linecap="round"/>
<path d="M166.588 132.827C166.783 132.827 166.97 132.772 167.16 132.733C167.396 132.685 167.596 132.731 167.829 132.773C168.143 132.829 168.431 132.925 168.755 132.925C168.872 132.925 168.875 133.048 168.936 133.12C169.076 133.287 169.244 133.442 169.342 133.649C169.398 133.767 169.451 133.831 169.542 133.922C169.61 133.99 169.776 134.058 169.816 134.138" stroke="white" stroke-linecap="round"/>
<path d="M168.956 134.568C168.912 134.568 168.88 134.588 168.838 134.588" stroke="white" stroke-linecap="round"/>
<path d="M176.292 134.392C176.148 134.378 175.997 134.212 175.874 134.142C175.766 134.079 175.652 134.037 175.544 133.977C175.4 133.897 175.245 133.836 175.103 133.751C175.046 133.717 174.982 133.679 174.918 133.664C174.775 133.63 174.708 133.527 174.551 133.531C174.454 133.534 174.353 133.577 174.257 133.594C174.1 133.622 173.931 133.653 173.778 133.697C173.554 133.763 173.276 133.789 173.102 133.963C172.931 134.133 172.748 134.311 172.606 134.507C172.558 134.574 172.418 134.667 172.418 134.754C172.418 134.842 172.418 134.93 172.418 135.018" stroke="white" stroke-linecap="round"/>
<path d="M173.533 134.196C173.61 134.196 173.66 134.126 173.723 134.09C173.794 134.048 173.87 134.019 173.944 133.985C174.013 133.955 174.099 133.942 174.173 133.922C174.365 133.871 174.61 133.854 174.805 133.907C175.015 133.964 175.201 134.084 175.403 134.157C175.548 134.21 175.663 134.326 175.803 134.372" stroke="white" stroke-linecap="round"/>
<path d="M172.849 134.588C172.849 134.715 172.853 134.788 172.946 134.881C173.028 134.963 173.081 135.12 173.118 135.229C173.155 135.334 173.181 135.362 173.279 135.409C173.343 135.44 173.411 135.462 173.475 135.492C173.525 135.516 173.557 135.57 173.612 135.585C173.843 135.651 174.02 135.836 174.267 135.879C174.395 135.901 174.519 135.931 174.647 135.957C174.749 135.977 174.865 136.055 174.962 136.055" stroke="white" stroke-linecap="round"/>
<path d="M173.494 135.644C173.352 135.644 173.21 135.644 173.068 135.644C172.992 135.644 172.86 135.567 172.794 135.527C172.633 135.429 172.399 135.35 172.399 135.135" stroke="white" stroke-linecap="round"/>
<path d="M173.396 134.607C173.396 134.505 173.397 134.421 173.455 134.333" stroke="white" stroke-linecap="round"/>
<path d="M174.668 135.996C174.821 135.996 174.982 136.016 175.128 136.016C175.227 136.016 175.339 136.086 175.44 136.115C175.526 136.139 175.622 136.205 175.705 136.246C175.796 136.292 175.89 136.343 175.979 136.387" stroke="white" stroke-linecap="round"/>
<path d="M175.177 136.172C175.253 136.241 175.351 136.275 175.422 136.349C175.514 136.444 175.593 136.536 175.655 136.652C175.719 136.771 175.744 136.947 175.779 137.077C175.838 137.296 175.862 137.506 175.862 137.733C175.862 137.863 175.739 137.966 175.645 138.041C175.486 138.167 175.305 138.213 175.128 138.305C174.997 138.373 174.79 138.347 174.644 138.344C174.423 138.339 174.182 138.289 173.964 138.255C173.789 138.227 173.614 138.175 173.445 138.119C173.284 138.065 173.156 138.003 173.029 137.89C172.929 137.8 172.838 137.758 172.723 137.688C172.635 137.636 172.582 137.526 172.497 137.483" stroke="white" stroke-linecap="round"/>
<path d="M172.653 135.605C172.852 135.605 172.957 135.603 173.107 135.737C173.163 135.788 173.237 135.765 173.299 135.796C173.353 135.823 173.434 135.872 173.494 135.879C173.628 135.894 173.755 136.007 173.905 136.016C174.028 136.023 174.147 136.114 174.277 136.114" stroke="white" stroke-linecap="round"/>
<path d="M175.998 136.368C176.277 136.368 176.176 136.633 176.229 136.803C176.256 136.891 176.233 137.02 176.233 137.111C176.233 137.204 176.251 137.317 176.223 137.406C176.16 137.609 176.03 137.775 175.969 137.971C175.936 138.075 175.874 138.134 175.779 138.176C175.723 138.201 175.67 138.281 175.607 138.285C175.542 138.289 175.476 138.285 175.411 138.285" stroke="white" stroke-linecap="round"/>
<path d="M175.803 138.168C175.881 138.168 175.947 138.109 176.008 138.061C176.067 138.016 176.271 137.953 176.291 137.883C176.333 137.734 176.507 137.584 176.507 137.424" stroke="white" stroke-linecap="round"/>
<path d="M175.646 137.209C175.646 137.353 175.52 137.568 175.42 137.668C175.296 137.792 175.129 137.834 174.966 137.879C174.61 137.977 174.206 137.894 173.846 137.894" stroke="white" stroke-linecap="round"/>
<path d="M173.651 137.972C173.484 137.972 173.138 138.002 173.016 137.845C172.963 137.776 173.034 137.527 172.947 137.483" stroke="white" stroke-linecap="round"/>
<path d="M174.519 136.149C174.456 136.149 174.384 136.142 174.323 136.123C174.256 136.102 174.193 136.11 174.126 136.104C173.999 136.091 173.871 136.074 173.748 136.037C173.713 136.027 173.66 136.019 173.629 136.002C173.594 135.982 173.545 135.988 173.508 135.971C173.46 135.95 173.38 135.939 173.345 135.896C173.315 135.859 173.241 135.855 173.201 135.837C173.161 135.819 173.138 135.786 173.106 135.759C173.041 135.706 172.94 135.718 172.864 135.676C172.796 135.638 172.731 135.606 172.663 135.568C172.602 135.534 172.545 135.478 172.502 135.422C172.484 135.398 172.467 135.373 172.453 135.346C172.444 135.331 172.444 135.309 172.428 135.301" stroke="white" stroke-linecap="round"/>
<path d="M172.618 135.498C172.686 135.504 172.759 135.577 172.809 135.617C172.831 135.635 172.875 135.645 172.902 135.657C172.937 135.673 172.971 135.692 173.004 135.71C173.049 135.735 173.095 135.763 173.144 135.778C173.18 135.789 173.217 135.82 173.254 135.824C173.312 135.83 173.376 135.858 173.433 135.873C173.524 135.899 173.619 135.934 173.701 135.983" stroke="white" stroke-linecap="round"/>
<path d="M173.504 136.006C173.472 136.002 173.445 135.975 173.413 135.968C173.377 135.96 173.344 135.939 173.308 135.93C173.234 135.911 173.165 135.876 173.092 135.85C173.028 135.827 172.971 135.789 172.906 135.769C172.833 135.746 172.758 135.718 172.688 135.689C172.613 135.658 172.539 135.63 172.466 135.595C172.426 135.575 172.387 135.55 172.345 135.536" stroke="white" stroke-linecap="round"/>
<path d="M174.103 135.793C174.198 135.796 174.287 135.823 174.379 135.843C174.436 135.855 174.502 135.848 174.56 135.854C174.655 135.862 174.752 135.859 174.845 135.888C174.879 135.899 174.941 135.932 174.977 135.922C174.987 135.919 174.962 135.887 174.983 135.894C175.001 135.898 175.03 135.903 175.042 135.918C175.049 135.927 175.089 135.935 175.101 135.939C175.119 135.945 175.134 135.955 175.152 135.96C175.181 135.969 175.217 135.98 175.243 135.994C175.256 136.001 175.267 136.002 175.28 136.006C175.293 136.009 175.3 136.027 175.315 136.028C175.345 136.03 175.368 136.057 175.398 136.059C175.467 136.062 175.522 136.12 175.58 136.151C175.64 136.183 175.705 136.231 175.76 136.271C175.793 136.294 175.817 136.324 175.845 136.351C175.879 136.382 175.917 136.405 175.944 136.445" stroke="white" stroke-linecap="round"/>
<path d="M174.618 135.793C174.748 135.793 174.866 135.834 174.989 135.869C175.052 135.887 175.108 135.924 175.173 135.939C175.208 135.947 175.243 135.962 175.279 135.969C175.326 135.979 175.385 135.986 175.429 136.005C175.597 136.083 175.77 136.16 175.925 136.263C175.98 136.3 176.035 136.324 176.082 136.371C176.131 136.42 176.185 136.485 176.224 136.543" stroke="white" stroke-linecap="round"/>
</svg>
