<svg width="218" height="143" viewBox="0 0 218 143" fill="none" xmlns="http://www.w3.org/2000/svg">
<path d="M30.5 46.5L32.1739 49.4293C32.3887 49.8053 32.6825 50.1303 33.0349 50.3821L36 52.5L41.5 56.5" stroke="#C45824" stroke-width="1.5"/>
<path d="M30.5 47V44.5C30.5 43.8509 30.7105 43.2193 31.1 42.7L33.3377 39.7164C33.4457 39.5724 33.5405 39.419 33.621 39.258L35.9012 34.6977C35.967 34.5661 36.0424 34.4395 36.1267 34.3189L39.5 29.5L43 24L47 18.5L50.5 13L54 8.5L57.3492 5.15076C57.4496 5.05038 57.5427 4.943 57.6279 4.82944L59.6 2.2C60.1666 1.44458 61.0557 1 62 1H63.5H66.9139C67.6157 1 68.2953 1.24605 68.8344 1.69534L71 3.5L76.5 7L83 11L89.5 15.5L96.5 20.5L104 27L114 34.5L121 39.5L127 43.5L134 48.5L141.5 53.5L148 58.5L154.113 62.2621C154.37 62.4198 154.601 62.6151 154.799 62.8416L160.758 69.6517C161.236 70.1986 161.5 70.9005 161.5 71.6272V72.25M211 142L195.5 141.5L178 140.5L160 139L135 137L120 135.5L103 133.5L93.5 132L87.5 131M211 142V141.5V138V132.5L210.5 125V117V112M211 142L216.204 136.362C216.716 135.808 217 135.081 217 134.327V131V126.5V121.5V114.5V108.5V100.5M87.5 131V132.671C87.5 134.26 86.2619 135.573 84.6762 135.666L79 136H76L71.5 136.5H67L63 137M87.5 131V127.748C87.5 127.583 87.5137 127.418 87.5408 127.255L88.4592 121.745C88.4863 121.582 88.5 121.417 88.5 121.252V114.5V108V96.5M9.5 94.5L10.9124 95.9124C11.2969 96.2969 11.7786 96.5697 12.3061 96.7015L15.5 97.5L19.5 99L22.5 100L27 102L33.5 104L38.5 106L44 108L45.8024 108.801C47.2483 109.444 48.9332 108.7 49.4335 107.199V107.199C49.4778 107.067 49.5116 106.931 49.5346 106.793L49.9592 104.245C49.9863 104.082 50 103.917 50 103.752V100.75M9.5 94.5V92.5V88.5V83.5V78V77.3079C9.5 75.5053 11.3431 74.2899 13 75V75L18.2613 76.9132C18.4202 76.971 18.5836 77.0152 18.7499 77.0454L23.7029 77.946C23.9005 77.9819 24.0939 78.0376 24.2804 78.1122L29 80L34 81.5L38 82.5L42.5 83.5L47.3211 85.107C48.0759 85.3586 48.6999 85.8998 49.0557 86.6115L49.6833 87.8666C49.8916 88.2831 50 88.7425 50 89.2082V92.5V97.5V100.75M9.5 94.5L14.2055 92.1473C14.4012 92.0494 14.6071 91.9732 14.8195 91.9201L18.5 91M18.5 78V81.5V85.5V88.5V91M18.5 91L21.1513 92.0252M21 92L21.1513 92.0252M50 100.75L48.8303 100.165C48.6109 100.055 48.3789 99.9731 48.1395 99.9199L44.3056 99.0679C44.1024 99.0228 43.9045 98.9566 43.715 98.8705L38.8915 96.6779C38.6318 96.5599 38.3567 96.4795 38.0743 96.4392L35.2678 96.0383C35.0896 96.0128 34.9141 95.9714 34.7434 95.9145L30.5 94.5L28.2379 94.0476C28.0796 94.0159 27.924 93.9715 27.7729 93.9148L24.2728 92.6023C24.0914 92.5343 23.9038 92.484 23.7126 92.4521L21.1513 92.0252M63.5 3.5V3.5C63.5 4.42756 63.997 5.28401 64.8024 5.74421L66.7288 6.84502C66.9091 6.94806 67.0782 7.06955 67.2335 7.20752L71.2589 10.7857C71.4192 10.9281 71.5943 11.053 71.7812 11.1582L79.204 15.3335C79.4007 15.4442 79.5843 15.5766 79.7513 15.7284L84.7802 20.3002C84.9264 20.4331 85.0853 20.5512 85.2547 20.6528L92.5 25L100.5 31L109 37.5L117 42.5L123.5 47L129.7 50.8154C129.899 50.938 130.084 51.0836 130.249 51.2491L134.809 55.8087C134.936 55.936 135.074 56.0515 135.222 56.154L141.5 60.5L149.5 65L156 69L161.5 72.25M161.5 72.25V73.456C161.5 73.8157 161.435 74.1725 161.309 74.5094L160.139 77.6306C160.047 77.8758 159.923 78.1079 159.771 78.321L157.5 81.5L153 88L150.5 92M88.5 96.5V94.5V87.5V84.5M88.5 96.5L92.5 94.5L96 92.5L99 90.8333M150.5 92H152L157.5 92.5L167.5 93.5L176.5 94L188 95L198 96L207 96.5L214.851 97.2137C216.459 97.3599 217.511 98.9678 217 100.5V100.5M150.5 92L144 91L135 90H127L119 89L112 88L106.135 87.1621C105.404 87.0577 104.66 87.2264 104.046 87.6358L100.5 90L99 90.8333M89.5 99.5L94.7943 100.944C94.9313 100.981 95.0707 101.009 95.2116 101.026L103 102L109.5 102.5L116 103.5L123 104.5L132.5 105.5L141.5 106L152 107.5L160 108L169 108.5L179.5 110L190 111L202 112H210.5M210.5 112L212.395 108.211C212.465 108.07 212.546 107.936 212.637 107.808L214.79 104.794C214.929 104.599 215.045 104.387 215.134 104.164L215.884 102.29C215.961 102.097 216.058 101.913 216.173 101.74L217 100.5M4 54L7 55L10 56L13.5 57L18.5 58.5L23.5 60L31 62L37.5 63L46 65L54 67L60.1515 68.8928C60.383 68.964 60.605 69.063 60.8127 69.1876L63 70.5M63 70.5H68.5H76L83 70H87.1M63 70.5L63.9417 75.2087C63.9805 75.4024 64 75.5995 64 75.7971V81.5V87.5V94.5V100L63 108V113.5V120.5V126V132V137M87.1 70L86.098 68.7475C85.709 68.2612 85.1783 67.9081 84.5796 67.737L82 67L75 65L66 62.5L58 60.5L51.5 59.5L44 58L37 56L30.7513 55.0387C30.5841 55.0129 30.4193 54.9731 30.2588 54.9196L26.3173 53.6058C26.1064 53.5355 25.8884 53.4888 25.6672 53.4667L21 53H15.5H8H5.31227C5.10544 53 4.89997 53.0333 4.70376 53.0987V53.0987C3.97349 53.3422 3.45855 53.9974 3.39463 54.7645L3 59.5L2 72.5L1.5 83.5L1 97.5V104V107.292C1 107.758 1.10844 108.217 1.31672 108.633L1.68328 109.367C1.89156 109.783 2.19397 110.145 2.56656 110.425L3.78359 111.338C3.92757 111.446 4.08098 111.54 4.24195 111.621L12 115.5L24.5 121.5L34 126L44 131L49.5 133.5L54 135L60.5 136.5L61.5381 136.846C61.844 136.948 62.1644 137 62.4868 137H63M87.1 70V70C87.3625 70.3282 87.5394 70.7165 87.6145 71.13L88.4516 75.7339C88.4838 75.9109 88.5 76.0905 88.5 76.2705V81.5V84.5M88.5 84.5L92.5 87L95 88.5L99 90.8333" stroke="#C45824" stroke-width="1.5"/>
<path d="M59.5 46.5L62 43L66 37L70 31L71.5 28.5M59.5 46.5L66 51L75 57L82 62L88 66.5L95 71.5L104.5 78L114.5 84.5L120.941 88.6408C121.309 88.8774 121.725 89.0306 122.158 89.0898L129 90.0227M59.5 46.5L67.0687 45.1643C67.6749 45.0574 68.2335 44.7665 68.6687 44.3313L69 44M71.5 28.5L85.5 39L99.5 49.5L112.5 59L127.5 69.5L137.382 76.5M71.5 28.5L74.5 36M69 44L70 43L73.591 38.5113C73.8605 38.1744 74.0542 37.7833 74.1588 37.3648L74.5 36M69 44L75 48L82 53L90 59L101 66.5L112.5 74.5L124 82L128.5 85.5M128.5 85.5L129 90.0227M128.5 85.5L131.5 81L133 78.5M129 90.0227L130.514 90.2291C131.716 90.3931 132.899 89.8165 133.51 88.7682L136 84.5L138.27 80.2849C138.972 78.9802 138.592 77.3565 137.382 76.5V76.5M133 78.5L137.382 76.5M133 78.5L122.5 69.5L114.5 64L103 55.5L85.5 43L74.5 36" stroke="#C45824" stroke-width="1.5"/>
<path d="M144.175 128.111L144.202 127.862C144.263 127.313 144.757 126.917 145.306 126.978L145.803 127.033C146.077 127.063 146.275 127.31 146.245 127.585L146.081 129.075L145.916 130.566L145.807 131.56L145.588 133.548L145.533 134.045C145.503 134.32 145.256 134.518 144.981 134.488C144.432 134.427 144.036 133.933 144.097 133.384L144.206 132.39L144.316 131.396L144.426 130.402L144.535 129.408L144.617 128.663C144.632 128.525 144.533 128.402 144.396 128.387C144.259 128.372 144.16 128.248 144.175 128.111Z" stroke="#C45824" stroke-width="0.4"/>
<path d="M156.843 129.083L156.202 129.001C156.008 128.976 155.831 129.112 155.806 129.306C155.794 129.399 155.819 129.493 155.877 129.567L156.003 129.731C156.142 129.91 156.203 130.137 156.174 130.362L156.156 130.507C156.114 130.833 156.148 131.164 156.257 131.475L156.296 131.586C156.404 131.897 156.439 132.228 156.397 132.554L156.372 132.744C156.346 132.945 156.368 133.15 156.435 133.342L156.537 133.634C156.638 133.923 156.893 134.131 157.197 134.17L157.693 134.233L157.883 134.258C158.052 134.279 158.171 134.434 158.15 134.604C158.135 134.72 158.056 134.817 157.945 134.856L157.362 135.06C157.17 135.127 156.965 135.148 156.763 135.122L156.574 135.098L156.078 135.034C155.804 134.999 155.554 135.192 155.518 135.466L155.455 135.962C155.419 136.236 155.613 136.487 155.887 136.522L156.879 136.649C157.514 136.731 158.155 136.557 158.662 136.165L158.99 135.912C159.348 135.635 159.582 135.228 159.64 134.779L159.671 134.532C159.717 134.177 159.845 133.837 160.044 133.54L160.364 133.064L160.592 132.724C160.852 132.337 161.018 131.896 161.078 131.434L161.115 131.144L161.16 130.789C161.172 130.697 161.206 130.608 161.258 130.53L161.523 130.135C161.651 129.945 161.534 129.686 161.306 129.656L160.314 129.529C160.04 129.494 159.79 129.687 159.754 129.961L159.698 130.399C159.651 130.763 159.52 131.112 159.315 131.417L159.206 131.58C159.073 131.778 158.988 132.004 158.957 132.241L158.889 132.77C158.881 132.836 158.847 132.896 158.794 132.936L158.677 133.027C158.544 133.13 158.353 133.02 158.375 132.853C158.378 132.824 158.375 132.795 158.366 132.767L158.177 132.226C158.068 131.915 158.034 131.584 158.076 131.258L158.094 131.113C158.123 130.888 158.062 130.661 157.923 130.482C157.785 130.303 157.723 130.076 157.752 129.852L157.771 129.706C157.806 129.432 157.612 129.182 157.339 129.147L156.843 129.083Z" stroke="#C45824" stroke-width="0.4"/>
<path d="M170.895 134.955L170.395 134.955C170.119 134.955 169.895 135.179 169.895 135.455C169.895 135.776 170.022 136.083 170.249 136.309L170.395 136.455C170.715 136.776 171.149 136.955 171.602 136.955L171.895 136.955L172.895 136.955L173.086 136.955C173.289 136.955 173.49 136.908 173.671 136.817L174.127 136.589C174.291 136.507 174.395 136.34 174.395 136.156C174.395 136.028 174.446 135.904 174.537 135.814L174.645 135.705C174.805 135.545 174.895 135.328 174.895 135.102L174.895 134.955L174.895 134.809C174.895 134.583 174.805 134.366 174.645 134.205C174.485 134.045 174.268 133.955 174.041 133.955L173.895 133.955L173.749 133.955C173.522 133.955 173.305 133.866 173.145 133.705C172.985 133.545 172.768 133.455 172.541 133.455L172.395 133.455L172.102 133.455C171.97 133.455 171.842 133.403 171.749 133.309C171.553 133.114 171.553 132.797 171.749 132.602C171.842 132.508 171.97 132.455 172.102 132.455L172.395 132.455L172.541 132.455C172.768 132.455 172.985 132.545 173.145 132.705C173.305 132.866 173.522 132.955 173.749 132.955L173.895 132.955L174.395 132.955L174.541 132.955C174.737 132.955 174.895 132.797 174.895 132.602C174.895 132.508 174.858 132.418 174.791 132.352L174.395 131.955L173.895 131.455L173.749 131.309C173.522 131.083 173.215 130.955 172.895 130.955L172.558 130.955C172.122 130.955 171.692 131.057 171.302 131.252C171.033 131.387 170.786 131.564 170.573 131.778L170.395 131.955L170.249 132.102C170.022 132.328 169.895 132.635 169.895 132.955L169.895 133.102C169.895 133.328 169.985 133.545 170.145 133.705C170.305 133.866 170.522 133.955 170.749 133.955L170.895 133.955L171.041 133.955C171.268 133.955 171.485 134.045 171.645 134.205C171.805 134.366 172.022 134.455 172.249 134.455L172.395 134.455L172.688 134.455C172.821 134.455 172.948 134.508 173.041 134.602C173.237 134.797 173.237 135.114 173.041 135.309C172.948 135.403 172.821 135.455 172.688 135.455L172.395 135.455L171.645 135.455C171.507 135.455 171.395 135.344 171.395 135.205C171.395 135.067 171.283 134.955 171.145 134.955L170.895 134.955Z" stroke="#C45824" stroke-width="0.4"/>
<path d="M123.395 128.955L123.445 128.805M123.445 128.805L123.859 127.565C123.883 127.492 123.912 127.421 123.947 127.352L124.31 126.626C124.362 126.522 124.469 126.455 124.586 126.455V126.455C124.757 126.455 124.895 126.594 124.895 126.764L124.895 127.163C124.895 127.35 124.97 127.53 125.102 127.663L125.188 127.748C125.321 127.881 125.395 128.061 125.395 128.248V128.248C125.395 128.639 125.078 128.955 124.688 128.955L124.468 128.955C124.419 128.955 124.371 128.952 124.323 128.944L123.445 128.805ZM121.395 130.455L121.211 131.007C121.056 131.473 121.403 131.955 121.895 131.955V131.955L122.041 131.955C122.237 131.955 122.395 131.797 122.395 131.602V131.602C122.395 131.508 122.432 131.418 122.499 131.352L122.791 131.059C122.858 130.993 122.895 130.903 122.895 130.809V130.809C122.895 130.614 123.053 130.455 123.249 130.455L123.395 130.455L124.395 130.455L125.395 130.455V130.455C125.671 130.455 125.895 130.679 125.895 130.955V130.955L125.895 131.102C125.895 131.328 125.985 131.545 126.145 131.705V131.705C126.305 131.866 126.522 131.955 126.749 131.955L126.895 131.955L127.395 131.955L127.895 131.955V131.955C128.125 131.955 128.274 131.714 128.171 131.508L127.959 131.083C127.917 130.999 127.895 130.907 127.895 130.813L127.895 130.455C127.895 130.127 127.818 129.802 127.671 129.508L127.395 128.955L127.119 128.403C126.972 128.109 126.895 127.784 126.895 127.455V127.455C126.895 127.127 126.818 126.802 126.671 126.508L126.395 125.955L126.342 125.85C126.068 125.302 125.508 124.955 124.895 124.955V124.955L123.895 124.955V124.955C123.589 124.955 123.308 125.129 123.171 125.403L122.947 125.852C122.912 125.921 122.883 125.992 122.859 126.065L122.395 127.455L121.895 128.955L121.395 130.455Z" stroke="#C45824" stroke-width="0.4"/>
<path d="M129.895 127.955L129.895 127.455C129.895 127.179 130.119 126.955 130.395 126.955L130.895 126.955C131.171 126.955 131.395 127.179 131.395 127.455L131.395 128.455C131.395 128.135 131.522 127.828 131.749 127.602L131.895 127.455L132.041 127.309C132.268 127.083 132.575 126.955 132.895 126.955C133.224 126.955 133.548 127.032 133.842 127.179L134.039 127.277C134.275 127.395 134.49 127.55 134.677 127.737L134.688 127.748C135.141 128.201 135.395 128.815 135.395 129.455L135.395 130.455L135.395 131.455L135.395 131.646C135.395 132.142 135.115 132.596 134.671 132.817L134.566 132.87C134.454 132.926 134.33 132.955 134.204 132.955C133.757 132.955 133.395 132.593 133.395 132.146L133.395 131.955L133.395 130.955L133.395 129.955L133.395 129.573C133.395 129.195 133.181 128.848 132.842 128.679C132.561 128.538 132.229 128.538 131.948 128.679C131.609 128.848 131.395 129.195 131.395 129.573L131.395 129.955L131.395 130.955L131.395 131.955C131.395 132.232 131.171 132.455 130.895 132.455L130.395 132.455C130.119 132.455 129.895 132.232 129.895 131.955L129.895 131.455L129.895 130.455L129.895 129.455L129.895 127.955Z" stroke="#C45824" stroke-width="0.4"/>
<path d="M167.059 133.101L166.793 133.081C166.554 133.064 166.375 132.857 166.392 132.619C166.404 132.455 166.322 132.299 166.181 132.216L165.924 132.063C165.802 131.99 165.665 131.947 165.523 131.937L165.395 131.928C165.168 131.911 164.943 131.986 164.771 132.135C164.702 132.195 164.642 132.267 164.595 132.346L164.503 132.5C164.348 132.763 164.255 133.058 164.233 133.362L164.191 133.946L164.181 134.08C164.156 134.426 164.329 134.757 164.628 134.934C164.75 135.006 164.888 135.049 165.029 135.06L165.067 135.062C165.352 135.083 165.633 134.989 165.849 134.803L165.886 134.771L166.26 134.447C166.5 134.239 166.812 134.135 167.128 134.158L167.333 134.173L168.031 134.223C168.224 134.237 168.369 134.405 168.355 134.598C168.338 134.827 168.269 135.05 168.151 135.248L168.093 135.346C167.985 135.527 167.849 135.69 167.689 135.828L167.339 136.131C167.234 136.222 167.121 136.302 167.001 136.37L166.637 136.577C166.277 136.781 165.864 136.874 165.45 136.845L165.037 136.815L164.624 136.785C164.21 136.755 163.815 136.604 163.487 136.349L163.325 136.223C163.105 136.053 162.922 135.841 162.785 135.6L162.509 135.113C162.417 134.95 162.347 134.776 162.301 134.595L162.181 134.126C162.125 133.907 162.105 133.681 162.121 133.456L162.147 133.088C162.164 132.863 162.216 132.642 162.303 132.433L162.539 131.864C162.577 131.772 162.622 131.683 162.673 131.598L162.711 131.533C162.898 131.218 163.163 130.958 163.481 130.778L164.094 130.43L164.359 130.321C164.66 130.196 164.986 130.144 165.311 130.167L165.864 130.207L166.044 130.22C166.599 130.26 167.116 130.519 167.481 130.94L167.559 131.031L167.999 131.539C168.137 131.698 168.248 131.879 168.329 132.074L168.455 132.379C168.488 132.461 168.503 132.549 168.496 132.636C168.474 132.948 168.203 133.183 167.891 133.161L167.757 133.151L167.059 133.101Z" stroke="#C45824" stroke-width="0.4"/>
<path d="M148.294 127.332L148.397 127.224C148.507 127.109 148.663 127.05 148.821 127.064L149.09 127.087C149.235 127.1 149.367 127.178 149.449 127.3C149.51 127.391 149.538 127.5 149.528 127.609L149.508 127.842C149.495 127.988 149.455 128.13 149.389 128.261L149.277 128.482C149.217 128.6 149.121 128.696 149.004 128.756C148.792 128.864 148.538 128.841 148.348 128.699L148.287 128.653C148.22 128.603 148.161 128.54 148.114 128.471C148.017 128.325 147.971 128.149 147.986 127.975L147.99 127.933C148.007 127.731 148.093 127.542 148.233 127.396L148.294 127.332Z" stroke="#C45824" stroke-width="0.4"/>
<path d="M147.328 129.757L147.36 129.384C147.372 129.246 147.494 129.144 147.632 129.156L147.882 129.178L148.381 129.221L148.631 129.243L149.131 129.286L149.319 129.303C149.491 129.318 149.618 129.469 149.603 129.641L149.549 130.264L149.522 130.575L149.468 131.198L149.387 132.131L149.306 133.065L149.252 133.688L149.197 134.31L149.165 134.683C149.153 134.821 149.031 134.923 148.893 134.911L148.394 134.868L147.894 134.824C147.756 134.812 147.654 134.691 147.666 134.553L147.699 134.18L147.753 133.557L147.807 132.935L147.834 132.624L147.888 132.001L147.942 131.379L147.975 131.006C147.987 130.868 147.884 130.746 147.746 130.734L147.497 130.713C147.359 130.701 147.257 130.579 147.269 130.441L147.274 130.38L147.328 129.757Z" stroke="#C45824" stroke-width="0.4"/>
<path d="M151.651 127.754L151.685 127.405C151.703 127.213 151.874 127.072 152.067 127.091L152.415 127.125L152.764 127.158L153.112 127.192C153.304 127.211 153.445 127.382 153.426 127.575L153.393 127.923L153.359 128.271L153.325 128.62C153.306 128.812 153.447 128.983 153.639 129.002L154.336 129.069L154.684 129.103C154.877 129.122 155.018 129.293 154.999 129.485L154.931 130.182C154.913 130.375 154.742 130.515 154.549 130.497L154.201 130.463L153.852 130.429L153.504 130.395C153.312 130.377 153.141 130.517 153.122 130.71L153.054 131.406L152.953 132.452L152.909 132.902C152.894 133.06 152.942 133.217 153.042 133.339C153.143 133.462 153.288 133.539 153.446 133.554L153.896 133.598L153.998 133.608C154.156 133.623 154.301 133.701 154.402 133.823C154.503 133.945 154.551 134.103 154.535 134.261L154.491 134.711L154.458 135.059C154.439 135.252 154.268 135.392 154.075 135.374L153.727 135.34L153.03 135.272L152.795 135.249C152.492 135.22 152.199 135.12 151.941 134.958C151.762 134.846 151.602 134.705 151.468 134.542L151.356 134.406C151.155 134.162 151.059 133.847 151.09 133.532L151.109 133.327L151.177 132.631L151.245 131.934L151.312 131.237L151.356 130.787C151.371 130.629 151.323 130.472 151.223 130.349C151.122 130.227 150.977 130.15 150.819 130.134L150.717 130.125C150.525 130.106 150.384 129.935 150.403 129.742L150.436 129.394L150.47 129.046C150.489 128.853 150.66 128.712 150.853 128.731L151.201 128.765C151.393 128.784 151.564 128.643 151.583 128.45L151.651 127.754Z" stroke="#C45824" stroke-width="0.42"/>
<path d="M139.355 127.163L138.755 127.086C138.553 127.06 138.368 127.202 138.342 127.405L138.248 128.137L138.242 128.181C138.219 128.359 138.344 128.522 138.522 128.545L138.844 128.586L139.488 128.669L139.809 128.711L140.09 128.747C140.321 128.777 140.528 128.905 140.658 129.098L140.686 129.14C140.714 129.181 140.735 129.225 140.749 129.273L140.864 129.664C140.907 129.811 140.785 129.953 140.633 129.934L140.311 129.892L139.346 129.768C139.135 129.74 138.92 129.769 138.724 129.849L138.333 130.009L137.782 130.235C137.689 130.273 137.604 130.326 137.528 130.392C137.364 130.537 137.258 130.737 137.229 130.954L137.179 131.349L137.143 131.621C137.104 131.925 137.129 132.233 137.215 132.527L137.245 132.629C137.289 132.779 137.356 132.921 137.443 133.051C137.538 133.191 137.655 133.315 137.79 133.417L137.817 133.437C138.057 133.617 138.338 133.732 138.635 133.771L138.826 133.795L139.141 133.836C139.356 133.864 139.575 133.835 139.776 133.753C140.026 133.65 140.236 133.471 140.375 133.24L140.563 132.928C140.572 132.912 140.584 132.898 140.597 132.887C140.719 132.78 140.907 132.88 140.887 133.041L140.851 133.312L140.804 133.678L140.799 133.723C140.776 133.9 140.901 134.063 141.079 134.086L141.722 134.169C141.9 134.192 142.063 134.067 142.086 133.889L142.092 133.845L142.139 133.478L142.233 132.746L142.375 131.648L142.517 130.549L142.556 130.244C142.593 129.961 142.589 129.674 142.544 129.392L142.475 128.953C142.446 128.771 142.378 128.598 142.275 128.445C142.197 128.329 142.1 128.226 141.988 128.142L141.746 127.96C141.622 127.867 141.492 127.783 141.355 127.71L141.127 127.588C140.806 127.417 140.457 127.305 140.097 127.259L139.998 127.246L139.355 127.163Z" stroke="#C45824" stroke-width="0.4"/>
<path d="M140.491 131.032L140.511 131.035C140.678 131.056 140.796 131.209 140.774 131.377C140.769 131.418 140.755 131.459 140.733 131.495L140.526 131.838C140.409 132.032 140.263 132.207 140.093 132.357L139.981 132.455C139.766 132.644 139.448 132.657 139.219 132.484L139.117 132.408C139.05 132.357 138.991 132.295 138.944 132.225L138.844 132.076C138.777 131.978 138.749 131.858 138.764 131.74C138.779 131.622 138.837 131.514 138.926 131.435L139.157 131.232L139.282 131.122C139.437 130.986 139.643 130.923 139.848 130.949L140.491 131.032Z" stroke="#C45824" stroke-width="0.4"/>
<path d="M129.258 110.945L129.306 110.447C129.333 110.172 129.577 109.971 129.852 109.998L130.35 110.046L130.847 110.095L131.345 110.143C131.62 110.17 131.821 110.414 131.794 110.689L131.746 111.187L131.698 111.684L131.649 112.182C131.623 112.457 131.824 112.701 132.099 112.728L133.094 112.825L133.592 112.873C133.866 112.9 134.068 113.144 134.041 113.419L133.944 114.414C133.917 114.689 133.673 114.89 133.398 114.864L132.901 114.815L132.403 114.767L131.905 114.719C131.63 114.692 131.386 114.893 131.359 115.168L131.263 116.163L131.118 117.656L131.055 118.3C131.033 118.525 131.102 118.75 131.245 118.924C131.389 119.099 131.597 119.21 131.822 119.232L132.465 119.294L132.611 119.308C132.837 119.33 133.044 119.441 133.188 119.615C133.332 119.79 133.4 120.015 133.378 120.24L133.316 120.884L133.267 121.381C133.241 121.656 132.996 121.857 132.721 121.831L132.224 121.782L131.228 121.686L130.893 121.653C130.459 121.611 130.041 121.468 129.672 121.237C129.416 121.076 129.188 120.876 128.997 120.643L128.837 120.449C128.549 120.099 128.412 119.65 128.456 119.199L128.484 118.907L128.581 117.912L128.678 116.917L128.774 115.921L128.837 115.278C128.859 115.053 128.79 114.828 128.646 114.653C128.502 114.478 128.295 114.368 128.07 114.346L127.924 114.332C127.649 114.305 127.448 114.061 127.475 113.786L127.523 113.288L127.571 112.791C127.598 112.516 127.842 112.314 128.117 112.341L128.615 112.39C128.89 112.416 129.134 112.215 129.161 111.94L129.258 110.945Z" stroke="#C45824" stroke-width="0.8"/>
<path d="M120.838 110.65L119.846 110.522C119.572 110.486 119.322 110.68 119.286 110.953L119.158 111.945C119.123 112.219 119.316 112.47 119.59 112.505L120.086 112.569L121.078 112.697L121.574 112.761L122.061 112.824C122.384 112.866 122.677 113.034 122.876 113.291L122.935 113.368C122.976 113.422 123.009 113.482 123.031 113.545L123.201 114.033C123.276 114.25 123.097 114.47 122.869 114.441L122.373 114.377L120.886 114.185C120.56 114.143 120.228 114.177 119.918 114.285L119.334 114.489L118.466 114.791C118.342 114.834 118.225 114.898 118.121 114.978C117.863 115.177 117.695 115.47 117.653 115.792L117.59 116.28L117.547 116.615C117.491 117.047 117.537 117.486 117.68 117.898L117.714 117.994C117.791 118.215 117.903 118.422 118.046 118.608C118.189 118.793 118.361 118.954 118.555 119.085L118.64 119.142C119.002 119.385 119.415 119.541 119.847 119.596L120.182 119.64L120.714 119.708C121.016 119.747 121.323 119.715 121.611 119.615C122.012 119.475 122.357 119.209 122.594 118.857L122.828 118.509C122.845 118.484 122.865 118.463 122.888 118.445C123.082 118.295 123.359 118.455 123.328 118.697L123.285 119.032L123.221 119.528C123.186 119.802 123.379 120.052 123.653 120.088L124.645 120.216C124.919 120.251 125.169 120.058 125.205 119.784L125.269 119.288L125.397 118.296L125.589 116.808L125.781 115.321L125.846 114.812C125.888 114.492 125.877 114.168 125.815 113.851L125.685 113.189C125.632 112.918 125.517 112.664 125.349 112.445C125.232 112.294 125.092 112.163 124.934 112.057L124.422 111.712C124.304 111.633 124.181 111.563 124.053 111.501L123.26 111.117C122.969 110.977 122.658 110.885 122.339 110.843L121.83 110.778L120.838 110.65Z" stroke="#C45824" stroke-width="0.8"/>
<path d="M122.677 115.929L122.772 115.941C122.993 115.969 123.15 116.172 123.121 116.394C123.113 116.456 123.091 116.516 123.056 116.568L122.739 117.038C122.571 117.289 122.363 117.51 122.125 117.694L121.925 117.848C121.591 118.106 121.129 118.121 120.779 117.885L120.603 117.767C120.493 117.694 120.397 117.603 120.316 117.498L120.158 117.294C120.061 117.167 120.017 117.007 120.038 116.848C120.058 116.689 120.141 116.545 120.268 116.448L120.63 116.168L120.794 116.042C121.047 115.846 121.368 115.76 121.685 115.801L122.677 115.929Z" stroke="#C45824" stroke-width="0.8"/>
<path d="M138.381 114.125L137.389 113.997C137.115 113.961 136.865 114.155 136.829 114.428L136.701 115.42C136.666 115.694 136.859 115.945 137.133 115.98L137.629 116.044L138.621 116.172L139.117 116.236L139.605 116.299C139.927 116.341 140.22 116.509 140.419 116.766L140.478 116.843C140.519 116.897 140.552 116.957 140.574 117.02L140.744 117.508C140.819 117.725 140.64 117.945 140.412 117.916L139.917 117.852L138.429 117.66C138.103 117.618 137.771 117.652 137.461 117.76L136.877 117.964L136.009 118.266C135.885 118.309 135.768 118.373 135.664 118.453C135.406 118.652 135.238 118.945 135.197 119.267L135.134 119.755L135.09 120.09C135.035 120.522 135.08 120.961 135.224 121.373L135.257 121.469C135.334 121.69 135.446 121.897 135.589 122.083C135.732 122.268 135.904 122.429 136.099 122.56L136.183 122.617C136.545 122.86 136.958 123.016 137.39 123.071L137.725 123.115L138.257 123.183C138.559 123.222 138.867 123.19 139.154 123.09C139.556 122.95 139.901 122.684 140.138 122.332L140.371 121.984C140.388 121.959 140.408 121.938 140.432 121.92C140.625 121.77 140.903 121.93 140.871 122.172L140.828 122.507L140.764 123.003C140.729 123.277 140.922 123.527 141.196 123.563L142.188 123.691C142.462 123.726 142.712 123.533 142.748 123.259L142.812 122.763L142.94 121.771L143.132 120.283L143.324 118.796L143.389 118.287C143.431 117.967 143.42 117.643 143.358 117.326L143.228 116.664C143.175 116.393 143.06 116.139 142.892 115.92C142.775 115.769 142.635 115.638 142.477 115.532L141.965 115.187C141.847 115.108 141.724 115.037 141.596 114.976L140.803 114.592C140.513 114.452 140.202 114.36 139.882 114.318L139.373 114.253L138.381 114.125Z" stroke="#C45824" stroke-width="0.8"/>
<path d="M140.22 119.404L140.315 119.416C140.537 119.444 140.693 119.647 140.665 119.869C140.656 119.931 140.634 119.991 140.599 120.043L140.283 120.513C140.114 120.764 139.907 120.985 139.668 121.169L139.468 121.323C139.134 121.581 138.672 121.596 138.322 121.36L138.146 121.242C138.037 121.169 137.94 121.078 137.859 120.973L137.702 120.769C137.604 120.642 137.56 120.482 137.581 120.323C137.601 120.164 137.684 120.02 137.811 119.923L138.173 119.643L138.337 119.517C138.59 119.321 138.911 119.235 139.229 119.276L140.22 119.404Z" stroke="#C45824" stroke-width="0.8"/>
<path d="M106.315 115.424L106.189 116.416C106.085 117.238 106.666 117.989 107.488 118.093L108.48 118.219L109.968 118.408L110.973 118.536C111.293 118.577 111.617 118.566 111.934 118.503L112.312 118.428C112.769 118.338 113.199 118.142 113.567 117.857L114.125 117.424L114.858 116.857C115.113 116.659 115.335 116.422 115.514 116.154L115.865 115.629L116.093 115.289C116.352 114.902 116.518 114.46 116.577 113.998L116.613 113.708L116.739 112.716L116.776 112.427C116.835 111.965 116.785 111.495 116.631 111.056L116.495 110.669L116.287 110.074C116.18 109.769 116.025 109.484 115.827 109.229L115.558 108.881C115.36 108.626 115.123 108.405 114.855 108.225L114.508 107.993C114.39 107.914 114.266 107.843 114.138 107.782L112.905 107.189L111.919 106.715C111.628 106.575 111.317 106.483 110.997 106.443L109.992 106.315L108.504 106.126C107.956 106.056 107.456 106.444 107.386 106.992L107.134 108.976L106.882 110.96L106.63 112.944L106.315 115.424Z" stroke="#C45824" stroke-width="0.8"/>
<path d="M185.332 116.745V115.745C185.332 115.469 185.556 115.245 185.832 115.245H186.832C187.384 115.245 187.832 115.692 187.832 116.245V116.745V117.745V119.745V120.745V121.318C187.832 121.744 188.28 122.021 188.661 121.83C188.772 121.775 188.862 121.685 188.917 121.574L189.332 120.745L189.614 120.18C189.759 119.892 189.948 119.629 190.176 119.401L190.832 118.745C191.152 118.425 191.586 118.245 192.039 118.245H192.332H193.332C193.701 118.245 193.886 118.691 193.625 118.952L193.371 119.205C193.345 119.232 193.322 119.26 193.301 119.291L192.481 120.522C192.382 120.67 192.269 120.808 192.143 120.934L191.977 121.099C191.881 121.196 191.801 121.307 191.74 121.429L191.61 121.689C191.444 122.021 191.509 122.422 191.772 122.684C191.812 122.725 191.848 122.769 191.879 122.816L192.832 124.245L193.114 124.809C193.259 125.098 193.448 125.361 193.676 125.589L194.26 126.173C194.308 126.22 194.347 126.276 194.378 126.336L194.608 126.798C194.711 127.003 194.562 127.245 194.332 127.245H192.832H192.539C192.086 127.245 191.652 127.065 191.332 126.745L190.676 126.089C190.448 125.861 190.259 125.598 190.114 125.309L189.99 125.061C189.885 124.852 189.748 124.66 189.582 124.495C189.416 124.329 189.279 124.138 189.174 123.929L188.876 123.333C188.847 123.275 188.808 123.221 188.762 123.175L188.686 123.098C188.49 122.903 188.174 122.903 187.978 123.098C187.885 123.192 187.832 123.319 187.832 123.452V124.245V126.245C187.832 126.797 187.384 127.245 186.832 127.245H186.186C185.959 127.245 185.742 127.155 185.582 126.995C185.422 126.835 185.332 126.618 185.332 126.391V124.745V122.745V121.245V119.245V117.745V116.745Z" stroke="#C45824" stroke-width="0.8"/>
<path d="M181.379 121.426L180.998 121.399C180.658 121.374 180.402 121.079 180.426 120.738C180.443 120.505 180.327 120.282 180.125 120.162L179.758 119.944C179.583 119.841 179.387 119.779 179.184 119.764L179.002 119.751C178.677 119.728 178.357 119.834 178.111 120.047C178.011 120.133 177.926 120.235 177.859 120.349L177.728 120.569C177.505 120.944 177.373 121.365 177.342 121.8L177.282 122.635L177.268 122.825C177.232 123.32 177.479 123.792 177.906 124.045C178.08 124.149 178.277 124.211 178.48 124.225L178.533 124.229C178.94 124.258 179.342 124.125 179.65 123.858L179.703 123.812L180.238 123.349C180.58 123.053 181.026 122.905 181.478 122.937L181.77 122.959L182.768 123.03C183.043 123.05 183.25 123.29 183.23 123.565C183.207 123.893 183.107 124.211 182.939 124.494L182.856 124.634C182.702 124.893 182.507 125.126 182.279 125.323L181.779 125.756C181.63 125.886 181.468 126 181.296 126.097L180.776 126.392C180.261 126.684 179.671 126.818 179.08 126.775L178.49 126.732L177.9 126.69C177.309 126.647 176.744 126.431 176.277 126.068L176.044 125.887C175.731 125.644 175.469 125.342 175.274 124.997L174.879 124.301C174.747 124.069 174.647 123.82 174.581 123.562L174.41 122.891C174.33 122.579 174.301 122.255 174.325 121.934L174.362 121.409C174.386 121.087 174.46 120.771 174.584 120.474L174.922 119.66C174.977 119.529 175.04 119.402 175.113 119.28L175.168 119.187C175.434 118.738 175.813 118.366 176.268 118.108L177.143 117.612L177.521 117.456C177.952 117.278 178.418 117.203 178.882 117.236L179.672 117.293L179.929 117.312C180.722 117.369 181.461 117.739 181.981 118.34L182.094 118.47L182.721 119.195C182.919 119.423 183.078 119.682 183.193 119.961L183.373 120.396C183.421 120.512 183.441 120.638 183.432 120.763C183.4 121.209 183.013 121.544 182.567 121.512L182.377 121.498L181.379 121.426Z" stroke="#C45824" stroke-width="0.8"/>
<path d="M170.333 113.701L170.491 113.568C170.736 113.362 171.053 113.262 171.372 113.29L172.016 113.346C172.242 113.365 172.45 113.474 172.596 113.647C172.741 113.821 172.812 114.045 172.793 114.27L172.768 114.552C172.747 114.79 172.672 115.02 172.547 115.224L172.386 115.486C172.234 115.733 172.006 115.925 171.736 116.032C171.343 116.187 170.901 116.149 170.541 115.928L170.329 115.798C170.217 115.729 170.116 115.642 170.031 115.541L170.026 115.535C169.82 115.29 169.72 114.973 169.748 114.654C169.776 114.335 169.929 114.041 170.174 113.835L170.333 113.701Z" stroke="#C45824" stroke-width="0.8"/>
<path d="M168.492 117.556L168.535 117.058C168.559 116.783 168.802 116.58 169.077 116.604L169.575 116.647L170.571 116.733L171.069 116.777L172.065 116.863L172.563 116.907C172.839 116.931 173.042 117.173 173.018 117.448L172.932 118.444L172.888 118.942L172.802 119.939L172.672 121.433L172.542 122.927L172.455 123.924L172.369 124.92L172.325 125.418C172.302 125.693 172.059 125.897 171.784 125.873L170.788 125.786L169.792 125.7C169.516 125.676 169.313 125.433 169.337 125.158L169.38 124.66L169.467 123.664L169.553 122.668L169.597 122.169L169.683 121.173L169.77 120.177L169.813 119.679C169.837 119.404 169.633 119.161 169.358 119.137L168.86 119.094C168.585 119.07 168.381 118.828 168.405 118.553L168.492 117.556Z" stroke="#C45824" stroke-width="0.8"/>
<path d="M150.537 114.496L150.622 112.998C150.653 112.447 151.125 112.025 151.677 112.057L152.675 112.113L154.173 112.198L155.67 112.283L156.183 112.312C156.505 112.33 156.821 112.4 157.121 112.519L157.48 112.662C157.913 112.834 158.299 113.104 158.61 113.451L158.777 113.638C158.977 113.863 159.141 114.119 159.26 114.396C159.433 114.796 159.51 115.231 159.485 115.666L159.475 115.841C159.451 116.276 159.325 116.699 159.108 117.077L158.926 117.395C158.897 117.446 158.86 117.493 158.816 117.532L158.145 118.13C158.028 118.235 158.096 118.43 158.253 118.438C158.3 118.441 158.344 118.462 158.375 118.497L158.797 118.97C159.099 119.308 159.254 119.751 159.228 120.204L159.212 120.496L159.155 121.494L159.128 121.977C159.091 122.627 158.798 123.235 158.312 123.669C158.116 123.844 157.892 123.987 157.65 124.091L157.597 124.114C157.197 124.287 156.762 124.364 156.327 124.339L155.99 124.32L154.493 124.235L152.496 124.122L150.998 124.037C150.447 124.006 150.025 123.534 150.056 122.982L150.141 121.485L150.254 119.488L150.339 117.99L150.424 116.493L150.48 115.494L150.537 114.496Z" stroke="#C45824" stroke-width="0.8"/>
<path d="M161.554 117.556L161.59 117.057C161.629 116.506 162.108 116.092 162.659 116.131V116.131V116.131C163.209 116.171 163.624 116.649 163.584 117.2V117.2L163.513 118.198L163.405 119.694L163.406 119.681C163.429 119.359 163.504 119.043 163.628 118.745L163.776 118.389C163.954 117.959 164.231 117.576 164.583 117.271L164.772 117.107C165 116.909 165.258 116.75 165.537 116.635L165.973 116.455C166.089 116.407 166.215 116.386 166.34 116.395V116.395C166.786 116.427 167.121 116.814 167.089 117.26L167.075 117.451L167.055 117.736C167.007 118.405 166.426 118.908 165.758 118.86V118.86C165.57 118.846 165.381 118.877 165.207 118.949L165.044 119.016C164.651 119.179 164.322 119.464 164.105 119.829V119.829C163.949 120.092 163.857 120.386 163.835 120.691L163.761 121.724L163.689 122.722L163.582 124.218L163.546 124.717C163.526 124.992 163.287 125.199 163.012 125.18V125.18L162.014 125.108L161.516 125.072C161.24 125.052 161.033 124.813 161.053 124.538V124.538L161.16 123.041L161.232 122.044L161.375 120.049L161.482 118.553L161.554 117.556Z" stroke="#C45824" stroke-width="0.8"/>
<path d="M151.849 113.037C151.849 113.729 151.78 114.409 151.711 115.096C151.683 115.373 151.606 115.629 151.559 115.9C151.42 116.687 151.456 117.467 151.445 118.263C151.442 118.432 151.394 118.597 151.385 118.768C151.374 119.006 151.335 119.245 151.307 119.482C151.274 119.759 151.305 120.02 151.259 120.292C151.221 120.511 151.153 120.729 151.127 120.949C151.09 121.267 151.069 121.567 151.069 121.888C151.069 122.029 151.034 122.214 151.105 122.333C151.162 122.431 151.371 122.535 151.474 122.564C151.601 122.601 151.683 122.68 151.822 122.68C152.031 122.68 152.24 122.68 152.449 122.68C152.731 122.68 152.949 122.781 153.22 122.823C153.376 122.847 153.524 122.882 153.682 122.882C153.742 122.882 153.932 122.92 153.957 122.969" stroke="#C45824" stroke-width="2" stroke-linecap="round"/>
<path d="M151.704 123.084C151.953 123.102 152.174 123.229 152.426 123.229" stroke="#C45824" stroke-width="2" stroke-linecap="round"/>
<path d="M154.794 123.286C155.268 123.286 155.816 123.364 156.279 123.251C156.615 123.169 156.877 123.162 157.091 122.852C157.412 122.384 157.623 121.913 157.623 121.337C157.623 120.89 157.516 120.469 157.341 120.059C157.232 119.805 156.989 119.392 157.039 119.106C157.079 118.886 157.043 118.63 157.046 118.407C157.049 118.166 157.147 117.928 157.248 117.712C157.324 117.549 157.336 117.352 157.435 117.198C157.481 117.127 157.474 117.225 157.495 117.204C157.57 117.129 157.601 117.012 157.665 116.928C157.822 116.723 157.952 116.508 157.971 116.253C157.988 116.027 158.012 115.811 158.069 115.592C158.117 115.405 158.201 115.166 158.201 114.971C158.201 114.877 158.209 114.776 158.199 114.682C158.184 114.544 158.099 114.49 157.997 114.405C157.832 114.266 157.674 114.112 157.514 113.967C157.306 113.778 157.039 113.789 156.808 113.643C156.675 113.559 156.493 113.5 156.346 113.441C156.142 113.359 155.894 113.181 155.673 113.181C154.815 113.181 153.968 113.008 153.113 113.008C152.997 113.008 152.922 112.983 152.866 113.095C152.806 113.214 152.704 113.282 152.615 113.37C152.523 113.463 152.399 113.583 152.34 113.701" stroke="#C45824" stroke-width="2" stroke-linecap="round"/>
<path d="M157.335 114.249C157.102 114.275 157.13 115.113 157.168 115.276C157.253 115.65 157.366 116.154 157.097 116.473C156.827 116.793 156.487 117.07 156.231 117.39C156.153 117.488 156.121 117.617 156.006 117.7C155.962 117.732 155.674 117.858 155.804 117.858" stroke="#C45824" stroke-width="2" stroke-linecap="round"/>
<path d="M156.324 118.522C155.948 118.522 155.574 118.494 155.198 118.494C154.891 118.494 154.594 118.426 154.288 118.409C153.899 118.386 153.521 118.415 153.135 118.336C152.974 118.303 152.776 118.266 152.628 118.192C152.576 118.166 152.539 118.118 152.484 118.118" stroke="#C45824" stroke-width="2" stroke-linecap="round"/>
<path d="M152.282 115C152.282 115.556 152.2 116.11 152.173 116.665C152.154 117.037 152.069 117.378 152.028 117.743C151.97 118.262 151.928 118.77 151.842 119.286C151.753 119.822 151.647 120.378 151.444 120.884C151.39 121.02 151.271 121.179 151.271 121.323" stroke="#C45824" stroke-width="2" stroke-linecap="round"/>
<path d="M155.862 122.738C156.142 122.738 156.366 122.536 156.629 122.536C156.791 122.536 156.953 122.507 157.118 122.507C157.206 122.507 157.314 122.524 157.399 122.5C157.514 122.467 157.64 122.42 157.761 122.42C157.899 122.42 157.82 122.313 157.784 122.35C157.68 122.454 157.583 122.613 157.45 122.68" stroke="#C45824" stroke-width="2" stroke-linecap="round"/>
<path d="M157.97 122.103C157.97 121.737 157.941 121.372 157.941 121.005C157.941 120.77 157.895 120.504 157.809 120.284C157.709 120.027 157.565 119.6 157.277 119.504" stroke="#C45824" stroke-width="2" stroke-linecap="round"/>
<path d="M152.022 121.554C152.022 121.217 152.051 120.875 152.051 120.543" stroke="#C45824" stroke-width="2" stroke-linecap="round"/>
<path d="M162.502 117.079C162.502 118.415 162.084 119.711 162.069 121.05C162.067 121.288 162.069 121.525 162.069 121.763C162.069 121.879 162.095 122.024 162.047 122.131C162.007 122.222 162.027 122.354 161.999 122.452C161.925 122.709 161.86 122.945 161.824 123.211C161.796 123.421 161.781 123.607 161.781 123.82C161.781 123.896 161.761 124.005 161.782 124.079C161.785 124.087 161.879 124.037 161.911 124.037C162.04 124.037 162.133 123.967 162.257 124.066C162.288 124.091 162.243 124.429 162.243 124.326" stroke="#C45824" stroke-width="2" stroke-linecap="round"/>
<path d="M162.733 122.334C162.751 121.862 163.224 121.517 163.224 121.041C163.224 120.807 163.282 120.604 163.282 120.37" stroke="#C45824" stroke-width="2" stroke-linecap="round"/>
<path d="M163.888 119.244C163.888 118.777 164.273 118.328 164.588 118.009C164.699 117.897 164.889 117.667 165.058 117.629C165.276 117.58 165.442 117.396 165.678 117.396C165.717 117.396 165.873 117.373 165.903 117.403C165.944 117.444 165.842 117.553 165.823 117.586C165.744 117.723 165.559 117.875 165.419 117.945" stroke="#C45824" stroke-width="2" stroke-linecap="round"/>
<path d="M171.395 114.336C171.395 114.437 171.362 114.548 171.424 114.408C171.47 114.305 171.482 114.511 171.482 114.538" stroke="#C45824" stroke-width="2" stroke-linecap="round"/>
<path d="M169.201 117.483C169.57 117.483 169.936 117.477 170.299 117.513C170.552 117.539 170.795 117.623 171.047 117.656C171.281 117.687 171.493 117.845 171.709 117.929C171.83 117.976 171.828 118.043 171.828 118.165C171.828 118.594 171.505 118.987 171.382 119.389C171.27 119.754 171.208 120.244 171.324 120.616C171.383 120.802 171.483 120.994 171.61 121.143C171.711 121.261 171.799 121.358 171.799 121.158C171.799 120.83 171.787 120.461 171.892 120.146C171.905 120.108 171.982 119.846 171.931 119.828C171.851 119.8 171.518 120.561 171.501 120.598C171.219 121.201 170.926 121.806 170.708 122.436C170.521 122.976 170.614 123.552 170.564 124.111C170.548 124.287 170.558 124.466 170.558 124.643C170.558 124.756 170.483 124.759 170.587 124.759C170.683 124.759 170.779 124.759 170.875 124.759C170.948 124.759 171.055 124.737 171.121 124.773C171.168 124.8 171.158 124.747 171.193 124.73" stroke="#C45824" stroke-width="2" stroke-linecap="round"/>
<path d="M169.172 118.147C169.462 118.147 169.732 118.138 169.996 118.263C170.134 118.327 170.134 118.376 170.213 118.494C170.287 118.605 170.442 118.723 170.442 118.869" stroke="#C45824" stroke-width="2" stroke-linecap="round"/>
<path d="M170.587 120.11V120.197" stroke="#C45824" stroke-width="2" stroke-linecap="round"/>
<path d="M170.818 120.861C170.818 121.004 170.751 121.121 170.673 121.236" stroke="#C45824" stroke-width="2" stroke-linecap="round"/>
<path d="M170.847 122.536C170.847 122.694 170.85 122.86 170.816 123.012C170.781 123.171 170.731 123.29 170.731 123.459C170.731 123.614 170.668 123.776 170.704 123.936C170.72 124.01 170.789 124.088 170.789 124.164C170.789 124.235 170.789 124.021 170.789 123.95C170.789 123.775 170.711 123.601 170.702 123.431C170.687 123.149 170.702 122.863 170.702 122.581C170.702 122.491 170.699 122.401 170.702 122.311C170.705 122.224 170.744 121.942 170.795 121.878C170.828 121.837 170.872 121.752 170.875 121.698C170.877 121.666 170.932 121.571 170.927 121.576C170.847 121.656 170.875 121.891 170.875 122.001C170.875 122.209 170.897 122.416 170.904 122.616C170.913 122.844 170.933 123.069 170.933 123.301C170.933 123.505 170.89 123.66 170.848 123.849C170.831 123.928 170.789 124.01 170.766 124.095C170.746 124.171 170.702 124.383 170.702 124.188C170.702 123.958 170.744 123.757 170.802 123.535C170.825 123.444 170.845 123.294 170.89 123.214C170.985 123.043 170.978 122.782 171.106 122.622C171.198 122.507 171.272 122.348 171.337 122.218" stroke="#C45824" stroke-width="2" stroke-linecap="round"/>
<path d="M182.275 120.366C181.937 120.366 181.694 120.259 181.382 120.17C181.227 120.126 181.304 120.044 181.247 119.93C181.146 119.728 180.86 119.489 180.698 119.328C180.538 119.167 180.24 119.086 180.047 118.962C179.547 118.641 179.117 118.671 178.546 118.671C178.167 118.671 177.799 118.882 177.459 119.032C177.293 119.105 177.057 119.139 177.045 119.349C177.04 119.43 176.963 119.499 176.927 119.567C176.854 119.701 176.823 119.87 176.754 120.011C176.555 120.425 176.409 120.941 176.27 121.383C176.04 122.116 175.786 122.927 175.786 123.697C175.786 124.049 175.877 124.265 176.232 124.396C176.554 124.515 176.868 124.669 177.19 124.794C177.271 124.826 177.356 124.836 177.432 124.881C177.509 124.926 177.446 125.012 177.551 125.015C177.97 125.027 178.265 125.129 178.659 125.279C178.833 125.345 179.039 125.441 179.224 125.451C179.721 125.478 180.21 125.26 180.618 124.988C180.902 124.799 181.198 124.559 181.462 124.348C181.618 124.223 182.162 123.968 181.984 124.057C181.663 124.218 181.282 124.138 180.967 124.278C180.751 124.374 180.347 124.301 180.155 124.493C180.086 124.562 180.412 124.435 180.416 124.434C180.796 124.317 181.16 124.157 181.538 124.036C181.783 123.957 181.892 123.804 182.178 123.804" stroke="#C45824" stroke-width="2" stroke-linecap="round"/>
<path d="M177.19 124.24C177.167 124.028 176.897 123.639 176.781 123.455C176.684 123.3 176.633 123.172 176.501 123.04C176.357 122.896 176.238 122.722 176.136 122.545C176.071 122.434 175.974 122.319 175.861 122.255C175.796 122.218 175.834 121.976 175.834 121.916C175.834 121.43 175.845 120.927 176.125 120.522C176.406 120.116 176.687 119.677 176.9 119.252" stroke="#C45824" stroke-width="2" stroke-linecap="round"/>
<path d="M176.949 118.536C177.117 118.536 177.256 118.531 177.405 118.446C177.661 118.301 177.899 118.266 178.183 118.212C178.406 118.169 178.624 118.14 178.849 118.099C179.28 118.02 179.767 118.01 180.179 118.128C180.254 118.15 180.343 118.156 180.421 118.173C180.52 118.195 180.583 118.289 180.675 118.324C180.818 118.379 180.909 118.496 181.05 118.536C181.406 118.638 181.627 119.068 181.943 119.226" stroke="#C45824" stroke-width="2" stroke-linecap="round"/>
<path d="M186.368 116.06C186.368 116.501 186.409 116.947 186.409 117.379C186.409 117.586 186.344 117.769 186.307 117.972C186.192 118.61 186.084 119.244 186.084 119.894C186.084 120.742 186.081 121.573 186.226 122.411C186.259 122.605 186.246 122.805 186.246 123.002C186.246 123.14 186.318 123.075 186.325 123.108C186.35 123.22 186.294 123.499 186.266 123.609C186.222 123.785 186.246 123.989 186.246 124.17C186.246 124.484 186.246 124.799 186.246 125.113C186.246 125.401 186.165 125.675 186.165 125.966C186.165 126.026 186.495 126.227 186.562 126.159C186.571 126.151 186.611 125.973 186.612 125.957C186.621 125.708 186.671 125.469 186.69 125.221C186.715 124.913 186.693 124.592 186.693 124.283C186.693 123.265 186.814 122.27 186.814 121.254C186.814 120.282 186.774 119.3 186.774 118.333" stroke="#C45824" stroke-width="2" stroke-linecap="round"/>
<path d="M187.789 122.393C188.172 122.393 188.564 122.374 188.926 122.352C188.971 122.35 189.008 122.285 189.047 122.262C189.123 122.218 189.176 122.214 189.25 122.181C189.393 122.118 189.581 122.149 189.737 122.149" stroke="#C45824" stroke-width="2" stroke-linecap="round"/>
<path d="M190.225 121.744C190.225 121.058 190.753 120.494 191.208 120.029C191.399 119.834 191.547 119.543 191.788 119.409C191.95 119.319 192.149 119.295 192.297 119.184C192.44 119.077 192.593 118.976 192.742 118.902" stroke="#C45824" stroke-width="2" stroke-linecap="round"/>
<path d="M189.453 122.799C189.453 123.138 189.735 123.384 189.85 123.683C189.915 123.85 190.044 123.958 190.166 124.08C190.353 124.267 190.526 124.491 190.599 124.748C190.655 124.942 190.774 125.137 190.865 125.316C190.932 125.447 191.069 125.569 191.118 125.704C191.413 126.517 192.41 126.396 193.067 126.615" stroke="#C45824" stroke-width="2" stroke-linecap="round"/>
<path d="M193.716 126.575C193.479 126.575 193.265 126.453 193.026 126.453" stroke="#C45824" stroke-width="2" stroke-linecap="round"/>
<path d="M190.103 121.865C190.103 122.257 190.509 122.534 190.509 122.921" stroke="#C45824" stroke-width="2" stroke-linecap="round"/>
<path d="M190.103 122.555C190.103 122.744 190.214 123.039 190.297 123.205C190.394 123.399 190.604 123.682 190.631 123.895C190.642 123.985 190.671 124.072 190.671 124.179C190.671 124.285 190.741 124.333 190.752 124.423C190.757 124.461 190.842 124.607 190.865 124.635C190.887 124.662 190.91 124.873 190.915 124.91C190.936 125.078 191.239 125.223 191.352 125.325C191.482 125.442 191.632 125.508 191.758 125.609C192.034 125.83 192.46 126.048 192.782 126.209" stroke="#C45824" stroke-width="2" stroke-linecap="round"/>
<path d="M137.609 114.668C137.839 114.668 138.072 114.657 138.302 114.67C138.483 114.68 138.671 114.767 138.846 114.767C139.334 114.767 139.863 114.87 140.329 115.014C140.464 115.056 140.574 115.144 140.703 115.188C140.844 115.237 141.001 115.239 141.139 115.302C141.35 115.398 141.726 115.49 141.807 115.731C141.89 115.982 141.838 116.285 141.867 116.548C141.904 116.88 141.981 117.207 142.08 117.524C142.288 118.196 142.228 118.885 142.228 119.584" stroke="#C45824" stroke-width="2" stroke-linecap="round"/>
<path d="M137.279 115.295C137.444 115.295 137.609 115.295 137.774 115.295C138.017 115.295 138.212 115.36 138.448 115.392C138.82 115.441 139.238 115.465 139.588 115.608C139.805 115.697 140.002 115.75 140.199 115.887C140.352 115.993 140.513 116.093 140.67 116.193C140.797 116.274 141.011 116.38 141.106 116.499C141.149 116.553 141.177 116.617 141.238 116.648" stroke="#C45824" stroke-width="2" stroke-linecap="round"/>
<path d="M141.271 117.835C141.271 117.967 141.305 118.057 141.345 118.173C141.399 118.33 141.418 118.5 141.469 118.66C141.493 118.735 141.564 118.85 141.568 118.924C141.573 119.008 141.64 119.107 141.675 119.188C141.77 119.416 141.766 119.665 141.766 119.907C141.766 120.19 141.675 120.588 141.543 120.838C141.428 121.054 141.37 121.246 141.37 121.498" stroke="#C45824" stroke-width="2" stroke-linecap="round"/>
<path d="M141.931 120.607C141.931 120.877 141.931 121.146 141.931 121.415C141.931 121.527 141.988 121.842 141.882 121.927C141.791 121.999 141.838 122.154 141.792 122.257C141.732 122.391 141.732 122.422 141.865 122.422" stroke="#C45824" stroke-width="2" stroke-linecap="round"/>
<path d="M141.106 118.495C139.806 118.495 138.463 118.303 137.196 118.693C136.915 118.78 136.642 118.891 136.369 118.99C136.218 119.045 136.211 119.175 136.116 119.28C136.009 119.399 135.948 119.57 135.843 119.698C135.744 119.819 135.728 119.963 135.728 120.112" stroke="#C45824" stroke-width="2" stroke-linecap="round"/>
<path d="M135.794 121.135C135.794 121.336 136.133 121.522 136.289 121.604C136.627 121.784 136.89 121.93 137.264 122.026C137.566 122.104 138.029 122.261 138.334 122.132C138.461 122.079 138.9 122.148 138.961 122.026" stroke="#C45824" stroke-width="2" stroke-linecap="round"/>
<path d="M140.116 121.465C140.335 121.443 140.512 121.168 140.71 121.168" stroke="#C45824" stroke-width="2" stroke-linecap="round"/>
<path d="M135.893 119.221C135.893 119.488 135.86 119.756 135.86 120.03C135.86 120.139 135.92 120.275 135.926 120.376C135.934 120.507 135.926 120.641 135.926 120.772C135.926 120.89 135.902 121.037 135.928 121.152C135.936 121.191 136.127 121.329 136.173 121.366C136.263 121.438 136.321 121.564 136.421 121.623C136.509 121.675 136.595 121.717 136.685 121.762" stroke="#C45824" stroke-width="2" stroke-linecap="round"/>
<path d="M129.953 110.576C129.953 110.879 130.005 111.239 129.946 111.54C129.91 111.724 129.886 111.955 129.814 112.127C129.788 112.189 129.782 112.166 129.79 112.111C129.808 111.994 129.875 111.848 129.926 111.744C130.064 111.46 130.317 111.205 130.529 110.974C130.604 110.892 130.628 110.917 130.611 111.025C130.584 111.202 130.514 111.353 130.514 111.535C130.514 111.863 130.454 112.195 130.448 112.523C130.44 112.976 130.379 113.435 130.342 113.887C130.303 114.358 130.307 114.845 130.217 115.309C130.119 115.815 130.114 116.332 129.97 116.829C129.906 117.049 129.889 117.282 129.838 117.505C129.806 117.647 129.755 117.824 129.755 117.967C129.755 118.149 129.638 118.19 129.592 118.349C129.552 118.489 129.59 118.697 129.59 118.842C129.59 118.992 129.557 119.16 129.557 119.32C129.557 119.458 129.626 119.624 129.715 119.724C129.825 119.845 129.959 120.049 130.102 120.129C130.44 120.317 130.794 120.475 131.167 120.6C131.362 120.665 131.665 120.607 131.865 120.607C132.003 120.607 132.213 120.585 132.329 120.508" stroke="#C45824" stroke-width="2" stroke-linecap="round"/>
<path d="M132.593 121.036C132.528 121.028 132.464 120.892 132.428 120.838" stroke="#C45824" stroke-width="2" stroke-linecap="round"/>
<path d="M128.205 113.051C128.601 113.051 129.006 113.038 129.392 113.084C129.453 113.091 129.413 113.15 129.4 113.183C129.38 113.231 129.482 113.21 129.506 113.234C129.557 113.286 129.624 113.349 129.656 113.414" stroke="#C45824" stroke-width="2" stroke-linecap="round"/>
<path d="M131.141 113.513C131.691 113.513 132.241 113.513 132.791 113.513C132.915 113.513 133.187 113.602 133.187 113.744" stroke="#C45824" stroke-width="2" stroke-linecap="round"/>
<path d="M128.997 113.084C129.204 113.084 129.406 113.104 129.574 113.234C129.682 113.318 129.829 113.447 129.97 113.447C130.327 113.447 130.745 113.85 130.745 114.206" stroke="#C45824" stroke-width="2" stroke-linecap="round"/>
<path d="M129.788 113.249C130.054 113.297 130.077 113.573 130.225 113.737C130.321 113.844 130.415 113.992 130.415 114.14" stroke="#C45824" stroke-width="2" stroke-linecap="round"/>
<path d="M129.162 113.018C129.499 113.052 129.669 113.503 129.822 113.737C129.955 113.941 130.053 114.003 130.053 114.272C130.053 114.448 130.053 114.624 130.053 114.8" stroke="#C45824" stroke-width="2" stroke-linecap="round"/>
<path d="M120.087 111.368C120.521 111.368 120.911 111.377 121.334 111.46C121.503 111.493 121.674 111.503 121.844 111.533C122.127 111.583 122.379 111.696 122.654 111.777C123.033 111.889 123.425 112.03 123.779 112.208C123.848 112.242 124.169 112.343 124.179 112.424C124.184 112.467 124.241 112.515 124.26 112.558C124.306 112.663 124.336 112.784 124.377 112.893C124.472 113.146 124.565 113.392 124.674 113.641C124.792 113.911 125.031 114.161 125.099 114.45C125.214 114.936 124.931 115.411 124.725 115.823C124.648 115.976 124.695 116.152 124.648 116.31C124.603 116.463 124.641 116.688 124.641 116.845C124.641 117.155 124.66 117.462 124.593 117.766C124.557 117.931 124.542 118.08 124.542 118.248C124.542 118.491 124.443 118.74 124.443 118.99" stroke="#C45824" stroke-width="2" stroke-linecap="round"/>
<path d="M123.42 114.932C122.455 114.932 121.474 114.81 120.533 115.014C120.179 115.091 119.816 115.203 119.486 115.342C119.262 115.437 118.998 115.646 118.848 115.839C118.788 115.916 118.767 116.054 118.9 116.054" stroke="#C45824" stroke-width="2" stroke-linecap="round"/>
<path d="M118.405 116.879C118.405 117.357 118.943 117.946 119.328 118.173C119.389 118.209 119.423 118.288 119.493 118.323C119.58 118.367 119.721 118.363 119.816 118.363C120.036 118.363 120.243 118.462 120.45 118.462" stroke="#C45824" stroke-width="2" stroke-linecap="round"/>
<path d="M121.572 118.693C122.111 118.693 122.305 118.499 122.645 118.132C123.02 117.728 123.537 117.404 123.783 116.911" stroke="#C45824" stroke-width="2" stroke-linecap="round"/>
<path d="M124.08 116.087C124.08 115.935 124.028 115.687 124.113 115.559" stroke="#C45824" stroke-width="2" stroke-linecap="round"/>
<path d="M124.113 117.934C124.113 118.234 124.178 118.597 124.047 118.858" stroke="#C45824" stroke-width="2" stroke-linecap="round"/>
<path d="M108.308 107.276C108.308 107.982 108.419 108.79 108.216 109.476C107.973 110.297 107.845 111.149 107.754 111.999C107.713 112.379 107.678 112.759 107.622 113.139C107.537 113.719 107.521 114.309 107.442 114.891C107.422 115.047 107.417 115.197 107.417 115.353C107.417 115.539 107.618 115.621 107.747 115.757C107.851 115.867 107.805 116.042 107.838 116.186C107.923 116.543 107.978 116.874 107.978 117.241" stroke="#C45824" stroke-width="2" stroke-linecap="round"/>
<path d="M107.846 113.843C107.846 113.933 107.84 114.023 107.864 114.11C107.896 114.228 107.877 114.396 107.93 114.503C108.026 114.694 108.186 114.836 108.275 115.031C108.48 115.481 108.242 115.991 108.242 116.451C108.242 116.632 108.266 116.769 108.333 116.937C108.363 117.012 108.359 117.187 108.44 117.234C108.511 117.276 108.573 117.331 108.645 117.373C108.8 117.464 109.096 117.406 109.265 117.406C109.568 117.406 109.867 117.414 110.166 117.357C110.448 117.303 110.708 117.222 110.997 117.21C111.381 117.195 111.767 117.208 112.152 117.208C112.387 117.208 112.548 117.041 112.704 116.886C112.902 116.687 113.112 116.478 113.356 116.334C113.504 116.247 113.659 116.149 113.818 116.087C113.892 116.058 114.023 116.012 114.075 115.947C114.149 115.855 114.043 115.589 114.016 115.507C113.845 114.985 114.263 114.745 114.429 114.321C114.495 114.15 114.598 114.03 114.636 113.85C114.671 113.68 114.709 113.557 114.709 113.381" stroke="#C45824" stroke-width="2" stroke-linecap="round"/>
<path d="M114.379 114.965C114.379 114.788 114.744 114.526 114.867 114.418C114.975 114.324 115.095 114.234 115.187 114.121C115.237 114.06 115.303 114.015 115.303 113.934C115.303 113.839 115.305 113.713 115.352 113.628C115.477 113.404 115.517 113.09 115.6 112.846C115.689 112.584 115.759 112.182 115.732 111.896C115.713 111.701 115.49 111.436 115.395 111.273C115.186 110.914 114.942 110.577 114.742 110.213C114.546 109.857 114.275 109.424 113.948 109.174C113.756 109.027 113.596 108.844 113.406 108.695C113.19 108.527 113.69 108.654 113.778 108.688C113.925 108.745 113.986 108.94 114.115 109.025" stroke="#C45824" stroke-width="2" stroke-linecap="round"/>
<path d="M115.567 112.622C115.531 112.427 115.298 112.265 115.173 112.127C115.073 112.017 115.004 111.896 114.94 111.764C114.873 111.626 114.919 111.451 114.881 111.302C114.78 110.907 114.384 110.713 114.115 110.444" stroke="#C45824" stroke-width="2" stroke-linecap="round"/>
<path d="M108.671 111.203C108.671 111.56 108.579 111.882 108.539 112.226C108.535 112.26 108.491 112.301 108.473 112.332C108.421 112.422 108.397 112.553 108.359 112.651C108.33 112.727 108.305 112.91 108.249 112.959C108.223 112.983 108.246 112.219 108.26 112.14C108.395 111.368 108.666 110.628 108.942 109.898C109.052 109.608 109.131 109.259 109.265 108.992" stroke="#C45824" stroke-width="2" stroke-linecap="round"/>
<path d="M109.429 108.926C109.628 108.926 109.824 108.8 110.011 108.743C110.263 108.666 110.506 108.555 110.757 108.472C111.003 108.389 111.319 108.398 111.576 108.398C111.84 108.398 112.168 108.357 112.417 108.464C112.533 108.514 112.601 108.567 112.68 108.629C112.761 108.694 112.836 108.816 112.912 108.893C113.044 109.025 113.212 109.23 113.389 109.289" stroke="#C45824" stroke-width="2" stroke-linecap="round"/>
<path d="M108.869 106.914C109.11 106.914 109.379 106.884 109.613 106.947C109.961 107.039 110.309 107.14 110.656 107.227C110.969 107.305 111.28 107.356 111.582 107.474C111.713 107.526 111.807 107.546 111.912 107.632C111.979 107.687 112.085 107.744 112.168 107.771" stroke="#C45824" stroke-width="2" stroke-linecap="round"/>
<path d="M109.255 116.519C109.526 116.519 109.818 116.572 110.062 116.572" stroke="#C45824" stroke-width="2" stroke-linecap="round"/>
<path d="M122.656 129.48C122.656 129.257 122.673 128.982 122.812 128.798" stroke="#C45824" stroke-linecap="round"/>
<path d="M122.812 128.643C122.812 128.315 122.966 127.947 123.098 127.65C123.283 127.233 123.542 126.827 123.726 126.396C123.786 126.258 123.856 126.132 123.935 126.007C123.963 125.962 124.055 125.978 123.99 126.014C123.866 126.082 123.748 126.186 123.649 126.286C123.539 126.395 123.41 126.48 123.301 126.589C123.157 126.732 123.359 126.325 123.383 126.279C123.514 126.037 123.62 125.694 123.819 125.495C123.921 125.394 124.191 125.449 124.324 125.449C124.48 125.449 125.063 125.363 125.168 125.495C125.202 125.537 125.268 125.549 125.308 125.588C125.373 125.654 125.444 125.735 125.516 125.79C125.648 125.89 125.718 126.06 125.835 126.177C125.955 126.297 125.949 126.494 126.006 126.651C126.05 126.772 126.107 126.904 126.13 127.03C126.153 127.158 126.24 127.277 126.254 127.402C126.266 127.524 126.366 127.702 126.409 127.819C126.456 127.95 126.519 128.085 126.571 128.208C126.692 128.498 126.756 128.836 126.843 129.139C126.876 129.256 126.951 129.372 127.005 129.48C127.074 129.618 127.091 129.752 127.124 129.898C127.144 129.992 127.183 130.107 127.222 130.193C127.283 130.332 127.275 130.486 127.332 130.627C127.407 130.814 127.335 131.133 127.456 131.285C127.478 131.313 127.572 131.545 127.554 131.482C127.545 131.448 127.04 131.437 126.996 131.432C126.92 131.422 126.6 131.338 126.595 131.247C126.583 131.033 126.475 130.871 126.44 130.656C126.392 130.373 126.316 130.07 126.316 129.783C126.316 129.642 126.314 129.446 126.254 129.325" stroke="#C45824" stroke-linecap="round"/>
<path d="M121.726 131.278C121.726 130.921 121.84 130.629 121.959 130.3C122.064 130.006 122.25 129.706 122.317 129.402C122.356 129.225 122.485 129.052 122.556 128.891C122.63 128.725 122.692 128.536 122.749 128.363" stroke="#C45824" stroke-linecap="round"/>
<path d="M122.005 131.464C122.005 131.278 122.121 131.171 122.205 131.015C122.255 130.923 122.29 130.776 122.353 130.696C122.44 130.588 122.523 130.372 122.564 130.239C122.615 130.072 122.739 129.929 122.781 129.761C122.806 129.66 122.911 129.503 122.974 129.425C123.063 129.313 123.1 129.325 123.247 129.325C123.514 129.325 123.682 129.363 123.928 129.449C124.132 129.519 124.248 129.573 124.462 129.573C124.765 129.573 125.065 129.525 125.372 129.543C125.601 129.557 125.74 129.706 125.913 129.814C126.063 129.908 125.791 129.914 125.742 129.914C125.537 129.914 125.331 129.914 125.125 129.914C124.585 129.914 124.066 129.759 123.525 129.759C123.384 129.759 123.29 129.697 123.153 129.766C123.085 129.8 122.865 129.807 122.843 129.852" stroke="#C45824" stroke-linecap="round"/>
<path d="M123.401 127.805C123.401 128.052 123.404 128.302 123.283 128.519C123.159 128.742 123.105 128.998 123.066 129.249C123.057 129.31 122.97 129.847 123.059 129.852C123.254 129.863 123.453 129.852 123.649 129.852" stroke="#C45824" stroke-linecap="round"/>
<path d="M126.006 129.449C126.006 129.171 126.008 128.85 126.143 128.599C126.21 128.476 126.256 128.312 126.216 128.17C126.16 127.976 126.12 127.783 126.023 127.604C125.971 127.508 125.965 127.38 125.919 127.278C125.895 127.223 125.833 127.131 125.821 127.076C125.682 126.45 125.175 125.852 124.517 125.852" stroke="#C45824" stroke-linecap="round"/>
<path d="M125.199 126.844C125.199 127.107 125.277 127.214 125.44 127.378C125.579 127.517 125.654 127.8 125.664 127.991C125.67 128.089 125.725 128.163 125.757 128.253C125.8 128.369 125.816 128.49 125.844 128.612C125.898 128.848 125.79 129.004 125.571 129.077" stroke="#C45824" stroke-linecap="round"/>
<path d="M130.533 127.371C130.533 128.128 130.489 128.872 130.447 129.628C130.415 130.193 130.363 130.76 130.318 131.323C130.31 131.425 130.285 131.517 130.285 131.619C130.285 131.654 130.285 131.787 130.285 131.681" stroke="#C45824" stroke-linecap="round"/>
<path d="M130.719 132.116C130.719 131.717 130.731 131.319 130.819 130.93C130.892 130.608 130.936 130.339 130.936 130.007C130.936 129.821 130.936 129.635 130.936 129.449C130.936 129.021 131.122 128.602 131.122 128.177C131.122 128.043 131.087 127.982 131.036 127.867C130.998 127.782 130.993 127.601 130.905 127.557" stroke="#C45824" stroke-linecap="round"/>
<path d="M131.215 128.519C131.233 128.363 131.634 128.168 131.76 128.108C131.902 128.041 132.033 127.96 132.192 127.96C132.354 127.96 132.52 127.898 132.68 127.898C132.838 127.898 132.996 127.898 133.153 127.898C133.334 127.898 133.434 127.943 133.586 128.04C133.756 128.148 133.924 128.25 134.068 128.394C134.407 128.734 134.585 129.256 134.633 129.721C134.695 130.313 134.657 130.928 134.657 131.523C134.657 131.755 134.74 132.17 134.62 132.364C134.562 132.456 134.249 132.426 134.146 132.426C134.063 132.426 134.043 132.324 134.018 132.264C133.925 132.036 133.82 131.778 133.82 131.528C133.82 131.185 133.789 130.848 133.789 130.503C133.789 130.338 133.758 130.175 133.758 130.007C133.758 129.8 133.652 129.644 133.603 129.451C133.583 129.371 133.588 129.295 133.57 129.216C133.562 129.178 133.541 129 133.541 129.108" stroke="#C45824" stroke-linecap="round"/>
<path d="M133.014 128.301C133.174 128.301 133.324 128.295 133.479 128.339C133.552 128.36 133.755 128.45 133.789 128.519" stroke="#C45824" stroke-linecap="round"/>
<path d="M133.014 128.022C133.126 128.01 133.217 127.898 133.324 127.898C133.438 127.898 133.551 127.898 133.665 127.898C133.832 127.898 134.026 127.975 134.154 128.091C134.297 128.219 134.387 128.423 134.409 128.612C134.428 128.774 134.626 128.92 134.626 129.092C134.626 129.199 134.688 129.293 134.688 129.402C134.688 129.495 134.688 129.588 134.688 129.681C134.688 129.888 134.688 130.095 134.688 130.302C134.688 130.495 134.648 130.734 134.69 130.922C134.743 131.161 134.767 131.507 134.688 131.744" stroke="#C45824" stroke-linecap="round"/>
<path d="M134.223 128.673C134.254 128.67 134.679 128.399 134.688 128.549C134.704 128.813 134.831 129.022 134.952 129.263C135.237 129.834 134.874 130.334 134.874 130.906" stroke="#C45824" stroke-linecap="round"/>
<path d="M131.835 128.053C131.916 128.053 131.988 128.012 132.066 127.99C132.09 127.983 132.26 127.895 132.27 127.883C132.318 127.822 132.681 127.836 132.766 127.836C132.86 127.836 132.94 127.805 133.029 127.805C133.117 127.805 133.204 127.836 133.277 127.836C133.431 127.836 133.713 127.871 133.789 128.022" stroke="#C45824" stroke-linecap="round"/>
<path d="M132.27 127.929C132.27 127.775 132.699 127.65 132.828 127.65C132.939 127.65 132.976 127.762 133.076 127.774C133.199 127.789 133.243 127.83 133.293 127.929" stroke="#C45824" stroke-linecap="round"/>
<path d="M138.751 127.619C138.964 127.619 139.188 127.6 139.4 127.621C139.521 127.633 139.617 127.721 139.729 127.741C139.912 127.775 140.077 127.936 140.225 128.046C140.374 128.157 140.531 128.205 140.711 128.246C140.927 128.295 141.102 128.451 141.247 128.596C141.396 128.744 141.459 129.112 141.524 129.307C141.618 129.588 141.635 129.913 141.635 130.207C141.635 130.624 141.612 131.048 141.635 131.464C141.653 131.792 141.715 132.183 141.573 132.503C141.484 132.703 141.449 132.823 141.449 133.046C141.449 133.274 141.387 133.956 141.387 133.728" stroke="#C45824" stroke-linecap="round"/>
<path d="M139.774 127.681C140.123 127.681 140.378 127.715 140.706 127.838C140.974 127.938 140.985 128.329 141.154 128.536C141.328 128.748 141.381 129.088 141.486 129.325C141.595 129.57 141.573 129.923 141.573 130.193" stroke="#C45824" stroke-linecap="round"/>
<path d="M138.689 128.146C139.356 128.146 140.019 128.11 140.642 128.387C140.824 128.468 141.027 128.48 141.17 128.658C141.26 128.771 141.542 128.941 141.542 129.077" stroke="#C45824" stroke-linecap="round"/>
<path d="M137.882 130.782C138.04 130.782 138.138 130.681 138.279 130.634C138.401 130.593 138.533 130.588 138.656 130.55C138.978 130.449 139.306 130.348 139.65 130.348C139.919 130.348 140.189 130.348 140.458 130.348C140.612 130.348 140.767 130.348 140.921 130.348C141.031 130.348 141.127 130.41 141.231 130.41" stroke="#C45824" stroke-linecap="round"/>
<path d="M140.952 130.565C140.952 130.963 141.2 131.277 141.2 131.666C141.2 131.967 141.259 132.282 140.921 132.395" stroke="#C45824" stroke-linecap="round"/>
<path d="M137.572 130.844C137.572 131.134 137.572 131.423 137.572 131.713C137.572 131.979 137.538 132.314 137.71 132.534C137.754 132.59 137.809 132.636 137.851 132.689C137.886 132.733 138.003 132.724 138.053 132.751C138.114 132.785 138.277 132.795 138.317 132.844C138.37 132.911 138.461 132.943 138.534 132.977C138.726 133.068 138.889 133.039 139.092 133.084C139.219 133.112 139.333 133.146 139.464 133.139C139.605 133.131 139.747 133.012 139.883 132.982C140.169 132.919 140.26 132.508 140.487 132.395" stroke="#C45824" stroke-linecap="round"/>
<path d="M138.658 130.813C138.635 131.198 138.348 131.553 138.348 131.945C138.348 132.286 138.365 132.442 138.689 132.55" stroke="#C45824" stroke-linecap="round"/>
<path d="M138.534 130.72C138.828 130.72 139.127 130.564 139.402 130.472" stroke="#C45824" stroke-linecap="round"/>
<path d="M141.107 129.17C141.107 129.315 141.183 129.485 141.262 129.604" stroke="#C45824" stroke-linecap="round"/>
<path d="M141.821 129.387C141.821 129.482 141.853 129.599 141.898 129.681C141.941 129.759 141.914 129.904 141.914 129.991C141.914 130.198 141.914 130.405 141.914 130.612C141.914 130.845 141.79 131.072 141.79 131.309C141.79 131.518 141.697 132.139 141.697 131.93" stroke="#C45824" stroke-linecap="round"/>
<path d="M140.952 128.115C141.01 128.123 141.061 128.506 141.154 128.581C141.289 128.689 141.324 128.872 141.464 128.984C141.59 129.085 141.619 129.329 141.721 129.456C141.864 129.635 141.76 129.916 141.883 130.1" stroke="#C45824" stroke-linecap="round"/>
<path d="M141.883 129.914C141.883 129.742 141.753 129.604 141.666 129.473C141.595 129.368 141.483 128.958 141.387 128.953C141.303 128.948 140.72 128.3 140.704 128.332" stroke="#C45824" stroke-linecap="round"/>
<path d="M140.735 128.115C140.735 128.371 140.926 128.476 141.14 128.596C141.349 128.713 141.503 128.83 141.611 129.046C141.68 129.185 141.883 129.27 141.883 129.433C141.883 129.61 141.914 129.793 141.914 129.976" stroke="#C45824" stroke-linecap="round"/>
<path d="M144.984 127.867C145.089 127.68 145.229 127.672 145.418 127.719C145.52 127.745 145.767 127.749 145.759 127.898C145.754 127.991 145.622 128.128 145.59 128.222C145.489 128.524 145.36 128.793 145.294 129.108C145.197 129.568 145.109 130.016 145.07 130.486C145.024 131.039 144.818 132.685 144.953 132.147" stroke="#C45824" stroke-linecap="round"/>
<path d="M144.612 128.053C144.612 127.713 144.974 127.701 145.163 127.55C145.313 127.43 145.611 127.57 145.759 127.619" stroke="#C45824" stroke-linecap="round"/>
<path d="M145.79 128.611C145.79 128.978 145.754 129.339 145.666 129.697C145.509 130.333 145.428 131.017 145.339 131.666C145.258 132.254 145.09 132.828 145.016 133.416C145.008 133.484 145.08 133.761 145.015 133.728" stroke="#C45824" stroke-linecap="round"/>
<path d="M144.767 131.899C144.767 131.992 144.767 132.085 144.767 132.178C144.767 132.301 144.713 132.404 144.705 132.526C144.692 132.701 144.669 132.915 144.619 133.084C144.602 133.138 144.557 133.536 144.588 133.566C144.677 133.656 144.891 133.426 144.891 133.697" stroke="#C45824" stroke-linecap="round"/>
<path d="M148.746 127.579C148.746 127.628 148.773 127.666 148.81 127.696C148.838 127.718 148.874 127.646 148.933 127.675C148.951 127.684 148.949 127.718 148.924 127.693C148.903 127.672 148.91 127.723 148.91 127.737C148.91 127.792 148.884 127.793 148.863 127.836" stroke="#C45824" stroke-linecap="round"/>
<path d="M148.711 127.883C148.711 127.906 148.711 127.929 148.711 127.953C148.711 127.979 148.72 127.963 148.746 127.964C148.857 127.97 148.745 128.021 148.723 127.953" stroke="#C45824" stroke-linecap="round"/>
<path d="M147.73 129.634C147.883 129.634 148.028 129.639 148.179 129.657C148.361 129.679 148.606 129.776 148.728 129.92C148.793 129.997 148.798 130.125 148.81 130.219C148.833 130.393 148.828 130.568 148.828 130.744C148.828 131.189 148.856 131.639 148.788 132.079C148.775 132.157 148.781 132.238 148.781 132.317C148.781 132.354 148.792 132.367 148.808 132.399C148.82 132.422 148.816 132.449 148.812 132.473C148.797 132.572 148.771 132.669 148.749 132.766C148.671 133.11 148.625 133.465 148.571 133.814C148.548 133.963 148.501 134.109 148.48 134.258C148.472 134.319 148.468 134.387 148.445 134.445C148.435 134.471 148.432 134.49 148.454 134.468C148.495 134.428 148.552 134.461 148.594 134.433" stroke="#C45824" stroke-linecap="round"/>
<path d="M147.812 130.031C147.812 130.088 147.8 130.136 147.841 130.177C147.877 130.213 147.921 130.185 147.964 130.183C148.231 130.169 148.42 130.419 148.557 130.619C148.622 130.713 148.594 130.852 148.594 130.96C148.594 131.116 148.58 131.261 148.553 131.415C148.526 131.576 148.512 131.738 148.512 131.902C148.512 131.971 148.515 132.032 148.498 132.098C148.484 132.153 148.475 132.21 148.465 132.266C148.457 132.312 148.429 132.353 148.42 132.395C148.414 132.42 148.422 132.448 148.428 132.471C148.445 132.539 148.451 132.607 148.457 132.676C148.474 132.875 148.503 133.087 148.459 133.287C148.444 133.356 148.431 133.402 148.431 133.473C148.431 133.492 148.416 133.511 148.42 133.528C148.424 133.547 148.462 133.546 148.437 133.546C148.36 133.546 148.311 133.627 148.244 133.627" stroke="#C45824" stroke-linecap="round"/>
<path d="M148.127 133.884C148.127 134.027 148.045 134.152 148.045 134.293" stroke="#C45824" stroke-linecap="round"/>
<path d="M150.988 129.109C151.208 129.109 151.428 129.109 151.648 129.109C151.848 129.109 152.053 129.141 152.202 128.978C152.301 128.869 152.378 128.741 152.469 128.626C152.534 128.543 152.603 128.443 152.634 128.34C152.645 128.302 152.65 128.264 152.655 128.224C152.663 128.162 152.659 128.152 152.608 128.123C152.496 128.057 152.342 127.95 152.279 127.831C152.251 127.777 152.307 127.588 152.307 127.649C152.307 127.673 152.281 127.715 152.272 127.738C152.223 127.87 152.182 128.011 152.144 128.147C152.096 128.322 152.069 128.503 152.048 128.683C152.046 128.7 152.027 128.774 152.027 128.77" stroke="#C45824" stroke-linecap="round"/>
<path d="M153.008 127.556C153.008 127.717 152.951 127.883 152.903 128.034C152.844 128.22 152.809 128.418 152.781 128.61C152.751 128.817 152.737 129.025 152.707 129.232C152.704 129.25 152.675 129.371 152.711 129.365C152.934 129.324 153.182 129.354 153.41 129.354C153.471 129.354 153.519 129.349 153.574 129.377C153.638 129.411 153.704 129.455 153.756 129.506C153.914 129.664 154.16 129.681 154.374 129.681C154.418 129.681 154.463 129.681 154.507 129.681C154.522 129.681 154.486 129.703 154.479 129.716C154.458 129.755 154.429 129.787 154.409 129.827C154.38 129.886 154.374 129.942 154.374 130.006C154.374 130.076 154.374 129.985 154.374 129.964C154.374 129.887 154.389 129.819 154.409 129.746C154.418 129.713 154.444 129.695 154.444 129.657" stroke="#C45824" stroke-linecap="round"/>
<path d="M154.316 129.973C154.101 129.973 153.887 129.981 153.675 129.947C153.43 129.907 153.19 129.844 152.947 129.795C152.902 129.786 152.859 129.786 152.813 129.786C152.736 129.786 152.66 129.834 152.588 129.856C152.507 129.88 152.425 129.897 152.342 129.912C152.267 129.925 152.192 129.949 152.115 129.949C152.055 129.949 152.062 129.842 152.045 129.804C152.038 129.789 152.031 129.728 152.015 129.727C151.95 129.724 151.888 129.71 151.823 129.699C151.655 129.67 151.487 129.633 151.332 129.564C151.274 129.538 151.209 129.528 151.157 129.487C151.132 129.468 151.035 129.388 151.011 129.412" stroke="#C45824" stroke-linecap="round"/>
<path d="M151.56 130.183C151.56 130.285 151.582 130.376 151.601 130.475C151.612 130.534 151.642 130.578 151.659 130.634C151.699 130.762 151.721 130.897 151.741 131.029C151.785 131.315 151.826 131.601 151.861 131.888C151.868 131.942 151.92 132.204 151.852 132.238" stroke="#C45824" stroke-linecap="round"/>
<path d="M152.669 129.949C152.669 130.022 152.651 130.089 152.632 130.158C152.577 130.356 152.533 130.555 152.501 130.758C152.465 130.993 152.461 131.233 152.445 131.47C152.433 131.652 152.419 131.836 152.383 132.015C152.368 132.085 152.359 132.166 152.319 132.226" stroke="#C45824" stroke-linecap="round"/>
<path d="M152.342 132.471C152.342 132.79 152.355 133.101 152.494 133.393C152.556 133.524 152.627 133.64 152.746 133.727C152.808 133.773 152.878 133.803 152.938 133.852C152.986 133.891 153.033 133.924 153.087 133.954C153.273 134.058 153.471 134.083 153.68 134.083C153.78 134.083 153.843 134.086 153.93 134.129" stroke="#C45824" stroke-linecap="round"/>
<path d="M151.677 132.273C151.677 132.405 151.658 132.553 151.689 132.682C151.705 132.751 151.729 132.819 151.744 132.889C151.755 132.936 151.761 132.999 151.785 133.041C151.86 133.177 151.969 133.296 152.069 133.415C152.127 133.485 152.167 133.576 152.217 133.653C152.271 133.739 152.331 133.817 152.392 133.899C152.499 134.044 152.69 134.064 152.856 134.094C153.111 134.141 153.373 134.193 153.623 134.261C153.717 134.286 153.829 134.336 153.928 134.34C153.963 134.341 154.006 134.327 154.024 134.363" stroke="#C45824" stroke-linecap="round"/>
<path d="M151.548 132.728C151.548 132.91 151.56 133.095 151.66 133.251C151.728 133.357 151.809 133.443 151.893 133.54C151.937 133.591 151.954 133.656 151.969 133.721C151.976 133.754 151.97 133.822 151.995 133.847C152.011 133.863 152.045 133.876 152.065 133.893C152.103 133.927 152.133 133.962 152.167 134C152.291 134.141 152.38 134.283 152.542 134.386C152.777 134.536 153.071 134.653 153.344 134.711C153.486 134.741 153.616 134.76 153.761 134.76C153.788 134.76 153.851 134.748 153.873 134.766C153.89 134.78 153.975 134.795 154 134.795" stroke="#C45824" stroke-linecap="round"/>
<path d="M151.572 132.903C151.575 133.063 151.648 133.203 151.735 133.333C151.781 133.401 151.83 133.463 151.852 133.543C151.896 133.699 151.87 133.936 152.051 134.006C152.196 134.063 152.246 134.207 152.331 134.327C152.376 134.392 152.388 134.443 152.46 134.486C152.618 134.579 152.801 134.621 152.961 134.702" stroke="#C45824" stroke-linecap="round"/>
<path d="M156.371 129.477C156.371 129.594 156.46 129.681 156.499 129.79C156.637 130.179 156.671 130.606 156.758 131.007C156.873 131.536 157.042 132.04 157.203 132.557C157.225 132.628 157.232 132.687 157.232 132.759C157.232 132.787 157.229 132.87 157.252 132.803" stroke="#C45824" stroke-linecap="round"/>
<path d="M157.154 129.496C157.154 129.786 157.292 130.072 157.378 130.345C157.436 130.531 157.45 130.734 157.467 130.927C157.509 131.406 157.495 131.877 157.789 132.276C157.924 132.459 158.006 132.677 158.074 132.892C158.099 132.972 158.105 133.06 158.137 133.135C158.178 133.234 158.202 133.285 158.289 133.355C158.365 133.416 158.415 133.521 158.504 133.566" stroke="#C45824" stroke-linecap="round"/>
<path d="M158.739 133.664C158.739 133.34 158.939 133.097 159.107 132.838C159.143 132.782 159.183 132.75 159.228 132.705C159.285 132.647 159.31 132.541 159.345 132.47C159.485 132.182 159.633 131.905 159.806 131.635C159.891 131.502 159.957 131.359 160.03 131.219C160.062 131.158 160.131 131.081 160.146 131.013C160.187 130.829 160.334 130.648 160.441 130.495C160.531 130.366 160.506 130.251 160.421 130.123" stroke="#C45824" stroke-linecap="round"/>
<path d="M160.069 130.123V130.494" stroke="#C45824" stroke-linecap="round"/>
<path d="M155.745 135.835C155.948 135.835 156.144 135.913 156.343 135.913C156.471 135.913 156.595 135.927 156.722 135.934C156.882 135.943 157.057 135.959 157.215 135.982C157.425 136.013 157.651 136.053 157.841 135.941C158.113 135.78 158.296 135.621 158.476 135.365C158.628 135.147 158.682 134.887 158.797 134.65C158.944 134.35 159.081 134.054 159.149 133.722C159.197 133.495 159.237 133.267 159.306 133.044C159.374 132.822 159.478 132.615 159.545 132.392C159.602 132.204 159.697 132.004 159.697 131.805" stroke="#C45824" stroke-linecap="round"/>
<path d="M159.423 134.074C159.423 133.848 159.533 133.619 159.634 133.422C159.711 133.274 159.77 133.12 159.854 132.974C159.957 132.795 160.101 132.612 160.177 132.419C160.314 132.068 160.46 131.718 160.593 131.364C160.654 131.202 160.734 131.025 160.734 130.851C160.734 130.762 160.706 130.608 160.744 130.525C160.767 130.474 160.936 130.031 160.949 130.044" stroke="#C45824" stroke-linecap="round"/>
<path d="M156.88 132.235C156.88 132.388 156.874 132.541 156.881 132.693C156.884 132.753 156.88 132.863 156.904 132.92C156.939 133.002 157.006 133.168 157.087 133.214C157.248 133.306 157.403 133.605 157.613 133.605C157.754 133.605 157.916 133.655 158.055 133.683C158.175 133.707 158.252 133.754 158.352 133.82C158.523 133.934 158.504 134.084 158.504 134.27" stroke="#C45824" stroke-linecap="round"/>
<path d="M155.863 135.542C155.994 135.542 156.119 135.522 156.245 135.522C156.561 135.522 156.874 135.542 157.189 135.542C157.546 135.542 157.797 135.276 158.074 135.092" stroke="#C45824" stroke-linecap="round"/>
<path d="M167.268 132.333C167.26 132.256 167.149 132.156 167.102 132.1C166.99 131.962 166.877 131.814 166.741 131.698C166.594 131.573 166.462 131.475 166.282 131.409C165.906 131.274 165.471 131.231 165.076 131.199C164.759 131.172 164.416 131.137 164.12 131.277C163.787 131.435 163.69 131.787 163.556 132.109C163.432 132.407 163.384 132.69 163.327 133.005C163.324 133.025 163.293 133.155 163.336 133.155C163.38 133.155 163.245 133.877 163.234 133.955C163.158 134.499 162.991 135.202 163.306 135.703C163.542 136.078 164.018 136.264 164.431 136.363C164.573 136.398 164.691 136.406 164.832 136.426C164.917 136.439 165 136.442 165.086 136.442C165.16 136.442 165.216 136.382 165.283 136.355C165.533 136.253 165.799 136.189 166.053 136.099C166.354 135.993 166.555 135.792 166.771 135.57C166.92 135.417 167.08 135.281 167.229 135.131C167.294 135.066 167.365 135.007 167.44 134.955C167.459 134.942 167.521 134.914 167.523 134.896C167.529 134.848 167.643 134.758 167.679 134.74" stroke="#C45824" stroke-linecap="round"/>
<path d="M164.921 135.972C164.965 135.967 165.014 135.923 165.051 135.903C165.187 135.83 165.318 135.752 165.453 135.679C165.692 135.55 165.946 135.4 166.201 135.307C166.34 135.257 166.483 135.125 166.604 135.043C166.706 134.974 166.817 134.92 166.921 134.857C167.178 134.701 167.544 134.7 167.836 134.7" stroke="#C45824" stroke-linecap="round"/>
<path d="M166.76 134.505C166.76 134.559 166.745 134.591 166.711 134.633C166.683 134.667 166.618 134.691 166.603 134.72" stroke="#C45824" stroke-linecap="round"/>
<path d="M165.703 135.64C165.452 135.64 165.179 135.672 164.93 135.638C164.617 135.597 164.342 135.453 164.06 135.327C163.881 135.246 163.756 135.176 163.639 135.014C163.512 134.836 163.415 134.621 163.336 134.418C163.278 134.269 163.257 134.094 163.238 133.936C163.226 133.831 163.18 133.731 163.18 133.625" stroke="#C45824" stroke-linecap="round"/>
<path d="M164.099 135.131C164.09 135.066 164.05 135.011 164.019 134.955C163.938 134.811 163.857 134.666 163.808 134.507C163.756 134.338 163.767 134.164 163.767 133.99C163.767 133.619 163.9 133.266 163.952 132.902C163.995 132.608 163.988 132.026 164.306 131.844C164.394 131.794 164.471 131.714 164.569 131.668C164.681 131.615 164.858 131.602 164.98 131.591C165.277 131.564 165.636 131.56 165.927 131.618C166.045 131.641 166.157 131.678 166.272 131.707C166.463 131.755 166.562 131.823 166.716 131.942C166.755 131.972 166.772 132.022 166.801 132.059C166.853 132.126 166.92 132.184 166.965 132.255C167.009 132.323 167.064 132.388 167.116 132.446C167.218 132.559 167.468 132.47 167.601 132.47C167.659 132.47 167.705 132.49 167.767 132.49C167.836 132.49 167.841 132.522 167.895 132.548" stroke="#C45824" stroke-linecap="round"/>
<path d="M162.925 134.877C162.925 134.66 162.904 134.45 162.867 134.235C162.802 133.865 162.834 133.522 162.914 133.155C162.978 132.865 162.975 132.53 163.091 132.257C163.17 132.069 163.299 131.969 163.414 131.805C163.564 131.593 163.761 131.199 164.032 131.101C164.213 131.035 164.406 130.866 164.608 130.866" stroke="#C45824" stroke-linecap="round"/>
<path d="M164.588 130.827C164.783 130.827 164.97 130.772 165.16 130.733C165.396 130.685 165.596 130.731 165.829 130.773C166.143 130.829 166.431 130.925 166.755 130.925C166.872 130.925 166.875 131.048 166.936 131.12C167.076 131.287 167.244 131.442 167.342 131.649C167.398 131.767 167.451 131.831 167.542 131.922C167.61 131.99 167.776 132.058 167.816 132.138" stroke="#C45824" stroke-linecap="round"/>
<path d="M166.956 132.568C166.912 132.568 166.88 132.588 166.838 132.588" stroke="#C45824" stroke-linecap="round"/>
<path d="M174.292 132.392C174.148 132.378 173.997 132.212 173.874 132.142C173.766 132.079 173.652 132.037 173.544 131.977C173.4 131.897 173.245 131.836 173.103 131.751C173.046 131.717 172.982 131.679 172.918 131.664C172.775 131.63 172.708 131.527 172.551 131.531C172.454 131.534 172.353 131.577 172.257 131.594C172.1 131.622 171.931 131.653 171.778 131.697C171.554 131.763 171.276 131.789 171.102 131.963C170.931 132.133 170.748 132.311 170.606 132.507C170.558 132.574 170.418 132.667 170.418 132.754C170.418 132.842 170.418 132.93 170.418 133.018" stroke="#C45824" stroke-linecap="round"/>
<path d="M171.533 132.196C171.61 132.196 171.66 132.126 171.723 132.09C171.794 132.048 171.87 132.019 171.944 131.985C172.013 131.955 172.099 131.942 172.173 131.922C172.365 131.871 172.61 131.854 172.805 131.907C173.015 131.964 173.201 132.084 173.403 132.157C173.548 132.21 173.663 132.326 173.803 132.372" stroke="#C45824" stroke-linecap="round"/>
<path d="M170.849 132.588C170.849 132.715 170.853 132.788 170.946 132.881C171.028 132.963 171.081 133.12 171.118 133.229C171.155 133.334 171.181 133.362 171.279 133.409C171.343 133.44 171.411 133.462 171.475 133.492C171.525 133.516 171.557 133.57 171.612 133.585C171.843 133.651 172.02 133.836 172.267 133.879C172.395 133.901 172.519 133.931 172.647 133.957C172.749 133.977 172.865 134.055 172.962 134.055" stroke="#C45824" stroke-linecap="round"/>
<path d="M171.494 133.644C171.352 133.644 171.21 133.644 171.068 133.644C170.992 133.644 170.86 133.567 170.794 133.527C170.633 133.429 170.399 133.35 170.399 133.135" stroke="#C45824" stroke-linecap="round"/>
<path d="M171.396 132.607C171.396 132.505 171.397 132.421 171.455 132.333" stroke="#C45824" stroke-linecap="round"/>
<path d="M172.668 133.996C172.821 133.996 172.982 134.016 173.128 134.016C173.227 134.016 173.339 134.086 173.44 134.115C173.526 134.139 173.622 134.205 173.705 134.246C173.796 134.292 173.89 134.343 173.979 134.387" stroke="#C45824" stroke-linecap="round"/>
<path d="M173.177 134.172C173.253 134.241 173.351 134.275 173.422 134.349C173.514 134.444 173.593 134.536 173.655 134.652C173.719 134.771 173.744 134.947 173.779 135.077C173.838 135.296 173.862 135.506 173.862 135.733C173.862 135.863 173.739 135.966 173.645 136.041C173.486 136.167 173.305 136.213 173.128 136.305C172.997 136.373 172.79 136.347 172.644 136.344C172.423 136.339 172.182 136.289 171.964 136.255C171.789 136.227 171.614 136.175 171.445 136.119C171.284 136.065 171.156 136.003 171.029 135.89C170.929 135.8 170.838 135.758 170.723 135.688C170.635 135.636 170.582 135.526 170.497 135.483" stroke="#C45824" stroke-linecap="round"/>
<path d="M170.653 133.605C170.852 133.605 170.957 133.603 171.107 133.737C171.163 133.788 171.237 133.765 171.299 133.796C171.353 133.823 171.434 133.872 171.494 133.879C171.628 133.894 171.755 134.007 171.905 134.016C172.028 134.023 172.147 134.114 172.277 134.114" stroke="#C45824" stroke-linecap="round"/>
<path d="M173.998 134.368C174.277 134.368 174.176 134.633 174.229 134.803C174.256 134.891 174.233 135.02 174.233 135.111C174.233 135.204 174.251 135.317 174.223 135.406C174.16 135.609 174.03 135.775 173.969 135.971C173.936 136.075 173.874 136.134 173.779 136.176C173.723 136.201 173.67 136.281 173.607 136.285C173.542 136.289 173.476 136.285 173.411 136.285" stroke="#C45824" stroke-linecap="round"/>
<path d="M173.803 136.168C173.881 136.168 173.947 136.109 174.008 136.061C174.067 136.016 174.271 135.953 174.291 135.883C174.333 135.734 174.507 135.584 174.507 135.424" stroke="#C45824" stroke-linecap="round"/>
<path d="M173.646 135.209C173.646 135.353 173.52 135.568 173.42 135.668C173.296 135.792 173.129 135.834 172.966 135.879C172.61 135.977 172.206 135.894 171.846 135.894" stroke="#C45824" stroke-linecap="round"/>
<path d="M171.651 135.972C171.484 135.972 171.138 136.002 171.016 135.845C170.963 135.776 171.034 135.527 170.947 135.483" stroke="#C45824" stroke-linecap="round"/>
<path d="M172.519 134.149C172.456 134.149 172.384 134.142 172.323 134.123C172.256 134.102 172.193 134.11 172.126 134.104C171.999 134.091 171.871 134.074 171.748 134.037C171.713 134.027 171.66 134.019 171.629 134.002C171.594 133.982 171.545 133.988 171.508 133.971C171.46 133.95 171.38 133.939 171.345 133.896C171.315 133.859 171.241 133.855 171.201 133.837C171.161 133.819 171.138 133.786 171.106 133.759C171.041 133.706 170.94 133.718 170.864 133.676C170.796 133.638 170.731 133.606 170.663 133.568C170.602 133.534 170.545 133.478 170.502 133.422C170.484 133.398 170.467 133.373 170.453 133.346C170.444 133.331 170.444 133.309 170.428 133.301" stroke="#C45824" stroke-linecap="round"/>
<path d="M170.618 133.498C170.686 133.504 170.759 133.577 170.809 133.617C170.831 133.635 170.875 133.645 170.902 133.657C170.937 133.673 170.971 133.692 171.004 133.71C171.049 133.735 171.095 133.763 171.144 133.778C171.18 133.789 171.217 133.82 171.254 133.824C171.312 133.83 171.376 133.858 171.433 133.873C171.524 133.899 171.619 133.934 171.701 133.983" stroke="#C45824" stroke-linecap="round"/>
<path d="M171.504 134.006C171.472 134.002 171.445 133.975 171.413 133.968C171.377 133.96 171.344 133.939 171.308 133.93C171.234 133.911 171.165 133.876 171.092 133.85C171.028 133.827 170.971 133.789 170.906 133.769C170.833 133.746 170.758 133.718 170.688 133.689C170.613 133.658 170.539 133.63 170.466 133.595C170.426 133.575 170.387 133.55 170.345 133.536" stroke="#C45824" stroke-linecap="round"/>
<path d="M172.103 133.793C172.198 133.796 172.287 133.823 172.379 133.843C172.436 133.855 172.502 133.848 172.56 133.854C172.655 133.862 172.752 133.859 172.845 133.888C172.879 133.899 172.941 133.932 172.977 133.922C172.987 133.919 172.962 133.887 172.983 133.894C173.001 133.898 173.03 133.903 173.042 133.918C173.049 133.927 173.089 133.935 173.101 133.939C173.119 133.945 173.134 133.955 173.152 133.96C173.181 133.969 173.217 133.98 173.243 133.994C173.256 134.001 173.267 134.002 173.28 134.006C173.293 134.009 173.3 134.027 173.315 134.028C173.345 134.03 173.368 134.057 173.398 134.059C173.467 134.062 173.522 134.12 173.58 134.151C173.64 134.183 173.705 134.231 173.76 134.271C173.793 134.294 173.817 134.324 173.845 134.351C173.879 134.382 173.917 134.405 173.944 134.445" stroke="#C45824" stroke-linecap="round"/>
<path d="M172.618 133.793C172.748 133.793 172.866 133.834 172.989 133.869C173.052 133.887 173.108 133.924 173.173 133.939C173.208 133.947 173.243 133.962 173.279 133.969C173.326 133.979 173.385 133.986 173.429 134.005C173.597 134.083 173.77 134.16 173.925 134.263C173.98 134.3 174.035 134.324 174.082 134.371C174.131 134.42 174.185 134.485 174.224 134.543" stroke="#C45824" stroke-linecap="round"/>
</svg>
