<svg width="218" height="143" viewBox="0 0 218 143" fill="none" xmlns="http://www.w3.org/2000/svg">
<path d="M30.5 46.5L32.1739 49.4293C32.3887 49.8053 32.6825 50.1303 33.0349 50.3821L36 52.5L41.5 56.5" stroke="white" stroke-width="1.5"/>
<path d="M30.5 47V44.5C30.5 43.8509 30.7105 43.2193 31.1 42.7L33.3377 39.7164C33.4457 39.5724 33.5405 39.419 33.621 39.258L35.9012 34.6977C35.967 34.5661 36.0424 34.4395 36.1267 34.3189L39.5 29.5L43 24L47 18.5L50.5 13L54 8.5L57.3492 5.15076C57.4496 5.05038 57.5427 4.943 57.6279 4.82944L59.6 2.2C60.1666 1.44458 61.0557 1 62 1H63.5H66.9139C67.6157 1 68.2953 1.24605 68.8344 1.69534L71 3.5L76.5 7L83 11L89.5 15.5L96.5 20.5L104 27L114 34.5L121 39.5L127 43.5L134 48.5L141.5 53.5L148 58.5L154.113 62.2621C154.37 62.4198 154.601 62.6151 154.799 62.8416L160.758 69.6517C161.236 70.1986 161.5 70.9005 161.5 71.6272V72.25M211 142L195.5 141.5L178 140.5L160 139L135 137L120 135.5L103 133.5L93.5 132L87.5 131M211 142V141.5V138V132.5L210.5 125V117V112M211 142L216.204 136.362C216.716 135.808 217 135.081 217 134.327V131V126.5V121.5V114.5V108.5V100.5M87.5 131V132.671C87.5 134.26 86.2619 135.573 84.6762 135.666L79 136H76L71.5 136.5H67L63 137M87.5 131V127.748C87.5 127.583 87.5137 127.418 87.5408 127.255L88.4592 121.745C88.4863 121.582 88.5 121.417 88.5 121.252V114.5V108V96.5M9.5 94.5L10.9124 95.9124C11.2969 96.2969 11.7786 96.5697 12.3061 96.7015L15.5 97.5L19.5 99L22.5 100L27 102L33.5 104L38.5 106L44 108L45.8024 108.801C47.2483 109.444 48.9332 108.7 49.4335 107.199V107.199C49.4778 107.067 49.5116 106.931 49.5346 106.793L49.9592 104.245C49.9863 104.082 50 103.917 50 103.752V100.75M9.5 94.5V92.5V88.5V83.5V78V77.3079C9.5 75.5053 11.3431 74.2899 13 75V75L18.2613 76.9132C18.4202 76.971 18.5836 77.0152 18.7499 77.0454L23.7029 77.946C23.9005 77.9819 24.0939 78.0376 24.2804 78.1122L29 80L34 81.5L38 82.5L42.5 83.5L47.3211 85.107C48.0759 85.3586 48.6999 85.8998 49.0557 86.6115L49.6833 87.8666C49.8916 88.2831 50 88.7425 50 89.2082V92.5V97.5V100.75M9.5 94.5L14.2055 92.1473C14.4012 92.0494 14.6071 91.9732 14.8195 91.9201L18.5 91M18.5 78V81.5V85.5V88.5V91M18.5 91L21.1513 92.0252M21 92L21.1513 92.0252M50 100.75L48.8303 100.165C48.6109 100.055 48.3789 99.9731 48.1395 99.9199L44.3056 99.0679C44.1024 99.0228 43.9045 98.9566 43.715 98.8705L38.8915 96.6779C38.6318 96.5599 38.3567 96.4795 38.0743 96.4392L35.2678 96.0383C35.0896 96.0128 34.9141 95.9714 34.7434 95.9145L30.5 94.5L28.2379 94.0476C28.0796 94.0159 27.924 93.9715 27.7729 93.9148L24.2728 92.6023C24.0914 92.5343 23.9038 92.484 23.7126 92.4521L21.1513 92.0252M63.5 3.5V3.5C63.5 4.42756 63.997 5.28401 64.8024 5.74421L66.7288 6.84502C66.9091 6.94806 67.0782 7.06955 67.2335 7.20752L71.2589 10.7857C71.4192 10.9281 71.5943 11.053 71.7812 11.1582L79.204 15.3335C79.4007 15.4442 79.5843 15.5766 79.7513 15.7284L84.7802 20.3002C84.9264 20.4331 85.0853 20.5512 85.2547 20.6528L92.5 25L100.5 31L109 37.5L117 42.5L123.5 47L129.7 50.8154C129.899 50.938 130.084 51.0836 130.249 51.2491L134.809 55.8087C134.936 55.936 135.074 56.0515 135.222 56.154L141.5 60.5L149.5 65L156 69L161.5 72.25M161.5 72.25V73.456C161.5 73.8157 161.435 74.1725 161.309 74.5094L160.139 77.6306C160.047 77.8758 159.923 78.1079 159.771 78.321L157.5 81.5L153 88L150.5 92M88.5 96.5V94.5V87.5V84.5M88.5 96.5L92.5 94.5L96 92.5L99 90.8333M150.5 92H152L157.5 92.5L167.5 93.5L176.5 94L188 95L198 96L207 96.5L214.851 97.2137C216.459 97.3599 217.511 98.9678 217 100.5V100.5M150.5 92L144 91L135 90H127L119 89L112 88L106.135 87.1621C105.404 87.0577 104.66 87.2264 104.046 87.6358L100.5 90L99 90.8333M89.5 99.5L94.7943 100.944C94.9313 100.981 95.0707 101.009 95.2116 101.026L103 102L109.5 102.5L116 103.5L123 104.5L132.5 105.5L141.5 106L152 107.5L160 108L169 108.5L179.5 110L190 111L202 112H210.5M210.5 112L212.395 108.211C212.465 108.07 212.546 107.936 212.637 107.808L214.79 104.794C214.929 104.599 215.045 104.387 215.134 104.164L215.884 102.29C215.961 102.097 216.058 101.913 216.173 101.74L217 100.5M4 54L7 55L10 56L13.5 57L18.5 58.5L23.5 60L31 62L37.5 63L46 65L54 67L60.1515 68.8928C60.383 68.964 60.605 69.063 60.8127 69.1876L63 70.5M63 70.5H68.5H76L83 70H87.1M63 70.5L63.9417 75.2087C63.9805 75.4024 64 75.5995 64 75.7971V81.5V87.5V94.5V100L63 108V113.5V120.5V126V132V137M87.1 70L86.098 68.7475C85.709 68.2612 85.1783 67.9081 84.5796 67.737L82 67L75 65L66 62.5L58 60.5L51.5 59.5L44 58L37 56L30.7513 55.0387C30.5841 55.0129 30.4193 54.9731 30.2588 54.9196L26.3173 53.6058C26.1064 53.5355 25.8884 53.4888 25.6672 53.4667L21 53H15.5H8H5.31227C5.10544 53 4.89997 53.0333 4.70376 53.0987V53.0987C3.97349 53.3422 3.45855 53.9974 3.39463 54.7645L3 59.5L2 72.5L1.5 83.5L1 97.5V104V107.292C1 107.758 1.10844 108.217 1.31672 108.633L1.68328 109.367C1.89156 109.783 2.19397 110.145 2.56656 110.425L3.78359 111.338C3.92757 111.446 4.08098 111.54 4.24195 111.621L12 115.5L24.5 121.5L34 126L44 131L49.5 133.5L54 135L60.5 136.5L61.5381 136.846C61.844 136.948 62.1644 137 62.4868 137H63M87.1 70V70C87.3625 70.3282 87.5394 70.7165 87.6145 71.13L88.4516 75.7339C88.4838 75.9109 88.5 76.0905 88.5 76.2705V81.5V84.5M88.5 84.5L92.5 87L95 88.5L99 90.8333" stroke="white" stroke-width="1.5"/>
<path d="M59.5 46.5L62 43L66 37L70 31L71.5 28.5M59.5 46.5L66 51L75 57L82 62L88 66.5L95 71.5L104.5 78L114.5 84.5L120.941 88.6408C121.309 88.8774 121.725 89.0306 122.158 89.0898L129 90.0227M59.5 46.5L67.0687 45.1643C67.6749 45.0574 68.2335 44.7665 68.6687 44.3313L69 44M71.5 28.5L85.5 39L99.5 49.5L112.5 59L127.5 69.5L137.382 76.5M71.5 28.5L74.5 36M69 44L70 43L73.591 38.5113C73.8605 38.1744 74.0542 37.7833 74.1588 37.3648L74.5 36M69 44L75 48L82 53L90 59L101 66.5L112.5 74.5L124 82L128.5 85.5M128.5 85.5L129 90.0227M128.5 85.5L131.5 81L133 78.5M129 90.0227L130.514 90.2291C131.716 90.3931 132.899 89.8165 133.51 88.7682L136 84.5L138.27 80.2849C138.972 78.9802 138.592 77.3565 137.382 76.5V76.5M133 78.5L137.382 76.5M133 78.5L122.5 69.5L114.5 64L103 55.5L85.5 43L74.5 36" stroke="white" stroke-width="1.5"/>
</svg>
