<svg width="20" height="21" viewBox="0 0 20 21" fill="none" xmlns="http://www.w3.org/2000/svg">
<path d="M8.24003 8.89C7.67003 8.89 7.22003 9.39 7.22003 10C7.22003 10.61 7.68003 11.11 8.24003 11.11C8.81003 11.11 9.26003 10.61 9.26003 10C9.27003 9.39 8.81003 8.89 8.24003 8.89ZM11.89 8.89C11.32 8.89 10.87 9.39 10.87 10C10.87 10.61 11.33 11.11 11.89 11.11C12.46 11.11 12.91 10.61 12.91 10C12.91 9.39 12.46 8.89 11.89 8.89Z" fill="#C45824"/>
<path d="M16.75 0.5H3.35005C2.22005 0.5 1.30005 1.42 1.30005 2.56V16.08C1.30005 17.22 2.22005 18.14 3.35005 18.14H14.69L14.16 16.29L15.44 17.48L16.65 18.6L18.8 20.5V2.56C18.8 1.42 17.88 0.5 16.75 0.5ZM12.89 13.56C12.89 13.56 12.53 13.13 12.23 12.75C13.54 12.38 14.04 11.56 14.04 11.56C13.63 11.83 13.24 12.02 12.89 12.15C12.39 12.36 11.91 12.5 11.44 12.58C10.48 12.76 9.60005 12.71 8.85005 12.57C8.28005 12.46 7.79005 12.3 7.38005 12.14C7.15005 12.05 6.90005 11.94 6.65005 11.8C6.62005 11.78 6.59005 11.77 6.56005 11.75C6.54005 11.74 6.53005 11.73 6.52005 11.72C6.34005 11.62 6.24005 11.55 6.24005 11.55C6.24005 11.55 6.72005 12.35 7.99005 12.73C7.69005 13.11 7.32005 13.56 7.32005 13.56C5.11005 13.49 4.27005 12.04 4.27005 12.04C4.27005 8.82 5.71005 6.21 5.71005 6.21C7.15005 5.13 8.52005 5.16 8.52005 5.16L8.62005 5.28C6.82005 5.8 5.99005 6.59 5.99005 6.59C5.99005 6.59 6.21005 6.47 6.58005 6.3C7.65005 5.83 8.50005 5.7 8.85005 5.67C8.91005 5.66 8.96005 5.65 9.02005 5.65C9.63005 5.57 10.32 5.55 11.04 5.63C11.99 5.74 13.01 6.02 14.05 6.59C14.05 6.59 13.26 5.84 11.56 5.32L11.7 5.16C11.7 5.16 13.07 5.13 14.51 6.21C14.51 6.21 15.95 8.82 15.95 12.04C15.95 12.04 15.1 13.49 12.89 13.56V13.56Z" fill="#C45824"/>
</svg>
