<svg width="20" height="21" viewBox="0 0 20 21" fill="none" xmlns="http://www.w3.org/2000/svg">
<path d="M18.5714 1.75H1.42411C0.638393 1.75 0 2.31641 0 3.01172V17.9883C0 18.6836 0.638393 19.25 1.42411 19.25H18.5714C19.3571 19.25 20 18.6836 20 17.9883V3.01172C20 2.31641 19.3571 1.75 18.5714 1.75ZM6.04464 16.75H3.08036V8.39844H6.04911V16.75H6.04464ZM4.5625 7.25781C3.61161 7.25781 2.84375 6.58203 2.84375 5.75391C2.84375 4.92578 3.61161 4.25 4.5625 4.25C5.50893 4.25 6.28125 4.92578 6.28125 5.75391C6.28125 6.58594 5.51339 7.25781 4.5625 7.25781ZM17.1562 16.75H14.192V12.6875C14.192 11.7188 14.1696 10.4727 12.6518 10.4727C11.1071 10.4727 10.8705 11.5273 10.8705 12.6172V16.75H7.90625V8.39844H10.75V9.53906H10.7902C11.1875 8.88281 12.1563 8.19141 13.5982 8.19141C16.5982 8.19141 17.1562 9.92187 17.1562 12.1719V16.75Z" fill="#C45824"/>
</svg>
