<svg width="20" height="21" viewBox="0 0 20 21" fill="none" xmlns="http://www.w3.org/2000/svg">
<g clip-path="url(#clip0_1823_179)">
<path d="M10.0044 6.00781C7.16511 6.00781 4.87493 8.01172 4.87493 10.4961C4.87493 12.9805 7.16511 14.9844 10.0044 14.9844C12.8437 14.9844 15.1339 12.9805 15.1339 10.4961C15.1339 8.01172 12.8437 6.00781 10.0044 6.00781ZM10.0044 13.4141C8.16957 13.4141 6.66957 12.1055 6.66957 10.4961C6.66957 8.88672 8.16511 7.57812 10.0044 7.57812C11.8437 7.57812 13.3392 8.88672 13.3392 10.4961C13.3392 12.1055 11.8392 13.4141 10.0044 13.4141ZM16.5401 5.82422C16.5401 6.40625 16.0044 6.87109 15.3437 6.87109C14.6785 6.87109 14.1472 6.40234 14.1472 5.82422C14.1472 5.24609 14.683 4.77734 15.3437 4.77734C16.0044 4.77734 16.5401 5.24609 16.5401 5.82422ZM19.9374 6.88672C19.8615 5.48438 19.4955 4.24219 18.3214 3.21875C17.1517 2.19531 15.7321 1.875 14.1294 1.80469C12.4776 1.72266 7.52672 1.72266 5.87493 1.80469C4.27672 1.87109 2.85707 2.19141 1.68297 3.21484C0.508859 4.23828 0.147252 5.48047 0.0668945 6.88281C-0.0268555 8.32812 -0.0268555 12.6602 0.0668945 14.1055C0.142787 15.5078 0.508859 16.75 1.68297 17.7734C2.85707 18.7969 4.27225 19.1172 5.87493 19.1875C7.52672 19.2695 12.4776 19.2695 14.1294 19.1875C15.7321 19.1211 17.1517 18.8008 18.3214 17.7734C19.491 16.75 19.8571 15.5078 19.9374 14.1055C20.0312 12.6602 20.0312 8.33203 19.9374 6.88672ZM17.8035 15.6562C17.4553 16.4219 16.7812 17.0117 15.9017 17.3203C14.5848 17.7773 11.4598 17.6719 10.0044 17.6719C8.54904 17.6719 5.41957 17.7734 4.10707 17.3203C3.23207 17.0156 2.55797 16.4258 2.20529 15.6562C1.68297 14.5039 1.8035 11.7695 1.8035 10.4961C1.8035 9.22266 1.68743 6.48437 2.20529 5.33594C2.5535 4.57031 3.22761 3.98047 4.10707 3.67187C5.42404 3.21484 8.54904 3.32031 10.0044 3.32031C11.4598 3.32031 14.5892 3.21875 15.9017 3.67187C16.7767 3.97656 17.4508 4.56641 17.8035 5.33594C18.3258 6.48828 18.2053 9.22266 18.2053 10.4961C18.2053 11.7695 18.3258 14.5078 17.8035 15.6562Z" fill="#C45824"/>
</g>
<defs>
<clipPath id="clip0_1823_179">
<rect width="20" height="20" fill="white" transform="translate(0 0.5)"/>
</clipPath>
</defs>
</svg>
