<svg width="20" height="21" viewBox="0 0 20 21" fill="none" xmlns="http://www.w3.org/2000/svg">
<path fill-rule="evenodd" clip-rule="evenodd" d="M20 10.5C20 16.0228 15.5228 20.5 10 20.5C4.47715 20.5 0 16.0228 0 10.5C0 4.97715 4.47715 0.5 10 0.5C15.5228 0.5 20 4.97715 20 10.5ZM15.2047 9.03799C16.0117 9.03799 16.6667 9.69296 16.6667 10.5C16.6667 11.0965 16.3041 11.6111 15.8246 11.845C15.848 11.9854 15.8597 12.1257 15.8597 12.2778C15.8597 14.5234 13.2515 16.3362 10.0234 16.3362C6.79533 16.3362 4.18714 14.5234 4.18714 12.2778C4.18714 12.1257 4.19884 11.9737 4.22223 11.8333C3.70761 11.5994 3.35673 11.0965 3.35673 10.5C3.35673 9.69296 4.0117 9.03799 4.81872 9.03799C5.20468 9.03799 5.56726 9.20173 5.82457 9.44735C6.83041 8.71051 8.22223 8.25437 9.77778 8.20758L10.5146 4.7222C10.538 4.65203 10.5731 4.59355 10.6316 4.55846C10.6901 4.52337 10.7602 4.51168 10.8304 4.52337L13.2515 5.03799C13.4152 4.68711 13.7661 4.4532 14.1754 4.4532C14.7485 4.4532 15.2164 4.92103 15.2164 5.49413C15.2164 6.06723 14.7485 6.53507 14.1754 6.53507C13.614 6.53507 13.1579 6.09062 13.1345 5.54092L10.9708 5.08478L10.3041 8.20758C11.8246 8.26606 13.2047 8.7339 14.1988 9.44735C14.4561 9.19004 14.807 9.03799 15.2047 9.03799ZM7.70761 10.5C7.13451 10.5 6.66667 10.9678 6.66667 11.5409C6.66667 12.114 7.13451 12.5819 7.70761 12.5819C8.28071 12.5819 8.74854 12.114 8.74854 11.5409C8.74854 10.9678 8.28071 10.5 7.70761 10.5ZM10.0117 15.0497C10.4094 15.0497 11.7661 15.0029 12.4795 14.2895C12.5848 14.1842 12.5848 14.0204 12.5029 13.9035C12.3977 13.7982 12.2222 13.7982 12.117 13.9035C11.6608 14.3479 10.7135 14.5117 10.0234 14.5117C9.33334 14.5117 8.37427 14.3479 7.92983 13.9035C7.82457 13.7982 7.64913 13.7982 7.54386 13.9035C7.4386 14.0088 7.4386 14.1842 7.54386 14.2895C8.24562 14.9912 9.61404 15.0497 10.0117 15.0497ZM11.2515 11.5409C11.2515 12.114 11.7193 12.5819 12.2924 12.5819C12.8655 12.5819 13.3333 12.114 13.3333 11.5409C13.3333 10.9678 12.8655 10.5 12.2924 10.5C11.7193 10.5 11.2515 10.9678 11.2515 11.5409Z" fill="#C45824"/>
</svg>
