<svg width="20" height="21" viewBox="0 0 20 21" fill="none" xmlns="http://www.w3.org/2000/svg">
<path d="M6.2918 18.625C13.8371 18.625 17.9652 12.3723 17.9652 6.9516C17.9652 6.77582 17.9613 6.59613 17.9535 6.42035C18.7566 5.8396 19.4496 5.12026 20 4.29613C19.2521 4.62888 18.458 4.8462 17.6449 4.94066C18.5011 4.42747 19.1421 3.62127 19.4492 2.67152C18.6438 3.14884 17.763 3.48556 16.8445 3.66722C16.2257 3.00968 15.4075 2.57431 14.5164 2.42842C13.6253 2.28253 12.711 2.43425 11.9148 2.86013C11.1186 3.286 10.4848 3.9623 10.1115 4.78447C9.73825 5.60664 9.64619 6.52889 9.84961 7.40863C8.21874 7.32679 6.62328 6.90313 5.16665 6.16513C3.71002 5.42712 2.42474 4.39124 1.39414 3.12464C0.870333 4.02775 0.710047 5.09642 0.945859 6.11345C1.18167 7.13049 1.79589 8.01959 2.66367 8.60003C2.01219 8.57935 1.37498 8.40395 0.804688 8.08831V8.1391C0.804104 9.08684 1.13175 10.0055 1.73192 10.739C2.3321 11.4725 3.16777 11.9755 4.09687 12.1625C3.49338 12.3277 2.85999 12.3517 2.2457 12.2328C2.50788 13.0479 3.01798 13.7608 3.70481 14.272C4.39164 14.7832 5.22093 15.0672 6.07695 15.0844C4.62369 16.226 2.82848 16.8452 0.980469 16.8422C0.652739 16.8417 0.325333 16.8216 0 16.7821C1.87738 17.9865 4.06128 18.6262 6.2918 18.625Z" fill="#C45824"/>
</svg>
