<svg width="18" height="12" viewBox="0 0 18 12" fill="none" xmlns="http://www.w3.org/2000/svg">
<path d="M4.95 6C6.19059 6 7.2 4.99059 7.2 3.75C7.2 2.5094 6.19059 1.5 4.95 1.5C3.70941 1.5 2.7 2.5094 2.7 3.75C2.7 4.99059 3.70941 6 4.95 6ZM14.85 2.4H8.55C8.30137 2.4 8.1 2.60137 8.1 2.85V6.9H1.8V1.05C1.8 0.801373 1.59862 0.599998 1.35 0.599998H0.45C0.201375 0.599998 0 0.801373 0 1.05V10.95C0 11.1986 0.201375 11.4 0.45 11.4H1.35C1.59862 11.4 1.8 11.1986 1.8 10.95V9.6H16.2V10.95C16.2 11.1986 16.4014 11.4 16.65 11.4H17.55C17.7986 11.4 18 11.1986 18 10.95V5.55C18 3.81019 16.5898 2.4 14.85 2.4Z" fill="#6E6E6E" fill-opacity="0.71"/>
</svg>
