<svg width="59" height="59" viewBox="0 0 59 59" fill="none" xmlns="http://www.w3.org/2000/svg">
<g clip-path="url(#clip0_1794_523)">
<path d="M25.4212 0.86537C25.6371 0.864569 25.853 0.863576 26.0689 0.862409C26.6522 0.859868 27.2355 0.860189 27.8188 0.861198C28.307 0.86178 28.7952 0.860949 29.2834 0.860123C30.4356 0.858199 31.5878 0.858597 32.74 0.860497C33.9262 0.862416 35.1122 0.860619 36.2983 0.856955C37.3192 0.853922 38.3402 0.853103 39.3611 0.854064C39.9697 0.854622 40.5783 0.854381 41.1869 0.852047C41.7594 0.849956 42.3319 0.850651 42.9044 0.853431C43.1136 0.853996 43.3228 0.85361 43.532 0.852166C45.0372 0.842605 46.3166 0.97773 47.4594 2.07299C48.0388 2.69907 48.6782 3.43412 48.6782 4.32865C48.8069 4.35205 48.9356 4.37544 49.0681 4.39955C50.0809 4.65543 51.0337 5.42389 51.5715 6.31272C51.8162 6.78401 51.993 7.20545 52.081 7.73143C52.2179 7.74196 52.2179 7.74196 52.3575 7.7527C53.3159 7.9713 54.09 8.54988 54.6898 9.3194C55.3704 10.4628 55.3704 10.4628 55.3704 11.0208C55.4593 11.0255 55.5482 11.0301 55.6398 11.035C56.7179 11.2952 57.6764 12.0667 58.2667 12.9964C58.8367 14.0683 58.9202 15.0958 58.9169 16.2948C58.9174 16.435 58.9179 16.5752 58.9185 16.7196C58.9196 17.1063 58.9198 17.493 58.9196 17.8797C58.9195 18.2977 58.9208 18.7157 58.9218 19.1337C58.9237 19.9517 58.9243 20.7698 58.9245 21.5878C58.9246 22.2531 58.925 22.9184 58.9258 23.5837C58.9278 25.4721 58.9288 27.3604 58.9286 29.2487C58.9286 29.3504 58.9286 29.4521 58.9286 29.5569C58.9286 29.6587 58.9286 29.7605 58.9286 29.8654C58.9285 31.5151 58.9307 33.1647 58.9339 34.8143C58.9371 36.5102 58.9387 38.2061 58.9385 39.902C58.9384 40.8532 58.939 41.8045 58.9415 42.7558C58.9435 43.5658 58.944 44.3758 58.9425 45.1858C58.9418 45.5985 58.9417 46.0113 58.9437 46.424C58.9458 46.8728 58.9444 47.3214 58.9427 47.7701C58.9438 47.8989 58.945 48.0276 58.9462 48.1602C58.9341 49.5805 58.5516 50.8825 57.572 51.9343C55.9454 53.4461 53.791 53.2484 51.7252 53.2446C51.4477 53.2449 51.1701 53.2453 50.8926 53.2458C50.2195 53.2467 49.5465 53.2466 48.8735 53.2459C48.3261 53.2454 47.7788 53.2453 47.2314 53.2456C47.1142 53.2456 47.1142 53.2456 46.9946 53.2457C46.8358 53.2458 46.677 53.2458 46.5181 53.2459C45.0321 53.2466 43.546 53.2458 42.06 53.2446C40.787 53.2436 39.514 53.2438 38.241 53.2448C36.7598 53.246 35.2786 53.2465 33.7973 53.2458C33.6392 53.2457 33.481 53.2457 33.3229 53.2456C33.2061 53.2455 33.2061 53.2455 33.0871 53.2455C32.5408 53.2453 31.9946 53.2456 31.4483 53.2461C30.7122 53.2469 29.976 53.2463 29.2399 53.245C28.9702 53.2447 28.7006 53.2448 28.431 53.2453C28.0619 53.2459 27.6929 53.2452 27.3239 53.244C27.2181 53.2445 27.1123 53.245 27.0034 53.2456C25.5144 53.2368 24.1292 52.9278 23.0014 51.8967C22.4738 51.3259 21.9097 50.4949 21.9097 49.699C21.7998 49.6742 21.6898 49.6493 21.5765 49.6237C19.8414 49.2187 18.2667 48.6024 16.6921 47.7708C15.8883 48.3849 15.8883 48.3849 15.4945 49.2728C15.5037 49.5247 15.5178 49.7764 15.5366 50.0278C15.5871 50.8628 15.2669 51.3804 14.7284 51.9959C14.5533 52.1775 14.3762 52.3573 14.1968 52.5347C14.134 52.5999 14.0713 52.6651 14.0067 52.7323C13.7084 53.0169 13.5154 53.1019 13.105 53.1656C12.7222 53.1018 12.7222 53.1018 12.4457 52.9246C12.1889 52.524 12.1825 52.3235 12.2685 51.8541C12.5016 51.52 12.7768 51.2361 13.0625 50.9467C13.4332 50.537 13.6296 50.2639 13.6296 49.699C13.2333 49.0323 12.7159 48.5046 12.1739 47.9557C12.0134 47.7922 11.8559 47.6262 11.6983 47.46C11.0975 46.8205 11.0975 46.8205 10.3208 46.458C9.25942 46.6172 8.35402 47.9179 7.60432 48.6609C7.50817 48.7562 7.50817 48.7562 7.41008 48.8533C7.07202 49.1884 6.73436 49.5238 6.39698 49.8596C6.11866 50.1364 5.83954 50.4123 5.55969 50.6875C5.21981 51.0218 4.88135 51.3575 4.54385 51.6942C4.41558 51.8217 4.28683 51.9487 4.15759 52.0752C3.97734 52.2519 3.79897 52.4303 3.62093 52.6091C3.51913 52.71 3.41734 52.8109 3.31247 52.9148C3.04971 53.2559 2.98759 53.469 2.96759 53.8958C3.27122 54.5803 3.87883 55.0929 4.39829 55.6203C4.51733 55.742 4.63534 55.8646 4.7523 55.9883C4.92246 56.1681 5.09544 56.3448 5.26934 56.521C5.4229 56.6795 5.4229 56.6795 5.57957 56.8412C6.04364 57.1585 6.26962 57.1399 6.82407 57.0717C7.07436 56.9552 7.07436 56.9552 7.25695 56.7558C7.33183 56.6833 7.40671 56.6107 7.48386 56.536C7.56557 56.4508 7.64729 56.3655 7.73148 56.2777C7.82679 56.1789 7.92211 56.0801 8.02031 55.9783C8.22976 55.7592 8.43921 55.5402 8.64841 55.3209C8.70174 55.2651 8.75506 55.2092 8.81 55.1517C8.91867 55.0369 9.02651 54.9212 9.13355 54.8049C10.0217 53.8427 10.0217 53.8427 10.5207 53.6959C10.9047 53.6823 11.1386 53.6921 11.4404 53.9417C11.6435 54.1907 11.6786 54.3704 11.7014 54.6898C11.548 55.2667 11.1755 55.6071 10.7647 56.0159C10.6942 56.087 10.6237 56.1581 10.551 56.2314C10.4017 56.3814 10.252 56.531 10.1019 56.6801C9.87415 56.9069 9.64858 57.1357 9.42312 57.3648C9.27733 57.5108 9.13142 57.6566 8.98537 57.8023C8.91881 57.8702 8.85226 57.938 8.78368 58.0079C8.21702 58.5653 7.64593 58.9482 6.84888 59.0602C6.70969 59.059 6.57049 59.0579 6.42708 59.0567C6.28789 59.0578 6.14869 59.059 6.00528 59.0602C5.11377 58.935 4.51336 58.4592 3.8976 57.8311C3.82919 57.7629 3.76079 57.6947 3.69032 57.6244C3.5471 57.481 3.40444 57.337 3.26232 57.1925C3.04556 56.9724 2.82674 56.7546 2.6076 56.5369C2.46798 56.3966 2.32848 56.2561 2.18912 56.1156C2.09182 56.0188 2.09182 56.0188 1.99255 55.92C1.3616 55.2741 1.08026 54.6545 1.01099 53.754C1.12199 52.0891 2.38957 51.0344 3.50149 49.921C3.62989 49.7919 3.75828 49.6627 3.88665 49.5336C4.15442 49.2644 4.42265 48.9958 4.69116 48.7274C5.03285 48.3857 5.37295 48.0425 5.71267 47.6989C5.97687 47.4322 6.24212 47.1665 6.50765 46.9011C6.6334 46.7751 6.75879 46.6487 6.88379 46.5219C8.60012 44.7835 8.60012 44.7835 9.65972 44.5949C9.89138 44.6153 10.1229 44.6366 10.3545 44.6587C10.8562 44.6683 11.0718 44.64 11.483 44.3428C11.7623 44.0594 12.0217 43.7726 12.2685 43.4606C12.1254 42.9988 11.9513 42.5887 11.7227 42.1633C10.7782 40.2975 10.3886 38.3429 10.4112 36.2651C10.4117 36.1884 10.4122 36.1117 10.4128 36.0327C10.4282 34.1183 10.7222 32.2615 11.588 30.53C11.5992 30.3051 11.6031 30.0798 11.6036 29.8546C11.6042 29.7106 11.6049 29.5665 11.6055 29.4181C11.6056 29.2576 11.6057 29.097 11.6059 28.9364C11.6064 28.768 11.607 28.5996 11.6076 28.4311C11.6089 28.0676 11.6098 27.7042 11.6106 27.3407C11.6118 26.7647 11.6141 26.1886 11.6166 25.6126C11.6236 23.9743 11.6297 22.336 11.6335 20.6977C11.6356 19.7934 11.6389 18.8892 11.6435 17.9849C11.6458 17.5069 11.6476 17.0288 11.6479 16.5508C11.6481 16.0998 11.6499 15.6488 11.6529 15.1978C11.6537 15.0335 11.654 14.8692 11.6536 14.7049C11.6468 11.3033 13.2853 9.64908 15.5366 7.3854C15.6452 7.27613 15.6452 7.27613 15.7559 7.16466C16.138 6.78024 16.5204 6.39619 16.9031 6.0124C17.295 5.61933 17.6854 5.22494 18.0756 4.83025C18.3795 4.52344 18.6843 4.21766 18.9894 3.91213C19.1338 3.76723 19.2778 3.62195 19.4213 3.47627C21.0006 1.8751 21.0006 1.8751 22.0231 1.37958C22.1023 1.3403 22.1814 1.30102 22.2629 1.26055C23.2919 0.814095 24.3214 0.861059 25.4212 0.86537ZM23.838 3.31491C23.4668 3.86003 23.4808 4.2674 23.4777 4.91218C23.4751 5.12699 23.4724 5.34181 23.4695 5.55662C23.4656 5.89432 23.4623 6.23196 23.4607 6.56968C23.4509 8.37887 23.4051 9.96828 22.0617 11.3243C21.0448 12.2578 19.8833 12.527 18.5344 12.5303C18.3234 12.5332 18.1123 12.5361 17.9013 12.539C17.5722 12.5422 17.2432 12.545 16.9142 12.5471C16.5941 12.5495 16.274 12.554 15.954 12.5587C15.8072 12.5587 15.8072 12.5587 15.6575 12.5587C14.9517 12.5703 14.452 12.6867 13.9415 13.2113C13.4646 13.9438 13.4848 14.6466 13.4904 15.4922C13.4904 15.6217 13.4904 15.7513 13.4903 15.8847C13.4905 16.3119 13.4923 16.739 13.494 17.1662C13.4945 17.4627 13.4948 17.7593 13.495 18.0559C13.4957 18.756 13.4976 19.4562 13.4999 20.1563C13.5024 20.9537 13.5036 21.7511 13.5048 22.5486C13.5072 24.1882 13.5111 25.8279 13.5162 27.4675C13.6441 27.3589 13.7718 27.2502 13.8994 27.1413C14.0061 27.0505 14.0061 27.0505 14.115 26.9578C14.329 26.7705 14.522 26.5711 14.7143 26.3616C17.0839 23.9784 20.5851 22.8069 23.8947 22.7745C27.1766 22.8099 30.3413 23.9098 32.7986 26.1064C32.8698 26.1629 32.941 26.2193 33.0144 26.2775C35.5055 28.2545 36.8621 31.6698 37.2679 34.7308C37.2988 35.0321 37.3206 35.3317 37.3356 35.6342C37.3403 35.719 37.345 35.8038 37.3498 35.8912C37.3928 37.4699 37.1067 39.0069 36.6551 40.5115C36.5793 40.7761 36.5036 41.0408 36.4282 41.3055C37.5198 41.3161 38.6113 41.3241 39.7029 41.329C40.2098 41.3314 40.7167 41.3346 41.2236 41.3397C41.7134 41.3447 42.2032 41.3474 42.693 41.3486C42.8793 41.3494 43.0656 41.351 43.2518 41.3535C44.3598 41.3675 45.3317 41.3761 46.2214 40.6289C46.2812 40.5551 46.341 40.4813 46.4026 40.4052C46.4645 40.3316 46.5263 40.2581 46.5901 40.1823C46.8993 39.7223 47.0052 39.319 47.006 38.768C47.0071 38.5858 47.0071 38.5858 47.0082 38.3999C47.0077 38.2007 47.0077 38.2007 47.0072 37.9975C47.008 37.7851 47.008 37.7851 47.0087 37.5685C47.0101 37.1758 47.0101 36.7831 47.0098 36.3904C47.0098 35.9668 47.011 35.5431 47.0121 35.1195C47.014 34.2896 47.0146 33.4597 47.0147 32.6298C47.0149 31.9552 47.0153 31.2806 47.016 30.606C47.018 28.6932 47.0191 26.7805 47.0189 24.8678C47.0189 24.7647 47.0189 24.6616 47.0189 24.5553C47.0189 24.4005 47.0189 24.4005 47.0189 24.2425C47.0188 22.5693 47.0209 20.8962 47.0241 19.2231C47.0274 17.505 47.029 15.787 47.0288 14.0689C47.0287 13.1044 47.0293 12.1399 47.0318 11.1754C47.0338 10.3542 47.0343 9.53294 47.0328 8.71171C47.032 8.29281 47.032 7.87394 47.034 7.45504C47.0361 7.00063 47.0347 6.54631 47.0329 6.0919C47.0347 5.89387 47.0347 5.89387 47.0365 5.69184C47.0289 4.8053 46.9009 4.19255 46.3003 3.5072C45.4257 2.78332 44.7024 2.61409 43.5654 2.61134C43.4872 2.611 43.4091 2.61066 43.3286 2.61032C43.0682 2.60934 42.8078 2.60916 42.5473 2.60899C42.36 2.60846 42.1727 2.60789 41.9854 2.60728C41.4776 2.6058 40.9697 2.60506 40.4619 2.60456C40.1443 2.60423 39.8267 2.60376 39.5092 2.60325C38.5147 2.6017 37.5202 2.60061 36.5257 2.60017C35.3793 2.59966 34.2328 2.59767 33.0864 2.59438C32.1991 2.59193 31.3118 2.59079 30.4245 2.59064C29.8951 2.59052 29.3657 2.58985 28.8362 2.58782C28.338 2.58595 27.8399 2.58571 27.3417 2.5867C27.1594 2.58679 26.9771 2.5863 26.7948 2.58518C25.1682 2.52257 25.1682 2.52257 23.838 3.31491ZM21.1306 4.41181C21.0685 4.47421 21.0063 4.5366 20.9422 4.60089C20.877 4.66598 20.8117 4.73107 20.7444 4.79814C20.5275 5.01457 20.311 5.23142 20.0945 5.44829C19.9446 5.59808 19.7947 5.74784 19.6448 5.8976C19.3303 6.21199 19.0159 6.52659 18.7017 6.84133C18.2979 7.2458 17.8936 7.64975 17.4891 8.05356C17.1794 8.36287 16.8699 8.67245 16.5605 8.98211C16.4115 9.13121 16.2624 9.28023 16.1132 9.42916C15.9051 9.63694 15.6974 9.84507 15.4898 10.0533C15.3962 10.1466 15.3962 10.1466 15.3007 10.2417C15.0087 10.4781 15.0087 10.4781 14.8773 10.7939C15.5188 10.8081 16.1603 10.8183 16.8019 10.8251C17.0197 10.8279 17.2375 10.8318 17.4553 10.8367C19.3041 10.9069 19.3041 10.9069 20.8753 10.0309C21.506 9.38878 21.7217 8.60985 21.7214 7.73087C21.7197 7.63631 21.7179 7.54175 21.7161 7.44432C21.7154 7.29519 21.7154 7.29519 21.7146 7.14305C21.7128 6.82872 21.7085 6.51448 21.7041 6.20018C21.7024 5.98574 21.7009 5.77129 21.6995 5.55685C21.6958 5.03399 21.6899 4.5112 21.6829 3.98838C21.4418 3.98838 21.2922 4.25112 21.1306 4.41181ZM48.7917 6.2569C48.7916 6.36203 48.7916 6.36203 48.7915 6.46928C48.7874 10.6255 48.781 14.7817 48.7715 18.9379C48.7703 19.4372 48.7692 19.9365 48.7681 20.4358C48.7678 20.5849 48.7678 20.5849 48.7675 20.737C48.7639 22.3454 48.762 23.9538 48.7607 25.5622C48.7593 27.2132 48.7561 28.8642 48.7514 30.5152C48.7486 31.5336 48.7471 32.5519 48.7473 33.5702C48.7473 34.269 48.7456 34.9678 48.7426 35.6666C48.741 36.0694 48.7401 36.4723 48.7411 36.8751C48.7422 37.3128 48.7398 37.7504 48.7371 38.1881C48.738 38.3142 48.7389 38.4403 48.7398 38.5703C48.7265 39.784 48.3946 40.869 47.544 41.7592C46.5252 42.6832 45.6033 43.0332 44.2288 43.0068C44.0372 43.0042 43.8456 43.0017 43.654 42.9992C43.5529 42.9978 43.4519 42.9963 43.3478 42.9948C42.6976 42.9868 42.0474 42.9861 41.3972 42.9842C40.8266 42.9821 40.2563 42.9773 39.6859 42.9669C39.1328 42.9569 38.5801 42.9541 38.0269 42.9562C37.8169 42.9557 37.6069 42.9527 37.3969 42.9469C36.3054 42.8792 36.3054 42.8792 35.3287 43.2711C35.0146 43.6119 34.5 44.2232 34.5 44.7083C36.2422 44.7162 37.9845 44.7222 39.7267 44.7259C40.5358 44.7277 41.3448 44.7301 42.1538 44.734C42.8593 44.7374 43.5648 44.7395 44.2703 44.7403C44.6436 44.7407 45.0168 44.742 45.39 44.7443C45.8076 44.7467 46.2252 44.7471 46.6427 44.7469C46.7653 44.7481 46.8878 44.7494 47.0141 44.7506C48.0328 44.7465 48.8792 44.5894 49.6419 43.878C50.1817 43.2751 50.3933 42.6523 50.3949 41.8539C50.3956 41.6752 50.3956 41.6752 50.3964 41.4929C50.3964 41.3622 50.3963 41.2314 50.3963 41.0967C50.3967 40.9577 50.3972 40.8187 50.3976 40.6755C50.3986 40.2894 50.3991 39.9034 50.3994 39.5173C50.3999 39.101 50.401 38.6847 50.402 38.2684C50.4042 37.263 50.4053 36.2575 50.4064 35.252C50.4069 34.7784 50.4075 34.3047 50.4081 33.8311C50.41 32.2564 50.4116 30.6816 50.4124 29.1069C50.4127 28.6983 50.4129 28.2897 50.4131 27.8811C50.4132 27.7796 50.4132 27.6781 50.4133 27.5734C50.4142 25.9287 50.4171 24.2839 50.4208 22.6392C50.4245 20.9501 50.4266 19.261 50.4269 17.5719C50.4272 16.6238 50.4282 15.6756 50.4311 14.7274C50.4335 13.9199 50.4344 13.1123 50.4333 12.3047C50.4328 11.8929 50.433 11.4812 50.4352 11.0694C50.4376 10.6222 50.4364 10.1752 50.4349 9.72804C50.4362 9.59881 50.4374 9.46958 50.4387 9.33644C50.4312 8.40213 50.282 7.58206 49.6623 6.85504C49.5296 6.74845 49.5296 6.74845 49.3942 6.63971C49.3049 6.56572 49.2156 6.49174 49.1235 6.41551C48.9348 6.24579 48.9348 6.24579 48.7917 6.2569ZM52.1944 9.65967C52.1943 9.76336 52.1943 9.76337 52.1941 9.86915C52.1875 13.9685 52.1791 18.0679 52.1685 22.1673C52.1672 22.6598 52.1659 23.1523 52.1647 23.6448C52.1644 23.7428 52.1642 23.8409 52.1639 23.9419C52.1599 25.5283 52.1571 27.1146 52.1547 28.701C52.1522 30.3295 52.1485 31.9579 52.1435 33.5864C52.1405 34.5908 52.1385 35.5951 52.1378 36.5995C52.1372 37.2888 52.1354 37.978 52.1326 38.6673C52.131 39.0646 52.1299 39.462 52.1304 39.8593C52.1305 40.291 52.1286 40.7227 52.1262 41.1544C52.1271 41.3409 52.1271 41.3409 52.1279 41.5312C52.1153 42.906 51.7768 44.1128 50.8621 45.1624C49.629 46.3494 48.122 46.4275 46.5095 46.4186C46.2812 46.418 46.0528 46.4175 45.8245 46.4171C45.5802 46.4165 45.3359 46.4157 45.0916 46.4149C44.5809 46.4134 44.0703 46.4136 43.5596 46.4143C43.43 46.4144 43.43 46.4144 43.2977 46.4146C43.0318 46.4149 42.7658 46.4153 42.4998 46.4157C41.4013 46.4171 40.3029 46.4173 39.2044 46.4124C38.4017 46.4088 37.599 46.4085 36.7963 46.4118C36.3722 46.4135 35.9483 46.4135 35.5242 46.4096C35.0507 46.4053 34.5775 46.4081 34.104 46.4115C33.9651 46.4091 33.8261 46.4067 33.683 46.4043C32.7986 46.4181 32.3282 46.6036 31.6774 47.2082C31.3596 47.5027 31.026 47.6847 30.6435 47.8842C30.6435 47.9216 30.6435 47.9591 30.6435 47.9976C33.3599 48.0109 36.0762 48.0209 38.7926 48.027C40.0539 48.0299 41.3152 48.0339 42.5765 48.0404C43.6761 48.0461 44.7757 48.0497 45.8753 48.051C46.4573 48.0517 47.0393 48.0535 47.6213 48.0576C48.1696 48.0615 48.7179 48.0626 49.2663 48.0618C49.467 48.0619 49.6678 48.0631 49.8685 48.0652C51.4032 48.0891 51.4032 48.0891 52.7616 47.4305C53.4897 46.6542 53.7031 45.9715 53.699 44.9263C53.6995 44.8223 53.7 44.7184 53.7005 44.6114C53.7019 44.2631 53.7017 43.9148 53.7015 43.5665C53.7022 43.3168 53.703 43.0671 53.7039 42.8175C53.7056 42.2798 53.7066 41.7422 53.707 41.2045C53.7078 40.3548 53.7103 39.5051 53.713 38.6554C53.7167 37.4646 53.7197 36.2737 53.7221 35.0829C53.7222 35.0074 53.7224 34.9318 53.7225 34.854C53.7238 34.241 53.725 33.6279 53.7261 33.0149C53.7272 32.4789 53.7282 31.9429 53.7293 31.4069C53.7294 31.3314 53.7296 31.2559 53.7297 31.1781C53.7323 29.9199 53.7357 28.6618 53.7398 27.4036C53.7424 26.5585 53.744 25.7133 53.7447 24.8682C53.7454 24.3431 53.747 23.818 53.7488 23.2929C53.7495 23.0489 53.7498 22.8049 53.7496 22.5609C53.7495 22.2286 53.7508 21.8962 53.7523 21.5639C53.752 21.4667 53.7516 21.3696 53.7512 21.2695C53.7548 20.8153 53.7712 20.4843 54.0093 20.0949C54.3552 19.9219 54.6492 19.9547 55.0301 19.9814C55.2228 20.1256 55.2228 20.1256 55.3704 20.3217C55.4041 20.6689 55.4167 20.993 55.4143 21.3403C55.4153 21.4985 55.4153 21.4985 55.4162 21.66C55.4178 22.015 55.417 22.3699 55.4162 22.7249C55.4168 22.9789 55.4176 23.2328 55.4186 23.4867C55.4206 24.1779 55.4205 24.869 55.4198 25.5601C55.4195 26.1371 55.4202 26.714 55.4208 27.291C55.4225 28.7307 55.4221 30.1704 55.4207 31.6102C55.4196 32.8588 55.4211 34.1074 55.4238 35.356C55.4266 36.6389 55.4276 37.9218 55.4269 39.2047C55.4265 39.9246 55.4268 40.6445 55.4287 41.3644C55.4305 42.0421 55.43 42.7199 55.4279 43.3976C55.4275 43.6459 55.4278 43.8941 55.429 44.1423C55.4366 45.8495 55.3906 47.2793 54.1227 48.5648C53.1141 49.4189 51.9443 49.7688 50.6405 49.7579C50.525 49.7587 50.4096 49.7596 50.2906 49.7605C49.9073 49.7628 49.524 49.7619 49.1407 49.7609C48.8645 49.7619 48.5883 49.7631 48.3121 49.7645C47.7193 49.767 47.1266 49.7681 46.5338 49.768C45.6767 49.7678 44.8197 49.7701 43.9626 49.773C42.5718 49.7777 41.181 49.7803 39.7902 49.7817C38.4399 49.7831 37.0896 49.7854 35.7392 49.7889C35.6559 49.7891 35.5725 49.7894 35.4866 49.7896C35.0684 49.7907 34.6502 49.7918 34.232 49.793C30.7673 49.8023 27.3027 49.8084 23.838 49.8125C24.3655 50.6155 24.8528 51.1405 25.8254 51.348C26.3426 51.4167 26.8502 51.4168 27.3714 51.4163C27.5449 51.4169 27.5449 51.4169 27.7219 51.4174C28.1092 51.4183 28.4966 51.4185 28.884 51.4187C29.1618 51.4192 29.4396 51.4198 29.7174 51.4204C30.4721 51.4219 31.2267 51.4226 31.9813 51.4231C32.4528 51.4234 32.9242 51.4239 33.3957 51.4244C34.702 51.4258 36.0083 51.427 37.3146 51.4274C37.3981 51.4274 37.4816 51.4274 37.5677 51.4274C37.6933 51.4275 37.6933 51.4275 37.8214 51.4275C37.9911 51.4276 38.1607 51.4276 38.3304 51.4277C38.4145 51.4277 38.4987 51.4277 38.5854 51.4277C39.9489 51.4282 41.3124 51.4302 42.6759 51.4328C44.077 51.4355 45.4781 51.4369 46.8792 51.437C47.6654 51.4371 48.4516 51.4378 49.2378 51.4399C49.9772 51.4418 50.7167 51.442 51.4562 51.441C51.7274 51.4409 51.9986 51.4414 52.2698 51.4425C52.6404 51.4439 53.011 51.4433 53.3817 51.4421C53.542 51.4435 53.542 51.4435 53.7056 51.4449C54.78 51.4369 55.7345 51.1585 56.5046 50.3796C56.9133 49.7666 57.0855 49.1675 57.087 48.4344C57.0877 48.2563 57.0877 48.2563 57.0885 48.0746C57.0885 47.9443 57.0885 47.814 57.0885 47.6797C57.0891 47.4719 57.0891 47.4719 57.0897 47.2599C57.0908 46.8751 57.0913 46.4904 57.0916 46.1056C57.092 45.6907 57.0931 45.2758 57.0941 44.8609C57.0963 43.8588 57.0975 42.8567 57.0985 41.8546C57.099 41.3825 57.0996 40.9105 57.1002 40.4384C57.1021 38.8689 57.1038 37.2994 57.1046 35.73C57.1048 35.3227 57.105 34.9155 57.1052 34.5083C57.1053 34.4071 57.1053 34.3059 57.1054 34.2016C57.1063 32.5624 57.1092 30.9231 57.1129 29.2839C57.1167 27.6004 57.1187 25.917 57.1191 24.2336C57.1193 23.2885 57.1203 22.3436 57.1232 21.3986C57.1257 20.5937 57.1266 19.7888 57.1255 18.984C57.125 18.5735 57.1252 18.1631 57.1274 17.7527C57.1297 17.3071 57.1286 16.8615 57.1271 16.4159C57.1283 16.2871 57.1296 16.1583 57.1309 16.0256C57.1235 15.1106 56.9621 14.3247 56.412 13.576C56.3467 13.5165 56.2813 13.457 56.214 13.3956C56.1155 13.3024 56.1155 13.3024 56.015 13.2073C55.8143 13.039 55.8143 13.039 55.4838 12.949C55.4822 13.168 55.4822 13.168 55.4806 13.3913C55.4761 13.9323 55.4686 14.4732 55.4603 15.0141C55.4571 15.2484 55.4546 15.4826 55.4531 15.7169C55.4506 16.0534 55.4453 16.3897 55.4395 16.7262C55.4393 16.8311 55.4392 16.9361 55.4391 17.0442C55.4225 17.7684 55.4225 17.7684 55.1559 18.0647C54.8633 18.1894 54.6904 18.1817 54.3779 18.1312C54.2872 18.1176 54.1966 18.104 54.1032 18.09C54.0348 18.0778 53.9663 18.0657 53.8958 18.0532C53.7891 17.6917 53.7677 17.366 53.7663 16.9897C53.7655 16.8678 53.7647 16.7458 53.7639 16.6202C53.7634 16.4889 53.763 16.3577 53.7625 16.2224C53.7598 15.9437 53.7571 15.665 53.7543 15.3864C53.7503 14.9475 53.747 14.5088 53.7454 14.0699C53.7437 13.646 53.7391 13.2222 53.7341 12.7984C53.7344 12.6029 53.7344 12.6029 53.7348 12.4034C53.7212 11.5058 53.5993 10.8755 52.9765 10.1914C52.8596 10.0966 52.8596 10.0966 52.7403 9.99995C52.6615 9.93445 52.5827 9.86894 52.5015 9.80146C52.3326 9.6485 52.3326 9.6485 52.1944 9.65967ZM16.125 27.4675C16.0702 27.5171 16.0155 27.5666 15.9591 27.6176C13.9323 29.4616 12.4143 32.1707 12.2484 34.9498C12.1998 37.4224 12.3985 39.4297 13.5162 41.6458C13.5756 41.7645 13.6349 41.8832 13.6961 42.0056C15.1227 44.636 17.6931 46.6072 20.5455 47.4558C23.7015 48.3421 26.8676 47.957 29.7361 46.3955C32.4193 44.8761 34.373 42.2803 35.2233 39.329C36.0475 36.2626 35.59 33.0672 34.0463 30.3032C32.3664 27.4647 29.6743 25.6128 26.5143 24.7973C22.9035 23.9202 18.8513 24.933 16.125 27.4675ZM13.2069 45.1088C13.1003 45.2194 13.1003 45.2194 12.9916 45.3321C12.92 45.4058 12.8483 45.4795 12.7745 45.5554C12.7198 45.6128 12.6651 45.6701 12.6088 45.7291C13.1088 46.3292 13.6382 46.8847 14.1968 47.4305C14.5327 47.2826 14.7364 47.1379 14.9624 46.8492C15.0466 46.7416 15.1308 46.634 15.2176 46.5231C15.1315 46.4465 15.0454 46.3699 14.9566 46.2909C14.8427 46.1888 14.7289 46.0865 14.615 45.9843C14.5584 45.934 14.5017 45.8837 14.4433 45.8319C14.1954 45.6086 13.973 45.393 13.7736 45.1248C13.7261 45.0622 13.6786 44.9996 13.6296 44.9351C13.3874 44.9101 13.3874 44.9101 13.2069 45.1088Z" fill="#C45824"/>
<path d="M30.0387 28.5043C30.126 28.5739 30.2133 28.6435 30.3032 28.7152C30.398 28.7873 30.4927 28.8594 30.5904 28.9337C32.3524 30.4141 33.4665 32.8054 33.706 35.0671C33.9116 37.9642 33.1559 40.5925 31.2527 42.8261C29.4417 44.8072 27.0142 45.9575 24.3302 46.0836C21.8732 46.1354 19.4713 45.4224 17.5995 43.8009C17.5161 43.7336 17.4326 43.6664 17.3465 43.5971C15.4393 42.0083 14.3663 39.6579 14.0833 37.2222C13.9124 34.4864 14.6351 31.8277 16.4653 29.7361C17.6387 28.4212 18.9811 27.4684 20.662 26.9004C20.7903 26.856 20.9185 26.8115 21.0506 26.7657C24.2128 25.82 27.4521 26.5328 30.0387 28.5043ZM18.5069 30.3032C18.4264 30.3744 18.3458 30.4456 18.2628 30.519C16.6911 31.9942 15.9161 34.1096 15.8485 36.2368C15.9092 38.5805 16.8559 40.5993 18.5331 42.2324C19.6325 43.1826 21.0531 43.8617 22.4769 44.1412C22.6734 44.1798 22.6734 44.1798 22.8738 44.2191C25.2013 44.4269 27.3003 43.7567 29.1309 42.3153C30.7094 40.9632 31.6931 39.0503 31.917 36.984C32.068 34.939 31.5316 32.9761 30.2842 31.3422C30.0366 31.0578 29.7794 30.7929 29.5093 30.53C29.4231 30.4416 29.337 30.3531 29.2483 30.262C27.7082 28.7622 25.6927 28.1869 23.5861 28.2079C21.636 28.2734 19.9575 29.0098 18.5069 30.3032Z" fill="#C45824"/>
<path d="M28.4317 30.9342C29.1032 31.344 29.5554 31.9358 29.7964 32.6816C30.0949 33.9753 29.4167 35.0667 28.7933 36.1518C28.7236 36.2746 28.6539 36.3975 28.582 36.5241C28.0262 37.5011 27.4614 38.473 26.8912 39.4417C26.5973 39.9416 26.3066 40.4419 26.0307 40.952C25.9854 41.0354 25.94 41.1188 25.8933 41.2047C25.8124 41.3546 25.7326 41.5052 25.6544 41.6565C25.2997 42.3128 24.7832 42.791 24.0772 43.0628C23.2723 43.2565 22.4301 43.2117 21.6913 42.8297C21.2265 42.5076 20.8944 42.0887 20.5486 41.6458C20.4651 41.5394 20.3816 41.4329 20.2956 41.3233C20.1087 41.0818 19.9233 40.8397 19.7391 40.5962C19.4973 40.2775 19.2502 39.9635 19.001 39.6507C18.9298 39.5608 18.8586 39.471 18.7852 39.3784C18.6453 39.2019 18.5047 39.0259 18.3633 38.8505C17.7241 38.0407 17.3072 37.2397 17.3931 36.1757C17.5241 35.3977 17.8866 34.8103 18.5065 34.3214C18.9078 34.0567 19.2679 33.8569 19.7546 33.8194C19.8763 33.8101 19.9979 33.8007 20.1233 33.7911C20.9907 33.8489 21.6226 34.1137 22.25 34.7268C22.4433 34.9503 22.6294 35.1791 22.8171 35.4074C22.8891 35.2754 22.8891 35.2754 22.9625 35.1407C23.1433 34.8097 23.3248 34.4792 23.5067 34.1488C23.5848 34.0066 23.6626 33.8643 23.7403 33.7218C24.7224 31.9198 26.0168 29.8458 28.4317 30.9342ZM26.4442 32.8204C26.2299 33.1247 26.0432 33.4286 25.8641 33.7547C25.7665 33.9311 25.7665 33.9311 25.667 34.1109C25.5991 34.2346 25.5313 34.3584 25.4614 34.4858C24.9559 35.3999 24.4461 36.3083 23.8935 37.1949C23.6764 37.5241 23.6764 37.5241 23.6111 37.9028C22.7974 38.0545 22.7974 38.0545 22.4325 37.9054C22.0175 37.5835 21.7493 37.1887 21.4489 36.7614C21.3327 36.5964 21.2156 36.432 21.0976 36.2683C21.0465 36.1956 20.9955 36.1229 20.9429 36.048C20.7502 35.8329 20.591 35.7364 20.3218 35.6342C19.9687 35.6559 19.7288 35.6872 19.4356 35.8895C19.2495 36.1637 19.1951 36.3201 19.1875 36.6551C19.4892 37.2471 19.8577 37.7461 20.2792 38.2572C20.4001 38.406 20.521 38.5549 20.6417 38.7038C20.7019 38.7781 20.7622 38.8524 20.8243 38.9289C21.1883 39.382 21.5394 39.8449 21.892 40.3069C21.9727 40.4118 22.0534 40.5168 22.1366 40.625C22.2173 40.73 22.298 40.8349 22.3811 40.9431C22.6394 41.2506 22.7393 41.2952 23.1361 41.3481C23.5232 41.3025 23.6416 41.2263 23.9026 40.9489C24.2818 40.4568 24.5578 39.8943 24.8517 39.3489C24.9261 39.2126 25.0006 39.0764 25.0752 38.9402C25.1904 38.7298 25.3055 38.5194 25.4203 38.3088C25.8152 37.5839 26.2193 36.8642 26.624 36.1447C26.8088 35.8159 26.9934 35.487 27.1761 35.1571C27.2992 34.9381 27.4256 34.7211 27.5548 34.5057C27.65 34.3432 27.65 34.3432 27.7472 34.1774C27.8051 34.0813 27.8629 33.9852 27.9226 33.8861C28.0646 33.5143 28.0247 33.2922 27.9213 32.912C27.6515 32.6008 27.4812 32.5737 27.0706 32.515C26.6631 32.5306 26.6631 32.5306 26.4442 32.8204Z" fill="#C45824"/>
<path d="M30.9359 13.9026C31.0583 13.9029 31.1807 13.9031 31.3068 13.9034C31.4978 13.9083 31.4978 13.9083 31.6927 13.9132C31.8183 13.9129 31.9439 13.9126 32.0733 13.9123C33.0204 13.9236 33.8376 14.0353 34.5704 14.6983C35.4968 15.7585 35.6145 17.0453 35.5425 18.3888C35.4517 19.3595 34.9951 20.1364 34.2731 20.7755C33.446 21.3597 32.7082 21.373 31.7282 21.3851C31.5982 21.3894 31.4683 21.3936 31.3345 21.398C31.2095 21.3993 31.0846 21.4006 30.9559 21.402C30.8416 21.4042 30.7274 21.4065 30.6096 21.4088C30.3032 21.3426 30.3032 21.3426 30.0394 21.1428C29.7429 20.5691 29.7848 20.0119 29.7893 19.3754C29.7888 19.239 29.7884 19.1027 29.788 18.9623C29.7877 18.6743 29.7885 18.3864 29.7904 18.0985C29.7928 17.6578 29.7904 17.2174 29.7875 16.7768C29.7878 16.4969 29.7884 16.217 29.7893 15.9371C29.7884 15.8054 29.7874 15.6736 29.7865 15.5379C29.797 14.638 29.797 14.638 30.0406 14.1702C30.3639 13.9237 30.5318 13.8996 30.9359 13.9026ZM31.6643 15.7847C31.6643 17.0199 31.6643 18.2551 31.6643 19.5278C32.7163 19.628 32.7163 19.628 33.1956 19.2797C33.7503 18.6556 33.749 18.0783 33.7344 17.2708C33.6881 16.6971 33.5008 16.394 33.1318 15.969C32.6967 15.6932 32.6967 15.6932 31.6643 15.7847Z" fill="#C45824"/>
<path d="M24.4051 13.9699C24.6536 14.139 24.6536 14.139 24.8588 14.4236C24.9022 14.7597 24.9194 15.055 24.9159 15.3908C24.917 15.4845 24.9181 15.5782 24.9192 15.6747C24.9224 15.9737 24.9228 16.2726 24.9226 16.5716C24.923 16.8702 24.9241 17.1687 24.9272 17.4673C24.9291 17.6528 24.9295 17.8384 24.928 18.024C24.9328 18.5418 24.9755 18.8814 25.3125 19.3009C25.6338 19.4762 25.8471 19.5648 26.2097 19.4728C26.6339 19.3089 26.6339 19.3089 26.9005 18.9606C26.9128 18.6366 26.9188 18.3149 26.9204 17.9908C26.923 17.7925 26.9258 17.5942 26.9286 17.3959C26.9326 17.0831 26.9359 16.7702 26.9374 16.4573C26.9392 16.1555 26.9437 15.8539 26.9488 15.5521C26.9485 15.459 26.9483 15.3659 26.9481 15.2699C26.9578 14.8151 26.9815 14.5881 27.2306 14.1945C27.4676 13.9699 27.4676 13.9699 27.6944 13.8986C27.7693 13.901 27.8442 13.9035 27.9213 13.9061C27.9962 13.9059 28.071 13.9058 28.1481 13.9056C28.4947 14.0038 28.6119 14.1331 28.8287 14.4236C28.8975 14.7816 28.8923 15.1353 28.889 15.4989C28.8894 15.6041 28.8898 15.7093 28.8903 15.8177C28.8906 16.0403 28.8897 16.2629 28.8878 16.4856C28.8854 16.8237 28.8878 17.1615 28.8907 17.4996C28.8904 17.7165 28.8898 17.9334 28.889 18.1503C28.8899 18.2503 28.8908 18.3502 28.8917 18.4533C28.8802 19.2293 28.7179 19.9422 28.1849 20.5321C27.3568 21.3014 26.6031 21.4078 25.4937 21.3816C24.6372 21.2997 24.1217 20.9081 23.5438 20.2907C22.9987 19.6215 23.0262 18.7319 23.0249 17.9075C23.0245 17.8191 23.0242 17.7308 23.0238 17.6398C23.0232 17.454 23.0229 17.2682 23.023 17.0824C23.0227 16.7989 23.0206 16.5155 23.0185 16.232C23.0182 16.0508 23.0179 15.8697 23.0178 15.6886C23.017 15.6043 23.0162 15.5201 23.0154 15.4332C23.0174 14.9729 23.0455 14.603 23.2708 14.1967C23.6928 13.9154 23.9058 13.9173 24.4051 13.9699Z" fill="#C45824"/>
<path d="M19.3506 13.899C19.4346 13.8952 19.5187 13.8914 19.6053 13.8875C20.0107 14.0146 20.2088 14.3075 20.4352 14.6504C20.6289 15.0507 20.7833 15.463 20.9372 15.8799C21.004 16.0569 21.004 16.0569 21.0721 16.2375C21.1655 16.4862 21.2582 16.7351 21.3503 16.9843C21.4911 17.3646 21.6348 17.7438 21.7788 18.123C21.8694 18.3653 21.9599 18.6078 22.0502 18.8503C22.0931 18.9631 22.1359 19.076 22.1801 19.1923C22.3956 19.7815 22.5465 20.2602 22.4769 20.8888C22.3067 21.1653 22.3067 21.1653 22.0232 21.3425C21.7047 21.4117 21.4335 21.4171 21.1157 21.3425C20.6424 20.9315 20.6171 20.6182 20.4352 19.9814C19.724 19.9814 19.0128 19.9814 18.2801 19.9814C18.1678 20.3183 18.0555 20.6552 17.9398 21.0023C17.5995 21.3425 17.5995 21.3425 17.1529 21.3922C16.8198 21.3774 16.6999 21.3474 16.4086 21.1653C16.1828 20.7984 16.1815 20.5103 16.2384 20.0949C16.3641 19.6507 16.5279 19.2232 16.6939 18.7927C16.764 18.6072 16.764 18.6072 16.8356 18.4179C16.9345 18.1573 17.0341 17.897 17.1343 17.6368C17.2873 17.2388 17.4376 16.8398 17.5876 16.4406C17.6842 16.1872 17.7809 15.9339 17.8778 15.6806C17.9226 15.5613 17.9674 15.4421 18.0135 15.3193C18.0567 15.2083 18.0998 15.0974 18.1442 14.9831C18.1815 14.8857 18.2187 14.7884 18.2571 14.6881C18.509 14.1995 18.788 13.9048 19.3506 13.899ZM19.3009 17.2592C19.1325 17.7084 19.1325 17.7084 18.9607 18.1666C19.2227 18.1666 19.4847 18.1666 19.7546 18.1666C19.6423 17.8672 19.53 17.5677 19.4144 17.2592C19.3769 17.2592 19.3395 17.2592 19.3009 17.2592Z" fill="#C45824"/>
<path d="M40.8301 13.9278C40.9167 13.9268 41.0033 13.9258 41.0924 13.9247C41.2754 13.9231 41.4584 13.9221 41.6413 13.9216C41.921 13.9203 42.2003 13.9147 42.4799 13.909C42.6578 13.9079 42.8357 13.9071 43.0136 13.9066C43.1387 13.9032 43.1387 13.9032 43.2664 13.8998C43.6969 13.9036 43.8771 13.9345 44.194 14.2357C44.4067 14.6039 44.4393 14.799 44.3681 15.2176C44.1563 15.4788 43.9873 15.6348 43.6875 15.7847C43.3844 15.7999 43.0838 15.7896 42.7801 15.7847C42.7811 15.8477 42.7821 15.9106 42.7831 15.9754C42.7932 16.6305 42.8 17.2855 42.805 17.9405C42.8073 18.185 42.8104 18.4295 42.8143 18.6739C42.8198 19.0253 42.8224 19.3766 42.8244 19.7281C42.8267 19.8374 42.8291 19.9467 42.8315 20.0593C42.8318 20.8181 42.8318 20.8181 42.5647 21.1843C42.3095 21.3538 42.1766 21.407 41.8727 21.4064C41.7604 21.4101 41.7604 21.4101 41.6458 21.4139C41.2737 21.2969 41.1682 21.1058 40.9653 20.7755C40.9031 20.3925 40.9124 20.0155 40.921 19.6284C40.9216 19.5184 40.9223 19.4084 40.9229 19.2951C40.9255 18.9449 40.9311 18.5948 40.9369 18.2447C40.9392 18.0068 40.9413 17.7689 40.9431 17.5311C40.9481 16.9489 40.9559 16.3668 40.9653 15.7847C40.8409 15.7874 40.7164 15.79 40.5882 15.7927C40.1301 15.7839 39.9495 15.7405 39.6042 15.4445C39.4143 15.0648 39.3517 14.8662 39.4553 14.452C39.7846 13.8875 40.2454 13.9321 40.8301 13.9278Z" fill="#C45824"/>
<path d="M37.3357 13.899C37.4105 13.8976 37.4854 13.8961 37.5625 13.8946C37.9438 14.0212 38.0381 14.1884 38.2431 14.537C38.3123 15.0129 38.3066 15.4857 38.3033 15.9659C38.3037 16.1051 38.3042 16.2442 38.3046 16.3875C38.3049 16.6812 38.3041 16.975 38.3022 17.2687C38.2998 17.7188 38.3022 18.1687 38.3051 18.6188C38.3048 18.9042 38.3042 19.1896 38.3033 19.4751C38.3042 19.6099 38.3052 19.7447 38.3061 19.8836C38.3047 20.0089 38.3032 20.1342 38.3018 20.2633C38.3012 20.4285 38.3012 20.4285 38.3007 20.597C38.2269 20.971 38.0824 21.1067 37.7894 21.3426C37.4595 21.423 37.2287 21.3811 36.8819 21.3426C36.6353 21.1675 36.5623 21.0435 36.4282 20.7755C36.4157 20.5793 36.4102 20.3826 36.4082 20.186C36.4067 20.063 36.4053 19.9399 36.4038 19.8132C36.4029 19.6797 36.4021 19.5462 36.4012 19.4086C36.4003 19.2718 36.3994 19.135 36.3984 18.994C36.3969 18.7041 36.3957 18.4141 36.3948 18.1242C36.3928 17.6805 36.3878 17.237 36.3828 16.7934C36.3817 16.512 36.3807 16.2305 36.3799 15.9491C36.377 15.7499 36.377 15.7499 36.3739 15.5466C36.3764 14.6253 36.3764 14.6253 36.6439 14.1699C36.8993 13.9553 37.0059 13.8926 37.3357 13.899Z" fill="#C45824"/>
</g>
<defs>
<clipPath id="clip0_1794_523">
<rect width="58.0741" height="58.0741" fill="white" transform="translate(0.925926 0.925903)"/>
</clipPath>
</defs>
</svg>
