<?xml version="1.0" standalone="no"?>
<!DOCTYPE svg PUBLIC "-//W3C//DTD SVG 20010904//EN"
 "http://www.w3.org/TR/2001/REC-SVG-20010904/DTD/svg10.dtd">
<svg version="1.0" xmlns="http://www.w3.org/2000/svg"
 width="512.000000pt" height="512.000000pt" viewBox="0 0 512.000000 512.000000"
 preserveAspectRatio="xMidYMid meet">
<metadata>
Created by potrace 1.16, written by Peter Selinger 2001-2019
</metadata>
<g transform="translate(0.000000,512.000000) scale(0.100000,-0.100000)"
fill="#000000" stroke="none">
<path d="M2325 3985 c-447 -57 -899 -279 -1336 -654 -137 -118 -441 -426 -488
-495 -109 -159 -109 -393 0 -552 44 -65 347 -374 474 -483 439 -380 874 -600
1317 -665 137 -21 397 -21 537 -1 398 58 798 248 1200 568 139 111 539 504
591 581 108 160 108 394 -1 552 -45 66 -348 374 -478 487 -421 364 -845 580
-1281 652 -134 23 -399 28 -535 10z m370 -320 c341 -20 745 -203 1130 -511
123 -98 491 -460 524 -514 31 -52 28 -116 -9 -171 -41 -63 -393 -407 -520
-509 -216 -173 -491 -335 -700 -410 -192 -70 -363 -101 -561 -101 -418 0 -827
167 -1264 517 -123 98 -491 460 -524 514 -13 22 -21 52 -21 80 0 28 8 58 21
80 33 54 401 416 524 514 335 267 641 422 972 491 78 17 266 34 313 29 14 -2
66 -6 115 -9z"/>
<path d="M2360 3505 c-357 -80 -630 -337 -732 -691 -20 -69 -23 -101 -23 -254
0 -153 3 -185 23 -254 96 -332 344 -581 673 -677 113 -32 342 -38 466 -11 351
78 623 336 725 688 20 69 23 101 23 254 0 153 -3 185 -23 254 -96 332 -343
580 -673 677 -97 28 -359 36 -459 14z m400 -345 c184 -62 341 -219 401 -401
21 -64 24 -92 24 -209 -1 -128 -2 -139 -33 -215 -76 -190 -243 -339 -438 -390
-77 -20 -226 -20 -306 0 -227 59 -404 237 -463 465 -25 98 -17 261 18 359 116
325 473 500 797 391z"/>
</g>
</svg>
