<?xml version="1.0" standalone="no"?>
<!DOCTYPE svg PUBLIC "-//W3C//DTD SVG 20010904//EN"
 "http://www.w3.org/TR/2001/REC-SVG-20010904/DTD/svg10.dtd">
<svg version="1.0" xmlns="http://www.w3.org/2000/svg"
 width="512.000000pt" height="512.000000pt" viewBox="0 0 512.000000 512.000000"
 preserveAspectRatio="xMidYMid meet">
<metadata>
Created by potrace 1.16, written by Peter Selinger 2001-2019
</metadata>
<g transform="translate(0.000000,512.000000) scale(0.100000,-0.100000)"
fill="#000000" stroke="none">
<path d="M1032 4140 c-48 -29 -72 -75 -72 -138 0 -29 6 -65 14 -80 8 -15 687
-698 1508 -1519 1335 -1333 1497 -1493 1535 -1502 125 -33 235 77 202 202 -9
36 -45 76 -230 263 l-220 221 87 53 c116 71 264 182 355 266 149 136 561 550
575 576 18 34 18 121 0 156 -22 42 -561 570 -677 663 -378 301 -813 480 -1287
530 -148 15 -524 7 -650 -15 -138 -24 -284 -60 -399 -98 l-102 -35 -223 224
c-123 124 -235 231 -250 239 -40 21 -126 18 -166 -6z m1818 -646 c231 -31 462
-103 680 -214 240 -123 364 -219 675 -524 l200 -196 -210 -206 c-279 -273
-426 -390 -610 -486 l-65 -33 -141 141 -141 141 41 84 c59 121 81 217 81 359
0 253 -104 473 -296 628 -143 115 -311 172 -504 172 -142 0 -238 -22 -359 -81
l-83 -41 -89 88 c-48 48 -86 91 -83 95 5 9 192 54 289 70 172 27 416 29 615 3z
m-130 -489 c134 -47 254 -175 294 -314 21 -70 20 -192 0 -262 -9 -30 -18 -56
-20 -59 -5 -5 -624 611 -624 621 0 8 112 38 155 41 47 4 146 -9 195 -27z"/>
<path d="M1080 3354 c-41 -31 -104 -82 -140 -112 -106 -92 -591 -575 -606
-604 -18 -35 -18 -121 0 -156 22 -42 561 -570 677 -663 339 -270 736 -446
1159 -514 160 -26 520 -31 690 -11 133 17 334 57 347 70 4 4 -53 67 -127 141
l-135 134 -105 -15 c-126 -17 -403 -19 -526 -4 -263 32 -481 98 -716 217 -245
124 -367 217 -683 526 l-200 195 55 57 c144 149 430 413 522 481 57 42 105 78
108 80 6 6 -223 234 -235 234 -6 0 -44 -25 -85 -56z"/>
<path d="M1786 2779 c-33 -90 -35 -299 -6 -415 73 -287 298 -512 584 -584 119
-30 382 -24 418 9 4 4 -59 72 -140 153 -138 137 -151 147 -207 163 -89 25
-148 61 -215 131 -62 64 -100 132 -120 215 -10 40 -30 65 -160 194 -101 101
-151 144 -154 134z"/>
</g>
</svg>
