<svg width="32" height="32" viewBox="0 0 32 32" fill="none" xmlns="http://www.w3.org/2000/svg">
<g clip-path="url(#clip0_1589_220)">
<path d="M32 5V8C32 10.7625 24.8357 13 16 13C7.16429 13 0 10.7625 0 8V5C0 2.2375 7.16429 0 16 0C24.8357 0 32 2.2375 32 5ZM28.0857 13.4187C29.5714 12.9562 30.9357 12.3625 32 11.6313V18C32 20.7625 24.8357 23 16 23C7.16429 23 0 20.7625 0 18V11.6313C1.06429 12.3688 2.42857 12.9562 3.91429 13.4187C7.12143 14.4187 11.3929 15 16 15C20.6071 15 24.8786 14.4187 28.0857 13.4187ZM0 21.6313C1.06429 22.3688 2.42857 22.9563 3.91429 23.4188C7.12143 24.4188 11.3929 25 16 25C20.6071 25 24.8786 24.4188 28.0857 23.4188C29.5714 22.9563 30.9357 22.3625 32 21.6313V27C32 29.7625 24.8357 32 16 32C7.16429 32 0 29.7625 0 27V21.6313Z" fill="white"/>
</g>
<defs>
<clipPath id="clip0_1589_220">
<rect width="32" height="32" fill="white"/>
</clipPath>
</defs>
</svg>
