<svg width="849" height="738" viewBox="0 0 849 738" fill="none" xmlns="http://www.w3.org/2000/svg">
<path d="M608.648 738C741.39 738 849 729.087 849 718.093C849 707.099 741.39 698.187 608.648 698.187C475.905 698.187 368.295 707.099 368.295 718.093C368.295 729.087 475.905 738 608.648 738Z" fill="#FFFFF0"/>
<path opacity="0.1" d="M608.648 738C741.39 738 849 729.087 849 718.093C849 707.099 741.39 698.187 608.648 698.187C475.905 698.187 368.295 707.099 368.295 718.093C368.295 729.087 475.905 738 608.648 738Z" fill="#191919"/>
<path d="M209.652 422.066H133.039V442.073H209.652V422.066Z" fill="#DEDEDE"/>
<path opacity="0.05" d="M153.366 422.066H143.327V442.073H153.366V422.066Z" fill="#191919"/>
<path d="M199.863 426.414H158.121V438.27H199.863V426.414Z" fill="#FFFFF0"/>
<path d="M270.762 424.674L199.575 396.769L190.652 415.104L261.839 443.009L270.762 424.674Z" fill="#DEDEDE"/>
<path opacity="0.05" d="M270.762 424.674L199.575 396.769L190.652 415.104L261.839 443.009L270.762 424.674Z" fill="#191919"/>
<path d="M261.202 420.928L251.874 417.272L242.952 435.607L252.28 439.263L261.202 420.928Z" fill="#FFFFF0"/>
<path d="M245.515 419.525L206.731 404.32L201.444 415.185L240.228 430.39L245.515 419.525Z" fill="#FFFFF0"/>
<path opacity="0.05" d="M270.895 675.534H251.642V687.074H270.895V675.534Z" fill="#191919"/>
<path opacity="0.05" d="M74.0534 675.534H54.8004V687.074H74.0534V675.534Z" fill="#191919"/>
<path d="M288.544 443.013H37.1526V675.143H288.544V443.013Z" fill="#DEDEDE"/>
<path opacity="0.03" d="M288.544 443.013H37.1526V675.143H288.544V443.013Z" fill="#191919"/>
<path d="M335.13 443.013H83.739V675.143H335.13V443.013Z" fill="#DEDEDE"/>
<path opacity="0.05" d="M317.482 675.534H298.229V687.074H317.482V675.534Z" fill="#191919"/>
<path opacity="0.05" d="M120.641 675.534H101.388V687.074H120.641V675.534Z" fill="#191919"/>
<path opacity="0.7" d="M325.695 453.885H93.1766V498.482H325.695V453.885Z" fill="#FFFFF0"/>
<path opacity="0.7" d="M325.695 509.397H93.1766V553.994H325.695V509.397Z" fill="#FFFFF0"/>
<path opacity="0.7" d="M325.695 564.91H93.1766V609.507H325.695V564.91Z" fill="#FFFFF0"/>
<path opacity="0.05" d="M209.436 482.423C213.275 482.423 216.388 479.629 216.388 476.183C216.388 472.737 213.275 469.943 209.436 469.943C205.596 469.943 202.484 472.737 202.484 476.183C202.484 479.629 205.596 482.423 209.436 482.423Z" fill="#191919"/>
<path opacity="0.05" d="M209.436 537.935C213.275 537.935 216.388 535.141 216.388 531.695C216.388 528.249 213.275 525.456 209.436 525.456C205.596 525.456 202.484 528.249 202.484 531.695C202.484 535.141 205.596 537.935 209.436 537.935Z" fill="#191919"/>
<path opacity="0.05" d="M209.436 593.448C213.275 593.448 216.388 590.655 216.388 587.209C216.388 583.763 213.275 580.969 209.436 580.969C205.596 580.969 202.484 583.763 202.484 587.209C202.484 590.655 205.596 593.448 209.436 593.448Z" fill="#191919"/>
<path opacity="0.7" d="M325.695 621.674H93.1766V666.271H325.695V621.674Z" fill="#FFFFF0"/>
<path opacity="0.05" d="M209.436 650.211C213.275 650.211 216.388 647.418 216.388 643.972C216.388 640.526 213.275 637.732 209.436 637.732C205.596 637.732 202.484 640.526 202.484 643.972C202.484 647.418 205.596 650.211 209.436 650.211Z" fill="#191919"/>
<path d="M126.392 212.613L275.041 212.613V38.9453L126.392 38.9453L126.392 212.613Z" fill="#DEDEDE"/>
<path d="M126.389 38.9453H121.571V212.613H126.389V38.9453Z" fill="#DEDEDE"/>
<path opacity="0.05" d="M126.389 38.9453H121.571V212.613H126.389V38.9453Z" fill="#191919"/>
<path opacity="0.05" d="M153.472 180.977H247.964L247.964 70.5804L153.472 70.5804V180.977Z" fill="#191919"/>
<path opacity="0.03" d="M153.476 180.977H158.396L158.396 70.5804H153.476L153.476 180.977Z" fill="#191919"/>
<path d="M4.82134 365.441H126.392L126.392 255.32H4.82134L4.82134 365.441Z" fill="#DEDEDE"/>
<path opacity="0.05" d="M26.9672 345.381H104.246L104.246 275.381H26.9672L26.9672 345.381Z" fill="#191919"/>
<path d="M4.81843 255.321H0V365.442H4.81843V255.321Z" fill="#DEDEDE"/>
<path opacity="0.05" d="M4.81843 255.321H0V365.442H4.81843V255.321Z" fill="#191919"/>
<path opacity="0.03" d="M26.9711 345.381H31.8915L31.8915 275.381H26.9711L26.9711 345.381Z" fill="#191919"/>
<path d="M746.143 38.5313H435.935V316.966H746.143V38.5313Z" fill="#DEDEDE"/>
<path d="M435.932 38.5313H432.38V316.966H435.932V38.5313Z" fill="#DEDEDE"/>
<path opacity="0.05" d="M435.932 38.5313H432.38V316.966H435.932V38.5313Z" fill="#191919"/>
<path opacity="0.05" d="M511.085 230.396V157.548H577.567V199.872H680.547V274.809H724.316V316.967H680.547H672.116H450.857V230.396H511.085Z" fill="#191919"/>
<path opacity="0.34" d="M569.032 165.458H520.62V173.366H569.032V165.458Z" fill="#AD6C41"/>
<path opacity="0.34" d="M569.032 181.848H520.62V189.757H569.032V181.848Z" fill="#AD6C41"/>
<path opacity="0.34" d="M569.032 198.239H520.62V206.148H569.032V198.239Z" fill="#AD6C41"/>
<path opacity="0.34" d="M468.366 238.074H459.442V245.983H468.366V238.074Z" fill="#AD6C41"/>
<path opacity="0.34" d="M468.366 254.464H459.442V262.373H468.366V254.464Z" fill="#AD6C41"/>
<path opacity="0.34" d="M468.366 270.854H459.442V278.763H468.366V270.854Z" fill="#AD6C41"/>
<path opacity="0.34" d="M484.874 238.074H475.95V245.983H484.874V238.074Z" fill="#AD6C41"/>
<path opacity="0.34" d="M484.874 254.464H475.95V262.373H484.874V254.464Z" fill="#AD6C41"/>
<path opacity="0.34" d="M484.874 270.854H475.95V278.763H484.874V270.854Z" fill="#AD6C41"/>
<path opacity="0.34" d="M500.935 238.074H492.012V245.983H500.935V238.074Z" fill="#AD6C41"/>
<path opacity="0.34" d="M500.935 254.464H492.012V262.373H500.935V254.464Z" fill="#AD6C41"/>
<path opacity="0.34" d="M500.935 270.854H492.012V278.763H500.935V270.854Z" fill="#AD6C41"/>
<path d="M435.935 176.187H498.354V38.5309H503.516V176.187H672.116V38.5309H677.278V176.187H746.143V180.82H677.278V316.967H672.116V180.82H503.516V316.967H498.354V180.82H435.935V176.187Z" fill="#FFFFF0"/>
<path d="M758.5 316.63H423.577V325.889H758.5V316.63Z" fill="#DEDEDE"/>
<path opacity="0.1" d="M758.5 316.63H423.577V325.889H758.5V316.63Z" fill="#191919"/>
<path opacity="0.1" d="M423.573 316.63H418.742V325.889H423.573V316.63Z" fill="#191919"/>
<path opacity="0.1" d="M423.573 316.63H418.742V325.889H423.573V316.63Z" fill="#191919"/>
<path d="M692.95 364.33C645.46 364.33 606.96 375.959 606.96 390.305V421.228H778.941V390.305C778.941 375.959 740.442 364.33 692.95 364.33Z" fill="#AD6C41"/>
<path opacity="0.49" d="M692.95 364.33C645.46 364.33 606.96 375.959 606.96 390.305V421.228H778.941V390.305C778.941 375.959 740.442 364.33 692.95 364.33Z" fill="#FFFFF0"/>
<path opacity="0.49" d="M755.514 390.308V421.226H606.957V390.308C606.957 377.159 639.29 366.295 681.235 364.577C723.185 366.295 755.514 377.159 755.514 390.308Z" fill="#FFFFF0"/>
<path d="M778.939 721.693H781.825L778.939 418.485L776.078 421.075L778.118 632.875L676.242 634.428L674.187 421.053L671.325 421.075L673.382 634.472L611.883 635.41L609.818 421.053L606.957 418.507L609.843 721.693L612.679 721.672L611.907 637.979L673.405 637.041L674.187 721.693L677.048 721.672L676.267 636.998L778.143 635.443L778.939 721.693Z" fill="#191919"/>
<path d="M519.562 676.298C519.562 676.298 514.448 700.091 489.627 701.418C464.807 702.744 470.189 720.491 470.189 720.491H565.038V677.957L519.562 676.298Z" fill="#AD6C41"/>
<path d="M573.676 604.732C573.676 604.732 580.789 628.109 559.17 639.133C537.552 650.157 551.109 663.949 551.109 663.949L636.216 626.367L615.298 588.201L573.676 604.732Z" fill="#AD6C41"/>
<path d="M564.672 620.182L500.543 403.001C495.679 379.009 503.002 368.609 514.286 358.506C534.112 340.757 616.262 302.979 616.262 302.979L714.816 302.738C740.949 302.738 766.637 325.867 766.637 349.322C766.637 372.777 740.072 392.669 713.939 392.669L592.578 403.542L625.476 602.399L564.672 620.182Z" fill="#191919"/>
<path d="M625.475 602.398L612.524 524.11L546.911 560.035L564.672 620.182L625.475 602.398Z" fill="#191919"/>
<path d="M640.347 346.928C640.347 346.928 598.918 355.215 557.887 392.044C533.009 414.374 535.049 454.782 538.781 532.501L579.533 478.473L624.231 406.114L640.347 346.928Z" fill="#191919"/>
<path d="M783.794 302.714L716.864 302.43L716.839 303.221H696.572C696.572 303.221 645.804 345.149 604.935 371.571C575.205 390.788 557.069 409.11 555.5 429.08C551.675 477.758 508.528 685.364 508.528 685.364L573.463 694.19L630.448 446.084C630.448 446.084 719.55 409.211 740.16 396.383C759.568 384.301 773.277 379.63 779.699 366.445C790.791 343.672 783.794 302.714 783.794 302.714Z" fill="#191919"/>
<path d="M708.706 317.845L600.128 319.136L661.035 351.787L711.715 328.297C712.936 327.709 713.902 326.769 714.457 325.63C715.013 324.49 715.127 323.216 714.78 322.011C714.433 320.807 713.646 319.742 712.545 318.986C711.443 318.231 710.092 317.829 708.706 317.845Z" fill="#191919"/>
<path opacity="0.2" d="M708.706 317.845L600.128 319.136L661.035 351.787L711.715 328.297C712.936 327.709 713.902 326.769 714.457 325.63C715.013 324.49 715.127 323.216 714.78 322.011C714.433 320.807 713.646 319.742 712.545 318.986C711.443 318.231 710.092 317.829 708.706 317.845Z" fill="#FFFFF0"/>
<path d="M600.749 143.006L570.038 232.323L508.524 304.613L544.457 341.637L617.64 268.322C621.012 265.93 623.649 262.807 625.304 259.247L626.443 256.771L668.715 164.969L600.749 143.006Z" fill="#AD6C41"/>
<path d="M648.06 48.1979C648.06 48.1979 635.685 39.8082 632.619 20.5119C630.244 5.57059 645.6 15.2504 645.6 15.2504C645.6 15.2504 644.007 4.4765 652.753 5.54576C661.5 6.61502 666.392 17.9325 666.392 17.9325" fill="#191919"/>
<path d="M697.953 6.80678C697.953 6.80678 741.344 10.9819 725.658 63.7582L721.819 63.9894L714.025 64.4585" fill="#191919"/>
<path d="M655.328 118.875C655.518 118.853 657.636 150.379 698.438 147.634C726.69 145.734 736.763 118.831 737.41 118.831C734.364 118.249 730.6 117.367 729.104 117.065C725.844 116.386 722.891 114.832 720.639 112.61C718.386 110.387 716.941 107.602 716.495 104.625C715.669 100.156 717.068 77.2913 716.639 72.7694L673.279 81.4571C673.885 91.0076 678.126 113.147 663.264 117.065C660.789 117.712 658.124 118.312 655.328 118.875Z" fill="#E98862"/>
<path opacity="0.52" d="M672.671 108.017C673.35 106.052 673.788 104.026 673.976 101.976C674.452 97.2968 674.356 92.5851 673.69 87.9248C682.504 86.8587 690.809 83.5946 697.659 78.5035C698.465 81.1728 702.894 92.8362 701.665 95.3685C699.349 100.163 688.458 108.017 672.671 108.017Z" fill="#191919"/>
<path d="M681.621 101.777C698.729 100.4 719.206 90.6977 719.502 69.8527L719.768 51.0444C720.063 30.2003 708.105 13.1633 686.24 12.9133C664.374 12.6642 647.791 29.3751 647.495 50.22L647.378 58.5464C647.393 61.406 647.625 64.2614 648.072 67.0927C649.194 74.5835 650.934 85.9721 656.597 93.676C661.945 100.949 670.691 102.656 681.621 101.777Z" fill="#E98862"/>
<path opacity="0.52" d="M673.684 82.7238C670.153 82.8674 666.634 82.2642 663.411 80.963C663.279 80.9096 663.176 80.8121 663.124 80.6913C663.071 80.5706 663.074 80.4362 663.13 80.317C663.187 80.1977 663.293 80.1032 663.427 80.0535C663.56 80.0038 663.71 80.003 663.844 80.0513C670.788 82.7093 677.094 82.3206 682.078 78.9264C682.179 78.8551 682.283 78.7885 682.391 78.727C682.516 78.6741 682.659 78.6654 682.792 78.7026C682.924 78.7399 683.035 78.8203 683.105 78.9281C683.174 79.0359 683.195 79.163 683.165 79.2843C683.134 79.4056 683.054 79.5123 682.94 79.583C682.9 79.6053 682.835 79.6507 682.75 79.7123C680.129 81.5039 676.973 82.5525 673.684 82.7238Z" fill="#191919"/>
<path opacity="0.52" d="M673.845 87.4196C673.207 87.4549 672.567 87.4411 671.932 87.3785C671.86 87.3716 671.79 87.3521 671.727 87.321C671.663 87.29 671.607 87.248 671.561 87.1974C671.516 87.1468 671.482 87.0887 671.461 87.0264C671.441 86.964 671.434 86.8987 671.442 86.8341C671.449 86.7694 671.471 86.7068 671.506 86.6497C671.54 86.5926 671.587 86.5422 671.643 86.5013C671.7 86.4604 671.765 86.4299 671.834 86.4115C671.903 86.3931 671.976 86.3872 672.048 86.394C675.869 86.7579 677.694 85.187 677.771 85.1194C677.874 85.0264 678.015 84.9741 678.161 84.974C678.307 84.9738 678.448 85.0258 678.551 85.1186C678.655 85.2113 678.713 85.3372 678.713 85.4685C678.713 85.5998 678.655 85.7258 678.552 85.8188C677.236 86.8244 675.573 87.3901 673.845 87.4196Z" fill="#191919"/>
<path d="M654.716 62.5543C656.204 62.5543 657.41 61.4719 657.41 60.1368C657.41 58.8017 656.204 57.7194 654.716 57.7194C653.229 57.7194 652.023 58.8017 652.023 60.1368C652.023 61.4719 653.229 62.5543 654.716 62.5543Z" fill="#191919"/>
<path d="M681.03 61.0724C682.518 61.0724 683.724 59.9901 683.724 58.6549C683.724 57.3198 682.518 56.2375 681.03 56.2375C679.542 56.2375 678.337 57.3198 678.337 58.6549C678.337 59.9901 679.542 61.0724 681.03 61.0724Z" fill="#191919"/>
<path d="M718.054 76.1947C724.699 76.2709 730.175 69.9505 730.262 63.9854C730.349 58.0203 725.006 54.6691 718.361 54.5938L714.881 58.5511L712.343 76.1296L718.054 76.1947Z" fill="#E98862"/>
<path d="M711.442 66.6039C711.442 66.6039 709.199 37.109 699.234 35.2872C692.598 34.0741 676.504 42.5237 661.598 39.9717C655.077 38.8588 648.886 40.3039 648.256 43.0691C648.006 44.164 643.944 28.4299 654.156 16.4926C662.287 6.98998 688.895 4.30186 701 7.41803C734.52 16.0491 719.729 55.8873 719.729 55.8873L718.234 66.056L711.442 66.6039Z" fill="#191919"/>
<g opacity="0.52">
<path d="M669.667 75.763C669.653 75.7638 669.639 75.7638 669.625 75.763C667.483 75.7442 663.893 75.4968 663.908 74.0595C663.923 72.8679 667.7 60.0418 668.131 58.5831C668.168 58.4576 668.259 58.3504 668.384 58.2851C668.509 58.2199 668.658 58.2019 668.798 58.2352C668.938 58.2684 669.058 58.3502 669.13 58.4625C669.203 58.5748 669.223 58.7084 669.186 58.834C667.507 64.5146 665.008 73.2599 664.999 74.0715C665.206 74.4139 667.418 74.7666 669.634 74.7871C669.774 74.7898 669.907 74.8406 670.007 74.9289C670.106 75.0173 670.164 75.1366 670.168 75.2621C670.172 75.3876 670.122 75.5097 670.029 75.6032C669.936 75.6967 669.806 75.7546 669.667 75.7647V75.763Z" fill="#191919"/>
</g>
<path d="M662.362 47.0285C660.111 46.4725 657.735 46.4725 655.484 47.0285C654.379 47.2953 653.325 47.7097 652.357 48.2577C651.399 48.7944 650.521 49.4375 649.743 50.1718C649.6 50.3026 649.518 50.478 649.515 50.6615C649.512 50.845 649.588 51.0225 649.727 51.157C649.866 51.2915 650.058 51.3728 650.262 51.3838C650.466 51.3948 650.667 51.3348 650.823 51.2162L650.872 51.1785C651.591 50.58 652.393 50.0654 653.256 49.6471C654.103 49.2306 655.015 48.9316 655.962 48.7602C657.825 48.4096 659.759 48.5067 661.567 49.0419L661.643 49.0658C661.939 49.1515 662.26 49.1301 662.539 49.0063C662.817 48.8825 663.031 48.666 663.135 48.4029C663.239 48.1397 663.224 47.8507 663.094 47.5973C662.963 47.3438 662.728 47.1459 662.438 47.0456L662.362 47.0285Z" fill="#191919"/>
<path d="M678.297 48.2414C680.009 47.4946 681.911 47.1671 683.81 47.2921C684.774 47.3482 685.722 47.5352 686.623 47.8468C687.54 48.1589 688.409 48.573 689.211 49.0795L689.262 49.1103C689.434 49.2098 689.643 49.2459 689.844 49.2109C690.045 49.1759 690.223 49.0727 690.341 48.9226C690.46 48.7725 690.509 48.5873 690.478 48.4055C690.448 48.2237 690.341 48.0594 690.179 47.9469C689.299 47.3122 688.334 46.7798 687.305 46.3624C686.264 45.9351 685.157 45.6506 684.022 45.5184C681.709 45.2355 679.355 45.5185 677.206 46.3376C677.062 46.3938 676.932 46.4749 676.823 46.5763C676.714 46.6777 676.628 46.7974 676.571 46.9286C676.513 47.0597 676.485 47.1998 676.487 47.3407C676.49 47.4817 676.524 47.6208 676.587 47.75C676.713 48.0111 676.95 48.2164 677.245 48.3208C677.391 48.3725 677.547 48.3978 677.704 48.3953C677.861 48.3929 678.016 48.3627 678.16 48.3065L678.227 48.2782L678.297 48.2414Z" fill="#191919"/>
<path d="M677.205 16.627C678.718 10.1291 675.957 4.11376 671.038 3.19138C666.12 2.26901 660.906 6.78889 659.394 13.2868C657.881 19.7847 660.642 25.8 665.561 26.7223C670.479 27.6447 675.693 23.1249 677.205 16.627Z" fill="#191919"/>
<path d="M604.626 188.169C605.911 201.722 615.022 286.285 616.262 302.981H783.721C784.683 287.923 789.003 222.08 792.652 192.631C796.135 164.532 801.016 151.746 797.005 143.014C789.93 127.613 767.409 120.736 752.159 118.883C742.846 117.751 728.84 116.94 728.84 116.94C728.84 116.94 727.655 138.474 699.377 139.672C660.882 141.299 663.454 116.94 663.263 116.94C657.026 116.94 623.082 121.011 614.594 125.976C602.606 132.989 599.062 142.548 598.922 151.329C598.762 161.442 603.17 172.794 604.626 188.169Z" fill="#AD6C41"/>
<path d="M613.117 269.657C612.998 269.657 612.882 269.617 612.794 269.545C612.706 269.473 612.651 269.373 612.64 269.266L606.296 204.135C606.285 204.022 606.324 203.909 606.405 203.822C606.486 203.735 606.603 203.681 606.729 203.671C606.791 203.665 606.855 203.671 606.915 203.687C606.975 203.704 607.031 203.731 607.079 203.767C607.127 203.804 607.167 203.848 607.195 203.899C607.224 203.949 607.241 204.004 607.246 204.06L613.59 269.192C613.601 269.305 613.562 269.417 613.48 269.504C613.399 269.591 613.283 269.645 613.157 269.655C613.144 269.656 613.13 269.657 613.117 269.657Z" fill="#191919"/>
<path d="M625.26 307.489L648.253 290.745L644.384 291.727C643.128 292.021 641.794 291.877 640.652 291.322C639.51 290.768 638.645 289.845 638.232 288.741C638.041 288.164 637.983 287.558 638.061 286.961C638.139 286.363 638.353 285.786 638.687 285.265C639.022 284.743 639.472 284.289 640.009 283.929C640.546 283.569 641.16 283.31 641.812 283.17L690.117 272.625L694.273 286.435C695.565 290.724 695.399 295.262 693.799 299.466C692.199 303.671 689.236 307.35 685.291 310.033L667.392 322.157C666.476 322.803 665.339 323.144 664.175 323.124C663.011 323.104 661.89 322.724 661.002 322.048C660.213 321.421 659.669 320.585 659.448 319.66C659.227 318.736 659.341 317.773 659.774 316.911C659.697 316.891 659.627 316.852 659.572 316.798C659.524 316.746 659.49 316.685 659.475 316.618C659.46 316.552 659.464 316.484 659.485 316.419L656.188 318.66C655.169 319.382 653.883 319.731 652.589 319.634C651.295 319.538 650.091 319.004 649.219 318.141C648.469 317.345 648.057 316.337 648.053 315.295C648.05 314.253 648.456 313.244 649.2 312.444C649.149 312.437 649.098 312.422 649.053 312.399L647.698 313.32C646.782 313.965 645.646 314.307 644.481 314.287C643.317 314.267 642.196 313.886 641.308 313.21C640.352 312.45 639.761 311.388 639.659 310.245C639.557 309.102 639.952 307.969 640.76 307.082C640.741 307.057 640.725 307.03 640.713 307.002L631.137 313.975C630.662 314.32 630.116 314.579 629.53 314.735C628.944 314.891 628.33 314.942 627.722 314.886C627.114 314.829 626.524 314.665 625.987 314.404C625.45 314.142 624.975 313.788 624.59 313.362C624.205 312.936 623.917 312.446 623.743 311.92C623.568 311.394 623.512 310.843 623.575 310.297C623.638 309.751 623.821 309.222 624.112 308.74C624.403 308.257 624.797 307.831 625.272 307.486L625.26 307.489Z" fill="#E98862"/>
<path opacity="0.2" d="M641.285 307.251C641.336 307.234 641.383 307.21 641.424 307.179L650.638 300.31C650.685 300.275 650.723 300.232 650.752 300.184C650.78 300.135 650.797 300.082 650.803 300.028C650.808 299.973 650.802 299.919 650.784 299.866C650.766 299.814 650.736 299.766 650.697 299.724C650.659 299.682 650.611 299.647 650.557 299.622C650.503 299.596 650.444 299.581 650.383 299.576C650.323 299.571 650.262 299.577 650.203 299.593C650.145 299.609 650.091 299.635 650.045 299.67L640.832 306.539C640.748 306.602 640.692 306.689 640.672 306.785C640.653 306.881 640.672 306.981 640.726 307.065C640.78 307.15 640.866 307.215 640.968 307.249C641.07 307.283 641.183 307.284 641.285 307.251Z" fill="#191919"/>
<path opacity="0.2" d="M649.405 312.439C649.454 312.424 649.5 312.4 649.541 312.37L656.829 307.022C656.924 306.952 656.984 306.851 656.997 306.741C657.009 306.631 656.972 306.521 656.895 306.436C656.817 306.351 656.704 306.296 656.582 306.285C656.46 306.274 656.337 306.307 656.242 306.377L648.954 311.725C648.869 311.787 648.812 311.874 648.791 311.971C648.771 312.068 648.79 312.168 648.844 312.253C648.898 312.339 648.983 312.404 649.086 312.438C649.189 312.472 649.302 312.473 649.405 312.439Z" fill="#191919"/>
<path opacity="0.2" d="M660.071 316.925C660.124 316.907 660.174 316.881 660.217 316.848L663.59 314.25C663.636 314.215 663.674 314.172 663.701 314.123C663.729 314.074 663.745 314.021 663.75 313.967C663.754 313.912 663.747 313.858 663.728 313.806C663.709 313.754 663.679 313.706 663.64 313.664C663.6 313.623 663.552 313.589 663.498 313.564C663.444 313.54 663.384 313.525 663.324 313.521C663.263 313.516 663.202 313.523 663.145 313.54C663.087 313.557 663.034 313.584 662.987 313.619L659.614 316.218C659.532 316.281 659.477 316.368 659.46 316.464C659.442 316.559 659.462 316.658 659.516 316.742C659.57 316.825 659.655 316.89 659.757 316.923C659.858 316.957 659.969 316.957 660.071 316.925Z" fill="#191919"/>
<path d="M828.483 266.476L828.307 265.773L797.741 144.429L737.271 156.699L761.128 251.416L665.562 272.494L677.323 320.895L804.677 299.092C804.963 299.042 805.387 298.965 805.677 298.906C809.547 298.121 813.207 296.659 816.447 294.604C819.688 292.55 822.446 289.942 824.563 286.931C826.681 283.919 828.117 280.563 828.79 277.053C829.462 273.544 829.358 269.95 828.483 266.476Z" fill="#AD6C41"/>
<path d="M665.094 272.585C665.069 272.477 665.092 272.364 665.157 272.27C665.223 272.176 665.327 272.108 665.447 272.082L760.589 251.108L745.119 189.781C745.102 189.725 745.097 189.667 745.106 189.609C745.114 189.552 745.136 189.496 745.169 189.446C745.202 189.396 745.246 189.353 745.298 189.319C745.35 189.285 745.41 189.261 745.473 189.248C745.536 189.235 745.601 189.234 745.665 189.244C745.728 189.255 745.789 189.277 745.843 189.309C745.897 189.341 745.943 189.383 745.978 189.431C746.013 189.48 746.037 189.534 746.048 189.592L761.622 251.329C761.65 251.438 761.63 251.554 761.564 251.65C761.498 251.746 761.393 251.815 761.271 251.842L666.123 272.817C666.123 272.817 666.76 275.313 666.94 276.155C666.954 276.265 666.919 276.375 666.843 276.462C666.766 276.548 666.655 276.604 666.533 276.617C666.41 276.629 666.288 276.598 666.191 276.529C666.095 276.461 666.033 276.361 666.019 276.251C665.799 275.327 665.094 272.585 665.094 272.585Z" fill="#191919"/>
<path d="M668.824 340.174L632.079 238.793C631.434 237.011 630.176 235.459 628.488 234.358C626.799 233.257 624.765 232.664 622.678 232.664H472.979C471.419 232.664 469.88 232.996 468.49 233.631C467.1 234.267 465.897 235.19 464.98 236.323C464.063 237.456 463.458 238.768 463.214 240.152C462.97 241.535 463.095 242.951 463.578 244.283L500.323 345.664C500.969 347.445 502.226 348.998 503.915 350.099C505.604 351.2 507.637 351.792 509.725 351.793H659.422C660.983 351.792 662.521 351.461 663.911 350.825C665.301 350.189 666.504 349.266 667.421 348.133C668.338 347 668.943 345.688 669.187 344.305C669.431 342.921 669.306 341.506 668.824 340.174Z" fill="#191919"/>
<path opacity="0.2" d="M668.824 340.174L632.079 238.793C631.434 237.011 630.176 235.459 628.488 234.358C626.799 233.257 624.765 232.664 622.678 232.664H472.979C471.419 232.664 469.88 232.996 468.49 233.631C467.1 234.267 465.897 235.19 464.98 236.323C464.063 237.456 463.458 238.768 463.214 240.152C462.97 241.535 463.095 242.951 463.578 244.283L500.323 345.664C500.969 347.445 502.226 348.998 503.915 350.099C505.604 351.2 507.637 351.792 509.725 351.793H659.422C660.983 351.792 662.521 351.461 663.911 350.825C665.301 350.189 666.504 349.266 667.421 348.133C668.338 347 668.943 345.688 669.187 344.305C669.431 342.921 669.306 341.506 668.824 340.174Z" fill="#FFFFF0"/>
<path d="M561.889 306.32C570.56 306.32 577.589 300.011 577.589 292.228C577.589 284.445 570.56 278.136 561.889 278.136C553.218 278.136 546.188 284.445 546.188 292.228C546.188 300.011 553.218 306.32 561.889 306.32Z" fill="#FFFFF0"/>
<path d="M414.089 10.7131H116.974C103.21 10.7131 92.0511 20.7287 92.0511 33.0836V356.832C92.0511 369.186 103.21 379.202 116.974 379.202H414.089C427.854 379.202 439.012 369.186 439.012 356.832V33.0836C439.012 20.7287 427.854 10.7131 414.089 10.7131Z" fill="#191919"/>
<path d="M425.07 0.856033H127.955C114.191 0.856033 103.032 10.8717 103.032 23.2265V346.974C103.032 359.329 114.191 369.345 127.955 369.345H425.07C438.835 369.345 449.993 359.329 449.993 346.974V23.2265C449.993 10.8717 438.835 0.856033 425.07 0.856033Z" fill="#FFFFF0"/>
<path d="M425.071 370.201H127.956C121.095 370.194 114.518 367.745 109.666 363.39C104.815 359.036 102.087 353.132 102.079 346.974V23.2266C102.087 17.0686 104.816 11.1648 109.667 6.81042C114.518 2.45606 121.096 0.00679791 127.956 0L425.071 0C431.931 0.00702446 438.509 2.45639 443.36 6.81072C448.211 11.1651 450.939 17.0688 450.947 23.2266V346.974C450.94 353.132 448.211 359.036 443.36 363.39C438.509 367.745 431.932 370.194 425.071 370.201ZM127.956 1.71218C121.601 1.71853 115.509 3.98725 111.015 8.02062C106.521 12.054 103.994 17.5226 103.987 23.2266V346.974C103.994 352.678 106.521 358.146 111.015 362.18C115.509 366.213 121.601 368.482 127.956 368.488H425.071C431.426 368.482 437.518 366.213 442.012 362.18C446.505 358.146 449.033 352.678 449.039 346.974V23.2266C449.033 17.5226 446.505 12.0541 442.012 8.02067C437.518 3.98728 431.426 1.71853 425.071 1.71218H127.956Z" fill="#191919"/>
<path d="M99.0309 415.67C133.205 415.67 160.909 390.803 160.909 360.129C160.909 329.455 133.205 304.589 99.0309 304.589C64.8565 304.589 37.1526 329.455 37.1526 360.129C37.1526 390.803 64.8565 415.67 99.0309 415.67Z" fill="#191919"/>
<path d="M86.1854 352.881C85.3708 352.881 84.5895 352.59 84.0134 352.073C83.4373 351.556 83.1135 350.855 83.1133 350.124V336.777C83.1133 329.396 90.2542 323.391 99.0309 323.391C107.808 323.391 114.949 329.396 114.949 336.777V349.208C114.956 349.574 114.882 349.938 114.73 350.278C114.579 350.618 114.354 350.928 114.068 351.189C113.782 351.45 113.441 351.658 113.065 351.8C112.689 351.941 112.285 352.014 111.877 352.014C111.469 352.014 111.065 351.941 110.689 351.8C110.313 351.658 109.971 351.45 109.686 351.189C109.4 350.928 109.174 350.618 109.023 350.278C108.872 349.938 108.798 349.574 108.805 349.208V336.777C108.805 332.436 104.418 328.905 99.0309 328.905C93.644 328.905 89.2566 332.436 89.2566 336.777V350.126C89.2561 350.857 88.9323 351.557 88.3564 352.074C87.7805 352.59 86.9996 352.881 86.1854 352.881Z" fill="#FFFFF0"/>
<path d="M118.627 347.817H79.4346C77.149 347.817 75.2961 349.48 75.2961 351.531V384.667C75.2961 386.719 77.149 388.382 79.4346 388.382H118.627C120.913 388.382 122.766 386.719 122.766 384.667V351.531C122.766 349.48 120.913 347.817 118.627 347.817Z" fill="#FFFFF0"/>
<path d="M95.129 364.819C95.1287 365.476 95.3342 366.12 95.7221 366.677C96.11 367.234 96.6646 367.683 97.3227 367.971V373.352C97.3227 373.757 97.5022 374.146 97.8217 374.433C98.1411 374.719 98.5744 374.881 99.0262 374.881C99.478 374.881 99.9112 374.719 100.231 374.433C100.55 374.146 100.73 373.757 100.73 373.352V367.971C101.356 367.698 101.89 367.279 102.276 366.758C102.662 366.237 102.885 365.633 102.922 365.009C102.96 364.384 102.811 363.762 102.49 363.207C102.169 362.652 101.688 362.184 101.098 361.852C100.507 361.52 99.8286 361.336 99.1321 361.319C98.4356 361.302 97.7468 361.453 97.1371 361.756C96.5275 362.058 96.0193 362.502 95.6653 363.041C95.3113 363.579 95.1245 364.193 95.1243 364.819H95.129Z" fill="#191919"/>
<path d="M399.124 184.721H153.901C148.047 184.721 143.302 188.981 143.302 194.235V225.092C143.302 230.346 148.047 234.606 153.901 234.606H399.124C404.978 234.606 409.724 230.346 409.724 225.092V194.235C409.724 188.981 404.978 184.721 399.124 184.721Z" fill="#FFFFF0"/>
<path d="M399.124 235.461H153.902C150.839 235.458 147.902 234.364 145.736 232.42C143.571 230.476 142.352 227.84 142.349 225.091V194.235C142.352 191.486 143.571 188.85 145.736 186.906C147.902 184.962 150.839 183.868 153.902 183.864H399.124C402.188 183.868 405.124 184.961 407.29 186.905C409.456 188.85 410.675 191.486 410.678 194.235V225.091C410.675 227.841 409.456 230.476 407.29 232.421C405.124 234.365 402.187 235.458 399.124 235.461ZM153.902 185.577C151.344 185.579 148.892 186.492 147.084 188.115C145.276 189.739 144.259 191.94 144.256 194.235V225.091C144.259 227.387 145.276 229.587 147.085 231.21C148.893 232.833 151.345 233.746 153.902 233.749H399.124C401.682 233.746 404.134 232.833 405.942 231.21C407.75 229.587 408.768 227.387 408.771 225.091V194.235C408.768 191.939 407.751 189.739 405.942 188.115C404.134 186.492 401.682 185.579 399.124 185.577H153.902Z" fill="#191919"/>
<path d="M399.124 256.011H153.901C148.047 256.011 143.302 260.271 143.302 265.525V296.382C143.302 301.636 148.047 305.896 153.901 305.896H399.124C404.978 305.896 409.724 301.636 409.724 296.382V265.525C409.724 260.271 404.978 256.011 399.124 256.011Z" fill="#FFFFF0"/>
<path d="M399.124 306.751H153.902C150.838 306.748 147.901 305.654 145.735 303.709C143.57 301.765 142.352 299.128 142.349 296.379V265.525C142.352 262.776 143.571 260.14 145.736 258.196C147.902 256.252 150.839 255.158 153.902 255.155H399.124C402.187 255.158 405.124 256.252 407.29 258.196C409.456 260.14 410.675 262.776 410.678 265.525V296.379C410.676 299.129 409.457 301.765 407.291 303.71C405.125 305.654 402.188 306.748 399.124 306.751ZM153.902 256.868C151.345 256.87 148.893 257.783 147.085 259.406C145.276 261.029 144.259 263.23 144.256 265.525V296.379C144.259 298.674 145.276 300.875 147.085 302.498C148.893 304.121 151.345 305.034 153.902 305.036H399.124C401.682 305.034 404.134 304.121 405.942 302.498C407.751 300.875 408.768 298.674 408.771 296.379V265.525C408.768 263.23 407.751 261.029 405.942 259.406C404.134 257.783 401.682 256.87 399.124 256.868H153.902Z" fill="#191919"/>
<path d="M276.512 147.616C307.957 147.616 333.447 124.736 333.447 96.5122C333.447 68.2885 307.957 45.4087 276.512 45.4087C245.068 45.4087 219.577 68.2885 219.577 96.5122C219.577 124.736 245.068 147.616 276.512 147.616Z" fill="#FFFFF0"/>
<path d="M276.513 148.472C265.064 148.472 253.872 145.424 244.352 139.715C234.832 134.006 227.412 125.891 223.031 116.396C218.649 106.902 217.503 96.4546 219.737 86.3755C221.97 76.2963 227.484 67.038 235.58 59.7713C243.675 52.5046 253.99 47.5559 265.22 45.5511C276.449 43.5462 288.088 44.5752 298.666 48.5079C309.244 52.4406 318.285 59.1004 324.646 67.6451C331.007 76.1898 334.402 86.2356 334.402 96.5123C334.385 110.288 328.28 123.495 317.428 133.236C306.575 142.977 291.861 148.456 276.513 148.472ZM276.513 46.2649C265.441 46.2649 254.618 49.2118 245.412 54.7331C236.206 60.2543 229.03 68.1019 224.793 77.2834C220.556 86.4649 219.448 96.568 221.608 106.315C223.768 116.062 229.099 125.015 236.928 132.043C244.758 139.07 254.732 143.855 265.592 145.794C276.451 147.733 287.707 146.738 297.936 142.935C308.165 139.132 316.908 132.691 323.06 124.428C329.211 116.165 332.494 106.45 332.494 96.5123C332.478 83.1904 326.574 70.4185 316.079 60.9985C305.584 51.5785 291.355 46.2798 276.513 46.2649Z" fill="#191919"/>
<path opacity="0.5" d="M332.183 96.5122C332.2 108.341 327.524 119.788 318.993 128.803C313.738 123.305 307.221 118.892 299.888 115.867C292.555 112.842 284.58 111.276 276.51 111.277C268.439 111.279 260.465 112.847 253.133 115.874C245.801 118.902 239.286 123.317 234.034 128.817C228.241 122.68 224.184 115.379 222.208 107.533C220.232 99.6879 220.395 91.5303 222.683 83.7535C224.971 75.9768 229.317 68.8107 235.351 62.8643C241.386 56.9178 248.93 52.3666 257.343 49.5975C265.757 46.8283 274.79 45.923 283.677 46.9584C292.564 47.9939 301.041 50.9395 308.388 55.545C315.734 60.1505 321.734 66.2797 325.877 73.412C330.02 80.5443 332.183 88.4688 332.183 96.5122Z" fill="#AD6C41"/>
<path d="M318.993 128.803C313.767 134.341 307.261 138.792 299.926 141.845C292.59 144.897 284.602 146.479 276.517 146.481C268.431 146.482 260.442 144.903 253.106 141.852C245.769 138.802 239.261 134.353 234.034 128.817C239.286 123.317 245.801 118.902 253.133 115.874C260.465 112.847 268.439 111.279 276.51 111.277C284.58 111.276 292.555 112.842 299.888 115.867C307.221 118.892 313.738 123.305 318.993 128.803Z" fill="#FFFFF0"/>
<path d="M276.514 101.954C288.942 101.954 299.016 92.9116 299.016 81.7567C299.016 70.6018 288.942 61.5589 276.514 61.5589C264.086 61.5589 254.011 70.6018 254.011 81.7567C254.011 92.9116 264.086 101.954 276.514 101.954Z" fill="#FFFFF0"/>
<g opacity="0.4">
<path d="M163.944 287.028C167.682 287.028 170.712 284.308 170.712 280.953C170.712 277.598 167.682 274.879 163.944 274.879C160.206 274.879 157.176 277.598 157.176 280.953C157.176 284.308 160.206 287.028 163.944 287.028Z" fill="#191919"/>
<path d="M185.115 287.028C188.853 287.028 191.883 284.308 191.883 280.953C191.883 277.598 188.853 274.879 185.115 274.879C181.377 274.879 178.347 277.598 178.347 280.953C178.347 284.308 181.377 287.028 185.115 287.028Z" fill="#191919"/>
<path d="M206.286 287.028C210.024 287.028 213.054 284.308 213.054 280.953C213.054 277.598 210.024 274.879 206.286 274.879C202.548 274.879 199.518 277.598 199.518 280.953C199.518 284.308 202.548 287.028 206.286 287.028Z" fill="#191919"/>
<path d="M227.457 287.028C231.195 287.028 234.225 284.308 234.225 280.953C234.225 277.598 231.195 274.879 227.457 274.879C223.719 274.879 220.689 277.598 220.689 280.953C220.689 284.308 223.719 287.028 227.457 287.028Z" fill="#191919"/>
<path d="M248.628 287.028C252.365 287.028 255.396 284.308 255.396 280.953C255.396 277.598 252.365 274.879 248.628 274.879C244.89 274.879 241.859 277.598 241.859 280.953C241.859 284.308 244.89 287.028 248.628 287.028Z" fill="#191919"/>
<path d="M269.799 287.028C273.536 287.028 276.567 284.308 276.567 280.953C276.567 277.598 273.536 274.879 269.799 274.879C266.061 274.879 263.031 277.598 263.031 280.953C263.031 284.308 266.061 287.028 269.799 287.028Z" fill="#191919"/>
<path d="M290.97 287.028C294.707 287.028 297.738 284.308 297.738 280.953C297.738 277.598 294.707 274.879 290.97 274.879C287.232 274.879 284.202 277.598 284.202 280.953C284.202 284.308 287.232 287.028 290.97 287.028Z" fill="#191919"/>
</g>
<g opacity="0.3">
<path d="M170.657 209.297V211.352H161.965V209.297H170.657Z" fill="#191919"/>
<path d="M181.458 209.297V211.352H172.767V209.297H181.458Z" fill="#191919"/>
<path d="M192.259 209.297V211.352H183.567V209.297H192.259Z" fill="#191919"/>
<path d="M203.06 209.297V211.352H194.368V209.297H203.06Z" fill="#191919"/>
<path d="M213.862 209.297V211.352H205.169V209.297H213.862Z" fill="#191919"/>
<path d="M233.355 220.889C231.421 221.781 229.267 222.217 227.095 222.156C221.324 222.156 216.432 218.365 216.432 212.3C216.432 205.794 221.465 200.171 229.276 200.171C235.399 200.171 239.517 204.024 239.517 209.3C239.517 214.038 236.56 216.817 233.252 216.817C231.846 216.817 230.544 215.961 230.649 214.038H230.508C230.052 214.871 229.347 215.573 228.47 216.064C227.594 216.555 226.581 216.816 225.548 216.817C223.507 216.817 221.747 215.333 221.747 212.838C221.743 211.854 221.956 210.879 222.374 209.969C222.792 209.059 223.406 208.232 224.181 207.536C224.957 206.84 225.878 206.289 226.891 205.914C227.905 205.539 228.991 205.348 230.088 205.351C231.381 205.335 232.663 205.561 233.853 206.015L232.656 211.732C232.129 214.129 232.551 215.242 233.712 215.27C235.507 215.301 237.513 213.153 237.513 209.49C237.513 204.91 234.451 201.625 228.997 201.625C223.261 201.625 218.439 205.699 218.439 212.111C218.439 217.386 222.275 220.639 227.484 220.639C229.331 220.678 231.158 220.298 232.798 219.534L233.355 220.889ZM231.419 207.244C230.848 207.094 230.255 207.019 229.66 207.023C226.563 207.023 224.065 209.645 224.065 212.709C224.065 214.098 224.839 215.106 226.387 215.106C228.428 215.106 230.293 212.769 230.679 210.81L231.419 207.244Z" fill="#191919"/>
<path d="M250.593 209.297V211.352H241.901V209.297H250.593Z" fill="#191919"/>
<path d="M261.395 209.297V211.352H252.702V209.297H261.395Z" fill="#191919"/>
<path d="M272.195 209.297V211.352H263.504V209.297H272.195Z" fill="#191919"/>
</g>
</svg>
